<?xml version="1.0" encoding="utf-8" standalone="no"?>
<!DOCTYPE svg PUBLIC "-//W3C//DTD SVG 1.1//EN"
  "http://www.w3.org/Graphics/SVG/1.1/DTD/svg11.dtd">
<svg xmlns:xlink="http://www.w3.org/1999/xlink" width="712.360937pt" height="496.479531pt" viewBox="0 0 712.360937 496.479531" xmlns="http://www.w3.org/2000/svg" version="1.1">
 <metadata>
  <rdf:RDF xmlns:dc="http://purl.org/dc/elements/1.1/" xmlns:cc="http://creativecommons.org/ns#" xmlns:rdf="http://www.w3.org/1999/02/22-rdf-syntax-ns#">
   <cc:Work>
    <dc:type rdf:resource="http://purl.org/dc/dcmitype/StillImage"/>
    <dc:date>2026-06-26T11:02:16.829801</dc:date>
    <dc:format>image/svg+xml</dc:format>
    <dc:creator>
     <cc:Agent>
      <dc:title>Matplotlib v3.11.0, https://matplotlib.org/</dc:title>
     </cc:Agent>
    </dc:creator>
   </cc:Work>
  </rdf:RDF>
 </metadata>
 <defs>
  <style type="text/css">*{stroke-linejoin: round; stroke-linecap: butt}</style>
 </defs>
 <g id="figure_1">
  <g id="patch_1">
   <path d="M 0 496.479531
L 712.360937 496.479531
L 712.360937 0
L 0 0
z
" style="fill: #ffffff"/>
  </g>
  <g id="axes_1">
   <g id="patch_2">
    <path d="M 34.563281 458.27875
L 705.160938 458.27875
L 705.160938 31.837812
L 34.563281 31.837812
z
" style="fill: #ffffff"/>
   </g>
   <g id="PathCollection_1">
    <path d="M 638.101172 167.832351
C 640.239308 167.832351 642.290159 166.982861 643.802049 165.470971
C 645.313939 163.959081 646.16343 161.908229 646.16343 159.770094
C 646.16343 157.631958 645.313939 155.581107 643.802049 154.069217
C 642.290159 152.557326 640.239308 151.707836 638.101172 151.707836
C 635.963036 151.707836 633.912185 152.557326 632.400295 154.069217
C 630.888404 155.581107 630.038914 157.631958 630.038914 159.770094
C 630.038914 161.908229 630.888404 163.959081 632.400295 165.470971
C 633.912185 166.982861 635.963036 167.832351 638.101172 167.832351
z
" clip-path="url(#pdf6e6a5c81)" style="fill: #264653; fill-opacity: 0.86; stroke: #1f2937; stroke-opacity: 0.86; stroke-width: 0.8"/>
    <path d="M 638.101172 252.558281
C 640.090195 252.558281 641.998021 251.768034 643.404473 250.361582
C 644.810925 248.95513 645.601172 247.047304 645.601172 245.058281
C 645.601172 243.069258 644.810925 241.161432 643.404473 239.75498
C 641.998021 238.348529 640.090195 237.558281 638.101172 237.558281
C 636.112149 237.558281 634.204323 238.348529 632.797871 239.75498
C 631.391419 241.161432 630.601172 243.069258 630.601172 245.058281
C 630.601172 247.047304 631.391419 248.95513 632.797871 250.361582
C 634.204323 251.768034 636.112149 252.558281 638.101172 252.558281
z
" clip-path="url(#pdf6e6a5c81)" style="fill: #577590; fill-opacity: 0.86; stroke: #1f2937; stroke-opacity: 0.86; stroke-width: 0.8"/>
    <path d="M 638.101172 83.069688
C 640.378678 83.069688 642.563211 82.164825 644.173651 80.554385
C 645.784091 78.943945 646.688954 76.759413 646.688954 74.481906
C 646.688954 72.2044 645.784091 70.019868 644.173651 68.409427
C 642.563211 66.798987 640.378678 65.894124 638.101172 65.894124
C 635.823665 65.894124 633.639133 66.798987 632.028693 68.409427
C 630.418253 70.019868 629.51339 72.2044 629.51339 74.481906
C 629.51339 76.759413 630.418253 78.943945 632.028693 80.554385
C 633.639133 82.164825 635.823665 83.069688 638.101172 83.069688
z
" clip-path="url(#pdf6e6a5c81)" style="fill: #3a0ca3; fill-opacity: 0.86; stroke: #1f2937; stroke-opacity: 0.86; stroke-width: 0.8"/>
    <path d="M 369.862109 87.180331
C 373.229771 87.180331 376.459955 85.842345 378.841252 83.461049
C 381.222548 81.079752 382.560534 77.849568 382.560534 74.481906
C 382.560534 71.114245 381.222548 67.88406 378.841252 65.502764
C 376.459955 63.121467 373.229771 61.783481 369.862109 61.783481
C 366.494448 61.783481 363.264263 63.121467 360.882967 65.502764
C 358.50167 67.88406 357.163684 71.114245 357.163684 74.481906
C 357.163684 77.849568 358.50167 81.079752 360.882967 83.461049
C 363.264263 85.842345 366.494448 87.180331 369.862109 87.180331
z
" clip-path="url(#pdf6e6a5c81)" style="fill: #f4a261; fill-opacity: 0.86; stroke: #1f2937; stroke-opacity: 0.86; stroke-width: 0.8"/>
    <path d="M 503.981641 85.321648
C 506.856374 85.321648 509.613752 84.179504 511.646495 82.146761
C 513.679239 80.114018 514.821382 77.356639 514.821382 74.481906
C 514.821382 71.607173 513.679239 68.849795 511.646495 66.817051
C 509.613752 64.784308 506.856374 63.642165 503.981641 63.642165
C 501.106908 63.642165 498.349529 64.784308 496.316786 66.817051
C 494.284042 68.849795 493.141899 71.607173 493.141899 74.481906
C 493.141899 77.356639 494.284042 80.114018 496.316786 82.146761
C 498.349529 84.179504 501.106908 85.321648 503.981641 85.321648
z
" clip-path="url(#pdf6e6a5c81)" style="fill: #2a9d8f; fill-opacity: 0.86; stroke: #1f2937; stroke-opacity: 0.86; stroke-width: 0.8"/>
    <path d="M 503.981641 169.770094
C 506.633672 169.770094 509.177439 168.716431 511.052708 166.841162
C 512.927978 164.965892 513.981641 162.422125 513.981641 159.770094
C 513.981641 157.118063 512.927978 154.574295 511.052708 152.699026
C 509.177439 150.823757 506.633672 149.770094 503.981641 149.770094
C 501.32961 149.770094 498.785842 150.823757 496.910573 152.699026
C 495.035304 154.574295 493.981641 157.118063 493.981641 159.770094
C 493.981641 162.422125 495.035304 164.965892 496.910573 166.841162
C 498.785842 168.716431 501.32961 169.770094 503.981641 169.770094
z
" clip-path="url(#pdf6e6a5c81)" style="fill: #2a9d8f; fill-opacity: 0.86; stroke: #1f2937; stroke-opacity: 0.86; stroke-width: 0.8"/>
    <path d="M 638.101172 167.832351
C 640.239308 167.832351 642.290159 166.982861 643.802049 165.470971
C 645.313939 163.959081 646.16343 161.908229 646.16343 159.770094
C 646.16343 157.631958 645.313939 155.581107 643.802049 154.069217
C 642.290159 152.557326 640.239308 151.707836 638.101172 151.707836
C 635.963036 151.707836 633.912185 152.557326 632.400295 154.069217
C 630.888404 155.581107 630.038914 157.631958 630.038914 159.770094
C 630.038914 161.908229 630.888404 163.959081 632.400295 165.470971
C 633.912185 166.982861 635.963036 167.832351 638.101172 167.832351
z
" clip-path="url(#pdf6e6a5c81)" style="fill: #90be6d; fill-opacity: 0.86; stroke: #1f2937; stroke-opacity: 0.86; stroke-width: 0.8"/>
    <path d="M 503.981641 169.770094
C 506.633672 169.770094 509.177439 168.716431 511.052708 166.841162
C 512.927978 164.965892 513.981641 162.422125 513.981641 159.770094
C 513.981641 157.118063 512.927978 154.574295 511.052708 152.699026
C 509.177439 150.823757 506.633672 149.770094 503.981641 149.770094
C 501.32961 149.770094 498.785842 150.823757 496.910573 152.699026
C 495.035304 154.574295 493.981641 157.118063 493.981641 159.770094
C 493.981641 162.422125 495.035304 164.965892 496.910573 166.841162
C 498.785842 168.716431 501.32961 169.770094 503.981641 169.770094
z
" clip-path="url(#pdf6e6a5c81)" style="fill: #e76f51; fill-opacity: 0.86; stroke: #1f2937; stroke-opacity: 0.86; stroke-width: 0.8"/>
   </g>
   <g id="patch_3">
    <path d="M 34.563281 117.126
L 705.160938 117.126
L 705.160938 31.837812
L 34.563281 31.837812
z
" clip-path="url(#pdf6e6a5c81)" style="fill: #fee2e2; opacity: 0.25; stroke: #fee2e2; stroke-linejoin: miter"/>
   </g>
   <g id="patch_4">
    <path d="M 34.563281 458.27875
L 302.802344 458.27875
L 302.802344 31.837812
L 34.563281 31.837812
z
" clip-path="url(#pdf6e6a5c81)" style="fill: #fef3c7; opacity: 0.22; stroke: #fef3c7; stroke-linejoin: miter"/>
   </g>
   <g id="PathCollection_2"/>
   <g id="PathCollection_3"/>
   <g id="PathCollection_4"/>
   <g id="PathCollection_5"/>
   <g id="PathCollection_6"/>
   <g id="PathCollection_7"/>
   <g id="PathCollection_8"/>
   <g id="PathCollection_9"/>
   <g id="PathCollection_10"/>
   <g id="PathCollection_11"/>
   <g id="matplotlib.axis_1">
    <g id="xtick_1">
     <g id="line2d_1">
      <path d="M 101.623047 458.27875
L 101.623047 31.837812
" clip-path="url(#pdf6e6a5c81)" style="fill: none; stroke: #b0b0b0; stroke-opacity: 0.25; stroke-width: 0.8; stroke-linecap: square"/>
     </g>
     <g id="line2d_2">
      <defs>
       <path id="m74d2827440" d="M 0 0
L 0 3.5
" style="stroke: #000000; stroke-width: 0.8"/>
      </defs>
      <g>
       <use xlink:href="#m74d2827440" x="101.623047" y="458.27875" style="stroke: #000000; stroke-width: 0.8"/>
      </g>
     </g>
     <g id="text_1">
      <!-- 1 -->
      <g transform="translate(98.441797 472.876406) scale(0.1 -0.1)">
       <defs>
        <path id="DejaVuSans-14" d="M 794 531
L 1825 531
L 1825 4091
L 703 3866
L 703 4441
L 1819 4666
L 2450 4666
L 2450 531
L 3481 531
L 3481 0
L 794 0
L 794 531
z
" transform="scale(0.015625)"/>
       </defs>
       <use xlink:href="#DejaVuSans-14"/>
      </g>
     </g>
    </g>
    <g id="xtick_2">
     <g id="line2d_3">
      <path d="M 235.742578 458.27875
L 235.742578 31.837812
" clip-path="url(#pdf6e6a5c81)" style="fill: none; stroke: #b0b0b0; stroke-opacity: 0.25; stroke-width: 0.8; stroke-linecap: square"/>
     </g>
     <g id="line2d_4">
      <g>
       <use xlink:href="#m74d2827440" x="235.742578" y="458.27875" style="stroke: #000000; stroke-width: 0.8"/>
      </g>
     </g>
     <g id="text_2">
      <!-- 2 -->
      <g transform="translate(232.561328 472.876406) scale(0.1 -0.1)">
       <defs>
        <path id="DejaVuSans-15" d="M 1228 531
L 3431 531
L 3431 0
L 469 0
L 469 531
Q 828 903 1448 1529
Q 2069 2156 2228 2338
Q 2531 2678 2651 2914
Q 2772 3150 2772 3378
Q 2772 3750 2511 3984
Q 2250 4219 1831 4219
Q 1534 4219 1204 4116
Q 875 4013 500 3803
L 500 4441
Q 881 4594 1212 4672
Q 1544 4750 1819 4750
Q 2544 4750 2975 4387
Q 3406 4025 3406 3419
Q 3406 3131 3298 2873
Q 3191 2616 2906 2266
Q 2828 2175 2409 1742
Q 1991 1309 1228 531
z
" transform="scale(0.015625)"/>
       </defs>
       <use xlink:href="#DejaVuSans-15"/>
      </g>
     </g>
    </g>
    <g id="xtick_3">
     <g id="line2d_5">
      <path d="M 369.862109 458.27875
L 369.862109 31.837812
" clip-path="url(#pdf6e6a5c81)" style="fill: none; stroke: #b0b0b0; stroke-opacity: 0.25; stroke-width: 0.8; stroke-linecap: square"/>
     </g>
     <g id="line2d_6">
      <g>
       <use xlink:href="#m74d2827440" x="369.862109" y="458.27875" style="stroke: #000000; stroke-width: 0.8"/>
      </g>
     </g>
     <g id="text_3">
      <!-- 3 -->
      <g transform="translate(366.680859 472.876406) scale(0.1 -0.1)">
       <defs>
        <path id="DejaVuSans-16" d="M 2597 2516
Q 3050 2419 3304 2112
Q 3559 1806 3559 1356
Q 3559 666 3084 287
Q 2609 -91 1734 -91
Q 1441 -91 1130 -33
Q 819 25 488 141
L 488 750
Q 750 597 1062 519
Q 1375 441 1716 441
Q 2309 441 2620 675
Q 2931 909 2931 1356
Q 2931 1769 2642 2001
Q 2353 2234 1838 2234
L 1294 2234
L 1294 2753
L 1863 2753
Q 2328 2753 2575 2939
Q 2822 3125 2822 3475
Q 2822 3834 2567 4026
Q 2313 4219 1838 4219
Q 1578 4219 1281 4162
Q 984 4106 628 3988
L 628 4550
Q 988 4650 1302 4700
Q 1616 4750 1894 4750
Q 2613 4750 3031 4423
Q 3450 4097 3450 3541
Q 3450 3153 3228 2886
Q 3006 2619 2597 2516
z
" transform="scale(0.015625)"/>
       </defs>
       <use xlink:href="#DejaVuSans-16"/>
      </g>
     </g>
    </g>
    <g id="xtick_4">
     <g id="line2d_7">
      <path d="M 503.981641 458.27875
L 503.981641 31.837812
" clip-path="url(#pdf6e6a5c81)" style="fill: none; stroke: #b0b0b0; stroke-opacity: 0.25; stroke-width: 0.8; stroke-linecap: square"/>
     </g>
     <g id="line2d_8">
      <g>
       <use xlink:href="#m74d2827440" x="503.981641" y="458.27875" style="stroke: #000000; stroke-width: 0.8"/>
      </g>
     </g>
     <g id="text_4">
      <!-- 4 -->
      <g transform="translate(500.800391 472.876406) scale(0.1 -0.1)">
       <defs>
        <path id="DejaVuSans-17" d="M 2419 4116
L 825 1625
L 2419 1625
L 2419 4116
z
M 2253 4666
L 3047 4666
L 3047 1625
L 3713 1625
L 3713 1100
L 3047 1100
L 3047 0
L 2419 0
L 2419 1100
L 313 1100
L 313 1709
L 2253 4666
z
" transform="scale(0.015625)"/>
       </defs>
       <use xlink:href="#DejaVuSans-17"/>
      </g>
     </g>
    </g>
    <g id="xtick_5">
     <g id="line2d_9">
      <path d="M 638.101172 458.27875
L 638.101172 31.837812
" clip-path="url(#pdf6e6a5c81)" style="fill: none; stroke: #b0b0b0; stroke-opacity: 0.25; stroke-width: 0.8; stroke-linecap: square"/>
     </g>
     <g id="line2d_10">
      <g>
       <use xlink:href="#m74d2827440" x="638.101172" y="458.27875" style="stroke: #000000; stroke-width: 0.8"/>
      </g>
     </g>
     <g id="text_5">
      <!-- 5 -->
      <g transform="translate(634.919922 472.876406) scale(0.1 -0.1)">
       <defs>
        <path id="DejaVuSans-18" d="M 691 4666
L 3169 4666
L 3169 4134
L 1269 4134
L 1269 2991
Q 1406 3038 1543 3061
Q 1681 3084 1819 3084
Q 2600 3084 3056 2656
Q 3513 2228 3513 1497
Q 3513 744 3044 326
Q 2575 -91 1722 -91
Q 1428 -91 1123 -41
Q 819 9 494 109
L 494 744
Q 775 591 1075 516
Q 1375 441 1709 441
Q 2250 441 2565 725
Q 2881 1009 2881 1497
Q 2881 1984 2565 2268
Q 2250 2553 1709 2553
Q 1456 2553 1204 2497
Q 953 2441 691 2322
L 691 4666
z
" transform="scale(0.015625)"/>
       </defs>
       <use xlink:href="#DejaVuSans-18"/>
      </g>
     </g>
    </g>
    <g id="text_6">
     <!-- Detectability (1 = hard to detect, 5 = easy) -->
     <g transform="translate(260.823047 486.877187) scale(0.1 -0.1)">
      <defs>
       <path id="DejaVuSans-27" d="M 1259 4147
L 1259 519
L 2022 519
Q 2988 519 3436 956
Q 3884 1394 3884 2338
Q 3884 3275 3436 3711
Q 2988 4147 2022 4147
L 1259 4147
z
M 628 4666
L 1925 4666
Q 3281 4666 3915 4102
Q 4550 3538 4550 2338
Q 4550 1131 3912 565
Q 3275 0 1925 0
L 628 0
L 628 4666
z
" transform="scale(0.015625)"/>
       <path id="DejaVuSans-48" d="M 3597 1894
L 3597 1613
L 953 1613
Q 991 1019 1311 708
Q 1631 397 2203 397
Q 2534 397 2845 478
Q 3156 559 3463 722
L 3463 178
Q 3153 47 2828 -22
Q 2503 -91 2169 -91
Q 1331 -91 842 396
Q 353 884 353 1716
Q 353 2575 817 3079
Q 1281 3584 2069 3584
Q 2775 3584 3186 3129
Q 3597 2675 3597 1894
z
M 3022 2063
Q 3016 2534 2758 2815
Q 2500 3097 2075 3097
Q 1594 3097 1305 2825
Q 1016 2553 972 2059
L 3022 2063
z
" transform="scale(0.015625)"/>
       <path id="DejaVuSans-57" d="M 1172 4494
L 1172 3500
L 2356 3500
L 2356 3053
L 1172 3053
L 1172 1153
Q 1172 725 1289 603
Q 1406 481 1766 481
L 2356 481
L 2356 0
L 1766 0
Q 1100 0 847 248
Q 594 497 594 1153
L 594 3053
L 172 3053
L 172 3500
L 594 3500
L 594 4494
L 1172 4494
z
" transform="scale(0.015625)"/>
       <path id="DejaVuSans-46" d="M 3122 3366
L 3122 2828
Q 2878 2963 2633 3030
Q 2388 3097 2138 3097
Q 1578 3097 1268 2742
Q 959 2388 959 1747
Q 959 1106 1268 751
Q 1578 397 2138 397
Q 2388 397 2633 464
Q 2878 531 3122 666
L 3122 134
Q 2881 22 2623 -34
Q 2366 -91 2075 -91
Q 1284 -91 818 406
Q 353 903 353 1747
Q 353 2603 823 3093
Q 1294 3584 2113 3584
Q 2378 3584 2631 3529
Q 2884 3475 3122 3366
z
" transform="scale(0.015625)"/>
       <path id="DejaVuSans-44" d="M 2194 1759
Q 1497 1759 1228 1600
Q 959 1441 959 1056
Q 959 750 1161 570
Q 1363 391 1709 391
Q 2188 391 2477 730
Q 2766 1069 2766 1631
L 2766 1759
L 2194 1759
z
M 3341 1997
L 3341 0
L 2766 0
L 2766 531
Q 2569 213 2275 61
Q 1981 -91 1556 -91
Q 1019 -91 701 211
Q 384 513 384 1019
Q 384 1609 779 1909
Q 1175 2209 1959 2209
L 2766 2209
L 2766 2266
Q 2766 2663 2505 2880
Q 2244 3097 1772 3097
Q 1472 3097 1187 3025
Q 903 2953 641 2809
L 641 3341
Q 956 3463 1253 3523
Q 1550 3584 1831 3584
Q 2591 3584 2966 3190
Q 3341 2797 3341 1997
z
" transform="scale(0.015625)"/>
       <path id="DejaVuSans-45" d="M 3116 1747
Q 3116 2381 2855 2742
Q 2594 3103 2138 3103
Q 1681 3103 1420 2742
Q 1159 2381 1159 1747
Q 1159 1113 1420 752
Q 1681 391 2138 391
Q 2594 391 2855 752
Q 3116 1113 3116 1747
z
M 1159 2969
Q 1341 3281 1617 3432
Q 1894 3584 2278 3584
Q 2916 3584 3314 3078
Q 3713 2572 3713 1747
Q 3713 922 3314 415
Q 2916 -91 2278 -91
Q 1894 -91 1617 61
Q 1341 213 1159 525
L 1159 0
L 581 0
L 581 4863
L 1159 4863
L 1159 2969
z
" transform="scale(0.015625)"/>
       <path id="DejaVuSans-4c" d="M 603 3500
L 1178 3500
L 1178 0
L 603 0
L 603 3500
z
M 603 4863
L 1178 4863
L 1178 4134
L 603 4134
L 603 4863
z
" transform="scale(0.015625)"/>
       <path id="DejaVuSans-4f" d="M 603 4863
L 1178 4863
L 1178 0
L 603 0
L 603 4863
z
" transform="scale(0.015625)"/>
       <path id="DejaVuSans-5c" d="M 2059 -325
Q 1816 -950 1584 -1140
Q 1353 -1331 966 -1331
L 506 -1331
L 506 -850
L 844 -850
Q 1081 -850 1212 -737
Q 1344 -625 1503 -206
L 1606 56
L 191 3500
L 800 3500
L 1894 763
L 2988 3500
L 3597 3500
L 2059 -325
z
" transform="scale(0.015625)"/>
       <path id="DejaVuSans-3" transform="scale(0.015625)"/>
       <path id="DejaVuSans-b" d="M 1984 4856
Q 1566 4138 1362 3434
Q 1159 2731 1159 2009
Q 1159 1288 1364 580
Q 1569 -128 1984 -844
L 1484 -844
Q 1016 -109 783 600
Q 550 1309 550 2009
Q 550 2706 781 3412
Q 1013 4119 1484 4856
L 1984 4856
z
" transform="scale(0.015625)"/>
       <path id="DejaVuSans-20" d="M 678 2906
L 4684 2906
L 4684 2381
L 678 2381
L 678 2906
z
M 678 1631
L 4684 1631
L 4684 1100
L 678 1100
L 678 1631
z
" transform="scale(0.015625)"/>
       <path id="DejaVuSans-4b" d="M 3513 2113
L 3513 0
L 2938 0
L 2938 2094
Q 2938 2591 2744 2837
Q 2550 3084 2163 3084
Q 1697 3084 1428 2787
Q 1159 2491 1159 1978
L 1159 0
L 581 0
L 581 4863
L 1159 4863
L 1159 2956
Q 1366 3272 1645 3428
Q 1925 3584 2291 3584
Q 2894 3584 3203 3211
Q 3513 2838 3513 2113
z
" transform="scale(0.015625)"/>
       <path id="DejaVuSans-55" d="M 2631 2963
Q 2534 3019 2420 3045
Q 2306 3072 2169 3072
Q 1681 3072 1420 2755
Q 1159 2438 1159 1844
L 1159 0
L 581 0
L 581 3500
L 1159 3500
L 1159 2956
Q 1341 3275 1631 3429
Q 1922 3584 2338 3584
Q 2397 3584 2469 3576
Q 2541 3569 2628 3553
L 2631 2963
z
" transform="scale(0.015625)"/>
       <path id="DejaVuSans-47" d="M 2906 2969
L 2906 4863
L 3481 4863
L 3481 0
L 2906 0
L 2906 525
Q 2725 213 2448 61
Q 2172 -91 1784 -91
Q 1150 -91 751 415
Q 353 922 353 1747
Q 353 2572 751 3078
Q 1150 3584 1784 3584
Q 2172 3584 2448 3432
Q 2725 3281 2906 2969
z
M 947 1747
Q 947 1113 1208 752
Q 1469 391 1925 391
Q 2381 391 2643 752
Q 2906 1113 2906 1747
Q 2906 2381 2643 2742
Q 2381 3103 1925 3103
Q 1469 3103 1208 2742
Q 947 2381 947 1747
z
" transform="scale(0.015625)"/>
       <path id="DejaVuSans-52" d="M 1959 3097
Q 1497 3097 1228 2736
Q 959 2375 959 1747
Q 959 1119 1226 758
Q 1494 397 1959 397
Q 2419 397 2687 759
Q 2956 1122 2956 1747
Q 2956 2369 2687 2733
Q 2419 3097 1959 3097
z
M 1959 3584
Q 2709 3584 3137 3096
Q 3566 2609 3566 1747
Q 3566 888 3137 398
Q 2709 -91 1959 -91
Q 1206 -91 779 398
Q 353 888 353 1747
Q 353 2609 779 3096
Q 1206 3584 1959 3584
z
" transform="scale(0.015625)"/>
       <path id="DejaVuSans-f" d="M 750 794
L 1409 794
L 1409 256
L 897 -744
L 494 -744
L 750 256
L 750 794
z
" transform="scale(0.015625)"/>
       <path id="DejaVuSans-56" d="M 2834 3397
L 2834 2853
Q 2591 2978 2328 3040
Q 2066 3103 1784 3103
Q 1356 3103 1142 2972
Q 928 2841 928 2578
Q 928 2378 1081 2264
Q 1234 2150 1697 2047
L 1894 2003
Q 2506 1872 2764 1633
Q 3022 1394 3022 966
Q 3022 478 2636 193
Q 2250 -91 1575 -91
Q 1294 -91 989 -36
Q 684 19 347 128
L 347 722
Q 666 556 975 473
Q 1284 391 1588 391
Q 1994 391 2212 530
Q 2431 669 2431 922
Q 2431 1156 2273 1281
Q 2116 1406 1581 1522
L 1381 1569
Q 847 1681 609 1914
Q 372 2147 372 2553
Q 372 3047 722 3315
Q 1072 3584 1716 3584
Q 2034 3584 2315 3537
Q 2597 3491 2834 3397
z
" transform="scale(0.015625)"/>
       <path id="DejaVuSans-c" d="M 513 4856
L 1013 4856
Q 1481 4119 1714 3412
Q 1947 2706 1947 2009
Q 1947 1309 1714 600
Q 1481 -109 1013 -844
L 513 -844
Q 928 -128 1133 580
Q 1338 1288 1338 2009
Q 1338 2731 1133 3434
Q 928 4138 513 4856
z
" transform="scale(0.015625)"/>
      </defs>
      <use xlink:href="#DejaVuSans-27"/>
      <use xlink:href="#DejaVuSans-48" transform="translate(77 0)"/>
      <use xlink:href="#DejaVuSans-57" transform="translate(138.53125 0)"/>
      <use xlink:href="#DejaVuSans-48" transform="translate(177.734375 0)"/>
      <use xlink:href="#DejaVuSans-46" transform="translate(239.265625 0)"/>
      <use xlink:href="#DejaVuSans-57" transform="translate(294.25 0)"/>
      <use xlink:href="#DejaVuSans-44" transform="translate(333.453125 0)"/>
      <use xlink:href="#DejaVuSans-45" transform="translate(394.734375 0)"/>
      <use xlink:href="#DejaVuSans-4c" transform="translate(458.21875 0)"/>
      <use xlink:href="#DejaVuSans-4f" transform="translate(486 0)"/>
      <use xlink:href="#DejaVuSans-4c" transform="translate(513.78125 0)"/>
      <use xlink:href="#DejaVuSans-57" transform="translate(541.5625 0)"/>
      <use xlink:href="#DejaVuSans-5c" transform="translate(580.765625 0)"/>
      <use xlink:href="#DejaVuSans-3" transform="translate(639.953125 0)"/>
      <use xlink:href="#DejaVuSans-b" transform="translate(671.734375 0)"/>
      <use xlink:href="#DejaVuSans-14" transform="translate(710.75 0)"/>
      <use xlink:href="#DejaVuSans-3" transform="translate(774.375 0)"/>
      <use xlink:href="#DejaVuSans-20" transform="translate(806.15625 0)"/>
      <use xlink:href="#DejaVuSans-3" transform="translate(889.953125 0)"/>
      <use xlink:href="#DejaVuSans-4b" transform="translate(921.734375 0)"/>
      <use xlink:href="#DejaVuSans-44" transform="translate(985.109375 0)"/>
      <use xlink:href="#DejaVuSans-55" transform="translate(1046.390625 0)"/>
      <use xlink:href="#DejaVuSans-47" transform="translate(1085.75 0)"/>
      <use xlink:href="#DejaVuSans-3" transform="translate(1149.234375 0)"/>
      <use xlink:href="#DejaVuSans-57" transform="translate(1181.015625 0)"/>
      <use xlink:href="#DejaVuSans-52" transform="translate(1220.21875 0)"/>
      <use xlink:href="#DejaVuSans-3" transform="translate(1281.40625 0)"/>
      <use xlink:href="#DejaVuSans-47" transform="translate(1313.1875 0)"/>
      <use xlink:href="#DejaVuSans-48" transform="translate(1376.671875 0)"/>
      <use xlink:href="#DejaVuSans-57" transform="translate(1438.203125 0)"/>
      <use xlink:href="#DejaVuSans-48" transform="translate(1477.40625 0)"/>
      <use xlink:href="#DejaVuSans-46" transform="translate(1538.9375 0)"/>
      <use xlink:href="#DejaVuSans-57" transform="translate(1593.921875 0)"/>
      <use xlink:href="#DejaVuSans-f" transform="translate(1633.125 0)"/>
      <use xlink:href="#DejaVuSans-3" transform="translate(1664.90625 0)"/>
      <use xlink:href="#DejaVuSans-18" transform="translate(1696.6875 0)"/>
      <use xlink:href="#DejaVuSans-3" transform="translate(1760.3125 0)"/>
      <use xlink:href="#DejaVuSans-20" transform="translate(1792.09375 0)"/>
      <use xlink:href="#DejaVuSans-3" transform="translate(1875.890625 0)"/>
      <use xlink:href="#DejaVuSans-48" transform="translate(1907.671875 0)"/>
      <use xlink:href="#DejaVuSans-44" transform="translate(1969.203125 0)"/>
      <use xlink:href="#DejaVuSans-56" transform="translate(2030.484375 0)"/>
      <use xlink:href="#DejaVuSans-5c" transform="translate(2082.578125 0)"/>
      <use xlink:href="#DejaVuSans-c" transform="translate(2141.765625 0)"/>
     </g>
    </g>
   </g>
   <g id="matplotlib.axis_2">
    <g id="ytick_1">
     <g id="line2d_11">
      <path d="M 34.563281 415.634656
L 705.160938 415.634656
" clip-path="url(#pdf6e6a5c81)" style="fill: none; stroke: #b0b0b0; stroke-opacity: 0.25; stroke-width: 0.8; stroke-linecap: square"/>
     </g>
     <g id="line2d_12">
      <defs>
       <path id="md19b3483f5" d="M 0 0
L -3.5 0
" style="stroke: #000000; stroke-width: 0.8"/>
      </defs>
      <g>
       <use xlink:href="#md19b3483f5" x="34.563281" y="415.634656" style="stroke: #000000; stroke-width: 0.8"/>
      </g>
     </g>
     <g id="text_7">
      <!-- 1 -->
      <g transform="translate(21.200781 419.433484) scale(0.1 -0.1)">
       <use xlink:href="#DejaVuSans-14"/>
      </g>
     </g>
    </g>
    <g id="ytick_2">
     <g id="line2d_13">
      <path d="M 34.563281 330.346469
L 705.160938 330.346469
" clip-path="url(#pdf6e6a5c81)" style="fill: none; stroke: #b0b0b0; stroke-opacity: 0.25; stroke-width: 0.8; stroke-linecap: square"/>
     </g>
     <g id="line2d_14">
      <g>
       <use xlink:href="#md19b3483f5" x="34.563281" y="330.346469" style="stroke: #000000; stroke-width: 0.8"/>
      </g>
     </g>
     <g id="text_8">
      <!-- 2 -->
      <g transform="translate(21.200781 334.145297) scale(0.1 -0.1)">
       <use xlink:href="#DejaVuSans-15"/>
      </g>
     </g>
    </g>
    <g id="ytick_3">
     <g id="line2d_15">
      <path d="M 34.563281 245.058281
L 705.160938 245.058281
" clip-path="url(#pdf6e6a5c81)" style="fill: none; stroke: #b0b0b0; stroke-opacity: 0.25; stroke-width: 0.8; stroke-linecap: square"/>
     </g>
     <g id="line2d_16">
      <g>
       <use xlink:href="#md19b3483f5" x="34.563281" y="245.058281" style="stroke: #000000; stroke-width: 0.8"/>
      </g>
     </g>
     <g id="text_9">
      <!-- 3 -->
      <g transform="translate(21.200781 248.857109) scale(0.1 -0.1)">
       <use xlink:href="#DejaVuSans-16"/>
      </g>
     </g>
    </g>
    <g id="ytick_4">
     <g id="line2d_17">
      <path d="M 34.563281 159.770094
L 705.160938 159.770094
" clip-path="url(#pdf6e6a5c81)" style="fill: none; stroke: #b0b0b0; stroke-opacity: 0.25; stroke-width: 0.8; stroke-linecap: square"/>
     </g>
     <g id="line2d_18">
      <g>
       <use xlink:href="#md19b3483f5" x="34.563281" y="159.770094" style="stroke: #000000; stroke-width: 0.8"/>
      </g>
     </g>
     <g id="text_10">
      <!-- 4 -->
      <g transform="translate(21.200781 163.568922) scale(0.1 -0.1)">
       <use xlink:href="#DejaVuSans-17"/>
      </g>
     </g>
    </g>
    <g id="ytick_5">
     <g id="line2d_19">
      <path d="M 34.563281 74.481906
L 705.160938 74.481906
" clip-path="url(#pdf6e6a5c81)" style="fill: none; stroke: #b0b0b0; stroke-opacity: 0.25; stroke-width: 0.8; stroke-linecap: square"/>
     </g>
     <g id="line2d_20">
      <g>
       <use xlink:href="#md19b3483f5" x="34.563281" y="74.481906" style="stroke: #000000; stroke-width: 0.8"/>
      </g>
     </g>
     <g id="text_11">
      <!-- 5 -->
      <g transform="translate(21.200781 78.280734) scale(0.1 -0.1)">
       <use xlink:href="#DejaVuSans-18"/>
      </g>
     </g>
    </g>
    <g id="text_12">
     <!-- Severity (1 = low, 5 = high) -->
     <g transform="translate(14.798438 314.914531) rotate(-90) scale(0.1 -0.1)">
      <defs>
       <path id="DejaVuSans-36" d="M 3425 4513
L 3425 3897
Q 3066 4069 2747 4153
Q 2428 4238 2131 4238
Q 1616 4238 1336 4038
Q 1056 3838 1056 3469
Q 1056 3159 1242 3001
Q 1428 2844 1947 2747
L 2328 2669
Q 3034 2534 3370 2195
Q 3706 1856 3706 1288
Q 3706 609 3251 259
Q 2797 -91 1919 -91
Q 1588 -91 1214 -16
Q 841 59 441 206
L 441 856
Q 825 641 1194 531
Q 1563 422 1919 422
Q 2459 422 2753 634
Q 3047 847 3047 1241
Q 3047 1584 2836 1778
Q 2625 1972 2144 2069
L 1759 2144
Q 1053 2284 737 2584
Q 422 2884 422 3419
Q 422 4038 858 4394
Q 1294 4750 2059 4750
Q 2388 4750 2728 4690
Q 3069 4631 3425 4513
z
" transform="scale(0.015625)"/>
       <path id="DejaVuSans-59" d="M 191 3500
L 800 3500
L 1894 563
L 2988 3500
L 3597 3500
L 2284 0
L 1503 0
L 191 3500
z
" transform="scale(0.015625)"/>
       <path id="DejaVuSans-5a" d="M 269 3500
L 844 3500
L 1563 769
L 2278 3500
L 2956 3500
L 3675 769
L 4391 3500
L 4966 3500
L 4050 0
L 3372 0
L 2619 2869
L 1863 0
L 1184 0
L 269 3500
z
" transform="scale(0.015625)"/>
       <path id="DejaVuSans-4a" d="M 2906 1791
Q 2906 2416 2648 2759
Q 2391 3103 1925 3103
Q 1463 3103 1205 2759
Q 947 2416 947 1791
Q 947 1169 1205 825
Q 1463 481 1925 481
Q 2391 481 2648 825
Q 2906 1169 2906 1791
z
M 3481 434
Q 3481 -459 3084 -895
Q 2688 -1331 1869 -1331
Q 1566 -1331 1297 -1286
Q 1028 -1241 775 -1147
L 775 -588
Q 1028 -725 1275 -790
Q 1522 -856 1778 -856
Q 2344 -856 2625 -561
Q 2906 -266 2906 331
L 2906 616
Q 2728 306 2450 153
Q 2172 0 1784 0
Q 1141 0 747 490
Q 353 981 353 1791
Q 353 2603 747 3093
Q 1141 3584 1784 3584
Q 2172 3584 2450 3431
Q 2728 3278 2906 2969
L 2906 3500
L 3481 3500
L 3481 434
z
" transform="scale(0.015625)"/>
      </defs>
      <use xlink:href="#DejaVuSans-36"/>
      <use xlink:href="#DejaVuSans-48" transform="translate(63.484375 0)"/>
      <use xlink:href="#DejaVuSans-59" transform="translate(125.015625 0)"/>
      <use xlink:href="#DejaVuSans-48" transform="translate(184.203125 0)"/>
      <use xlink:href="#DejaVuSans-55" transform="translate(245.734375 0)"/>
      <use xlink:href="#DejaVuSans-4c" transform="translate(286.84375 0)"/>
      <use xlink:href="#DejaVuSans-57" transform="translate(314.625 0)"/>
      <use xlink:href="#DejaVuSans-5c" transform="translate(353.828125 0)"/>
      <use xlink:href="#DejaVuSans-3" transform="translate(413.015625 0)"/>
      <use xlink:href="#DejaVuSans-b" transform="translate(444.796875 0)"/>
      <use xlink:href="#DejaVuSans-14" transform="translate(483.8125 0)"/>
      <use xlink:href="#DejaVuSans-3" transform="translate(547.4375 0)"/>
      <use xlink:href="#DejaVuSans-20" transform="translate(579.21875 0)"/>
      <use xlink:href="#DejaVuSans-3" transform="translate(663.015625 0)"/>
      <use xlink:href="#DejaVuSans-4f" transform="translate(694.796875 0)"/>
      <use xlink:href="#DejaVuSans-52" transform="translate(722.578125 0)"/>
      <use xlink:href="#DejaVuSans-5a" transform="translate(783.765625 0)"/>
      <use xlink:href="#DejaVuSans-f" transform="translate(865.546875 0)"/>
      <use xlink:href="#DejaVuSans-3" transform="translate(897.328125 0)"/>
      <use xlink:href="#DejaVuSans-18" transform="translate(929.109375 0)"/>
      <use xlink:href="#DejaVuSans-3" transform="translate(992.734375 0)"/>
      <use xlink:href="#DejaVuSans-20" transform="translate(1024.515625 0)"/>
      <use xlink:href="#DejaVuSans-3" transform="translate(1108.3125 0)"/>
      <use xlink:href="#DejaVuSans-4b" transform="translate(1140.09375 0)"/>
      <use xlink:href="#DejaVuSans-4c" transform="translate(1203.46875 0)"/>
      <use xlink:href="#DejaVuSans-4a" transform="translate(1231.25 0)"/>
      <use xlink:href="#DejaVuSans-4b" transform="translate(1294.734375 0)"/>
      <use xlink:href="#DejaVuSans-c" transform="translate(1358.109375 0)"/>
     </g>
    </g>
   </g>
   <g id="patch_5">
    <path d="M 34.563281 458.27875
L 34.563281 31.837812
" style="fill: none; stroke: #000000; stroke-width: 0.8; stroke-linejoin: miter; stroke-linecap: square"/>
   </g>
   <g id="patch_6">
    <path d="M 705.160938 458.27875
L 705.160938 31.837812
" style="fill: none; stroke: #000000; stroke-width: 0.8; stroke-linejoin: miter; stroke-linecap: square"/>
   </g>
   <g id="patch_7">
    <path d="M 34.563281 458.27875
L 705.160937 458.27875
" style="fill: none; stroke: #000000; stroke-width: 0.8; stroke-linejoin: miter; stroke-linecap: square"/>
   </g>
   <g id="patch_8">
    <path d="M 34.563281 31.837812
L 705.160937 31.837812
" style="fill: none; stroke: #000000; stroke-width: 0.8; stroke-linejoin: miter; stroke-linecap: square"/>
   </g>
   <g id="text_13">
    <!-- I1 -->
    <g transform="translate(643.101172 154.770094) scale(0.08 -0.08)">
     <defs>
      <path id="DejaVuSans-Bold-2c" d="M 588 4666
L 1791 4666
L 1791 0
L 588 0
L 588 4666
z
" transform="scale(0.015625)"/>
      <path id="DejaVuSans-Bold-14" d="M 750 831
L 1813 831
L 1813 3847
L 722 3622
L 722 4441
L 1806 4666
L 2950 4666
L 2950 831
L 4013 831
L 4013 0
L 750 0
L 750 831
z
" transform="scale(0.015625)"/>
     </defs>
     <use xlink:href="#DejaVuSans-Bold-2c"/>
     <use xlink:href="#DejaVuSans-Bold-14" transform="translate(37.203125 0)"/>
    </g>
   </g>
   <g id="text_14">
    <!-- I2 -->
    <g transform="translate(643.101172 240.058281) scale(0.08 -0.08)">
     <defs>
      <path id="DejaVuSans-Bold-15" d="M 1844 884
L 3897 884
L 3897 0
L 506 0
L 506 884
L 2209 2388
Q 2438 2594 2547 2791
Q 2656 2988 2656 3200
Q 2656 3528 2436 3728
Q 2216 3928 1850 3928
Q 1569 3928 1234 3808
Q 900 3688 519 3450
L 519 4475
Q 925 4609 1322 4679
Q 1719 4750 2100 4750
Q 2938 4750 3402 4381
Q 3866 4013 3866 3353
Q 3866 2972 3669 2642
Q 3472 2313 2841 1759
L 1844 884
z
" transform="scale(0.015625)"/>
     </defs>
     <use xlink:href="#DejaVuSans-Bold-2c"/>
     <use xlink:href="#DejaVuSans-Bold-15" transform="translate(37.203125 0)"/>
    </g>
   </g>
   <g id="text_15">
    <!-- I3 -->
    <g transform="translate(643.101172 69.481906) scale(0.08 -0.08)">
     <defs>
      <path id="DejaVuSans-Bold-16" d="M 2981 2516
Q 3453 2394 3698 2092
Q 3944 1791 3944 1325
Q 3944 631 3412 270
Q 2881 -91 1863 -91
Q 1503 -91 1142 -33
Q 781 25 428 141
L 428 1069
Q 766 900 1098 814
Q 1431 728 1753 728
Q 2231 728 2486 893
Q 2741 1059 2741 1369
Q 2741 1688 2480 1852
Q 2219 2016 1709 2016
L 1228 2016
L 1228 2791
L 1734 2791
Q 2188 2791 2409 2933
Q 2631 3075 2631 3366
Q 2631 3634 2415 3781
Q 2200 3928 1806 3928
Q 1516 3928 1219 3862
Q 922 3797 628 3669
L 628 4550
Q 984 4650 1334 4700
Q 1684 4750 2022 4750
Q 2931 4750 3382 4451
Q 3834 4153 3834 3553
Q 3834 3144 3618 2883
Q 3403 2622 2981 2516
z
" transform="scale(0.015625)"/>
     </defs>
     <use xlink:href="#DejaVuSans-Bold-2c"/>
     <use xlink:href="#DejaVuSans-Bold-16" transform="translate(37.203125 0)"/>
    </g>
   </g>
   <g id="text_16">
    <!-- I4 -->
    <g transform="translate(374.862109 69.481906) scale(0.08 -0.08)">
     <defs>
      <path id="DejaVuSans-Bold-17" d="M 2356 3675
L 1038 1722
L 2356 1722
L 2356 3675
z
M 2156 4666
L 3494 4666
L 3494 1722
L 4159 1722
L 4159 850
L 3494 850
L 3494 0
L 2356 0
L 2356 850
L 288 850
L 288 1881
L 2156 4666
z
" transform="scale(0.015625)"/>
     </defs>
     <use xlink:href="#DejaVuSans-Bold-2c"/>
     <use xlink:href="#DejaVuSans-Bold-17" transform="translate(37.203125 0)"/>
    </g>
   </g>
   <g id="text_17">
    <!-- I5 -->
    <g transform="translate(508.981641 69.481906) scale(0.08 -0.08)">
     <defs>
      <path id="DejaVuSans-Bold-18" d="M 678 4666
L 3669 4666
L 3669 3781
L 1638 3781
L 1638 3059
Q 1775 3097 1914 3117
Q 2053 3138 2203 3138
Q 3056 3138 3531 2711
Q 4006 2284 4006 1522
Q 4006 766 3489 337
Q 2972 -91 2053 -91
Q 1656 -91 1267 -14
Q 878 63 494 219
L 494 1166
Q 875 947 1217 837
Q 1559 728 1863 728
Q 2300 728 2551 942
Q 2803 1156 2803 1522
Q 2803 1891 2551 2103
Q 2300 2316 1863 2316
Q 1603 2316 1309 2248
Q 1016 2181 678 2041
L 678 4666
z
" transform="scale(0.015625)"/>
     </defs>
     <use xlink:href="#DejaVuSans-Bold-2c"/>
     <use xlink:href="#DejaVuSans-Bold-18" transform="translate(37.203125 0)"/>
    </g>
   </g>
   <g id="text_18">
    <!-- I6 -->
    <g transform="translate(508.981641 154.770094) scale(0.08 -0.08)">
     <defs>
      <path id="DejaVuSans-Bold-19" d="M 2316 2303
Q 2000 2303 1842 2098
Q 1684 1894 1684 1484
Q 1684 1075 1842 870
Q 2000 666 2316 666
Q 2634 666 2792 870
Q 2950 1075 2950 1484
Q 2950 1894 2792 2098
Q 2634 2303 2316 2303
z
M 3803 4544
L 3803 3681
Q 3506 3822 3243 3889
Q 2981 3956 2731 3956
Q 2194 3956 1894 3657
Q 1594 3359 1544 2772
Q 1750 2925 1990 3001
Q 2231 3078 2516 3078
Q 3231 3078 3670 2659
Q 4109 2241 4109 1563
Q 4109 813 3618 361
Q 3128 -91 2303 -91
Q 1394 -91 895 523
Q 397 1138 397 2266
Q 397 3422 980 4083
Q 1563 4744 2578 4744
Q 2900 4744 3203 4694
Q 3506 4644 3803 4544
z
" transform="scale(0.015625)"/>
     </defs>
     <use xlink:href="#DejaVuSans-Bold-2c"/>
     <use xlink:href="#DejaVuSans-Bold-19" transform="translate(37.203125 0)"/>
    </g>
   </g>
   <g id="text_19">
    <!-- I7 -->
    <g transform="translate(643.101172 154.770094) scale(0.08 -0.08)">
     <defs>
      <path id="DejaVuSans-Bold-1a" d="M 428 4666
L 3944 4666
L 3944 3988
L 2125 0
L 953 0
L 2675 3781
L 428 3781
L 428 4666
z
" transform="scale(0.015625)"/>
     </defs>
     <use xlink:href="#DejaVuSans-Bold-2c"/>
     <use xlink:href="#DejaVuSans-Bold-1a" transform="translate(37.203125 0)"/>
    </g>
   </g>
   <g id="text_20">
    <!-- I8 -->
    <g transform="translate(508.981641 154.770094) scale(0.08 -0.08)">
     <defs>
      <path id="DejaVuSans-Bold-1b" d="M 2228 2088
Q 1891 2088 1709 1903
Q 1528 1719 1528 1375
Q 1528 1031 1709 848
Q 1891 666 2228 666
Q 2563 666 2741 848
Q 2919 1031 2919 1375
Q 2919 1722 2741 1905
Q 2563 2088 2228 2088
z
M 1350 2484
Q 925 2613 709 2878
Q 494 3144 494 3541
Q 494 4131 934 4440
Q 1375 4750 2228 4750
Q 3075 4750 3515 4442
Q 3956 4134 3956 3541
Q 3956 3144 3739 2878
Q 3522 2613 3097 2484
Q 3572 2353 3814 2058
Q 4056 1763 4056 1313
Q 4056 619 3595 264
Q 3134 -91 2228 -91
Q 1319 -91 855 264
Q 391 619 391 1313
Q 391 1763 633 2058
Q 875 2353 1350 2484
z
M 1631 3419
Q 1631 3141 1786 2991
Q 1941 2841 2228 2841
Q 2509 2841 2662 2991
Q 2816 3141 2816 3419
Q 2816 3697 2662 3845
Q 2509 3994 2228 3994
Q 1941 3994 1786 3844
Q 1631 3694 1631 3419
z
" transform="scale(0.015625)"/>
     </defs>
     <use xlink:href="#DejaVuSans-Bold-2c"/>
     <use xlink:href="#DejaVuSans-Bold-1b" transform="translate(37.203125 0)"/>
    </g>
   </g>
   <g id="text_21">
    <g id="patch_9">
     <path d="M 43.005234 454.719931
L 188.793359 454.719931
L 188.793359 377.319619
L 43.005234 377.319619
z
" style="fill: #ffffff; opacity: 0.92; stroke: #d1d5db; stroke-linejoin: miter"/>
    </g>
    <!-- I1: Monotone refinery | source_code -->
    <g style="fill: #111827" transform="translate(47.975234 388.339834) scale(0.07 -0.07)">
     <defs>
      <path id="DejaVuSans-2c" d="M 628 4666
L 1259 4666
L 1259 0
L 628 0
L 628 4666
z
" transform="scale(0.015625)"/>
      <path id="DejaVuSans-1d" d="M 750 794
L 1409 794
L 1409 0
L 750 0
L 750 794
z
M 750 3309
L 1409 3309
L 1409 2516
L 750 2516
L 750 3309
z
" transform="scale(0.015625)"/>
      <path id="DejaVuSans-30" d="M 628 4666
L 1569 4666
L 2759 1491
L 3956 4666
L 4897 4666
L 4897 0
L 4281 0
L 4281 4097
L 3078 897
L 2444 897
L 1241 4097
L 1241 0
L 628 0
L 628 4666
z
" transform="scale(0.015625)"/>
      <path id="DejaVuSans-51" d="M 3513 2113
L 3513 0
L 2938 0
L 2938 2094
Q 2938 2591 2744 2837
Q 2550 3084 2163 3084
Q 1697 3084 1428 2787
Q 1159 2491 1159 1978
L 1159 0
L 581 0
L 581 3500
L 1159 3500
L 1159 2956
Q 1366 3272 1645 3428
Q 1925 3584 2291 3584
Q 2894 3584 3203 3211
Q 3513 2838 3513 2113
z
" transform="scale(0.015625)"/>
      <path id="DejaVuSans-13af" d="M 3431 3500
L 3431 0
L 2853 0
L 2853 3053
L 1275 3053
L 1275 0
L 697 0
L 697 3053
L 147 3053
L 147 3500
L 697 3500
L 697 3744
Q 697 4316 967 4589
Q 1238 4863 1797 4863
L 2375 4863
L 2375 4384
L 1825 4384
Q 1516 4384 1395 4259
Q 1275 4134 1275 3809
L 1275 3500
L 3431 3500
z
M 2853 4856
L 3431 4856
L 3431 4128
L 2853 4128
L 2853 4856
z
" transform="scale(0.015625)"/>
      <path id="DejaVuSans-5f" d="M 1344 4891
L 1344 -1509
L 813 -1509
L 813 4891
L 1344 4891
z
" transform="scale(0.015625)"/>
      <path id="DejaVuSans-58" d="M 544 1381
L 544 3500
L 1119 3500
L 1119 1403
Q 1119 906 1312 657
Q 1506 409 1894 409
Q 2359 409 2629 706
Q 2900 1003 2900 1516
L 2900 3500
L 3475 3500
L 3475 0
L 2900 0
L 2900 538
Q 2691 219 2414 64
Q 2138 -91 1772 -91
Q 1169 -91 856 284
Q 544 659 544 1381
z
M 1991 3584
L 1991 3584
z
" transform="scale(0.015625)"/>
      <path id="DejaVuSans-42" d="M 3263 -1063
L 3263 -1509
L -63 -1509
L -63 -1063
L 3263 -1063
z
" transform="scale(0.015625)"/>
     </defs>
     <use xlink:href="#DejaVuSans-2c"/>
     <use xlink:href="#DejaVuSans-14" transform="translate(29.5 0)"/>
     <use xlink:href="#DejaVuSans-1d" transform="translate(93.125 0)"/>
     <use xlink:href="#DejaVuSans-3" transform="translate(126.8125 0)"/>
     <use xlink:href="#DejaVuSans-30" transform="translate(158.59375 0)"/>
     <use xlink:href="#DejaVuSans-52" transform="translate(244.875 0)"/>
     <use xlink:href="#DejaVuSans-51" transform="translate(306.0625 0)"/>
     <use xlink:href="#DejaVuSans-52" transform="translate(369.4375 0)"/>
     <use xlink:href="#DejaVuSans-57" transform="translate(430.625 0)"/>
     <use xlink:href="#DejaVuSans-52" transform="translate(469.828125 0)"/>
     <use xlink:href="#DejaVuSans-51" transform="translate(531.015625 0)"/>
     <use xlink:href="#DejaVuSans-48" transform="translate(594.390625 0)"/>
     <use xlink:href="#DejaVuSans-3" transform="translate(655.921875 0)"/>
     <use xlink:href="#DejaVuSans-55" transform="translate(687.703125 0)"/>
     <use xlink:href="#DejaVuSans-48" transform="translate(726.609375 0)"/>
     <use xlink:href="#DejaVuSans-13af" transform="translate(788.140625 0)"/>
     <use xlink:href="#DejaVuSans-51" transform="translate(851.125 0)"/>
     <use xlink:href="#DejaVuSans-48" transform="translate(914.5 0)"/>
     <use xlink:href="#DejaVuSans-55" transform="translate(976.03125 0)"/>
     <use xlink:href="#DejaVuSans-5c" transform="translate(1017.140625 0)"/>
     <use xlink:href="#DejaVuSans-3" transform="translate(1076.328125 0)"/>
     <use xlink:href="#DejaVuSans-5f" transform="translate(1108.109375 0)"/>
     <use xlink:href="#DejaVuSans-3" transform="translate(1141.796875 0)"/>
     <use xlink:href="#DejaVuSans-56" transform="translate(1173.578125 0)"/>
     <use xlink:href="#DejaVuSans-52" transform="translate(1225.671875 0)"/>
     <use xlink:href="#DejaVuSans-58" transform="translate(1286.859375 0)"/>
     <use xlink:href="#DejaVuSans-55" transform="translate(1350.234375 0)"/>
     <use xlink:href="#DejaVuSans-46" transform="translate(1389.140625 0)"/>
     <use xlink:href="#DejaVuSans-48" transform="translate(1444.125 0)"/>
     <use xlink:href="#DejaVuSans-42" transform="translate(1505.65625 0)"/>
     <use xlink:href="#DejaVuSans-46" transform="translate(1555.65625 0)"/>
     <use xlink:href="#DejaVuSans-52" transform="translate(1610.640625 0)"/>
     <use xlink:href="#DejaVuSans-47" transform="translate(1671.828125 0)"/>
     <use xlink:href="#DejaVuSans-48" transform="translate(1735.3125 0)"/>
    </g>
    <!-- I2: Lexicon completeness | config -->
    <g style="fill: #111827" transform="translate(47.975234 396.772373) scale(0.07 -0.07)">
     <defs>
      <path id="DejaVuSans-2f" d="M 628 4666
L 1259 4666
L 1259 531
L 3531 531
L 3531 0
L 628 0
L 628 4666
z
" transform="scale(0.015625)"/>
      <path id="DejaVuSans-5b" d="M 3513 3500
L 2247 1797
L 3578 0
L 2900 0
L 1881 1375
L 863 0
L 184 0
L 1544 1831
L 300 3500
L 978 3500
L 1906 2253
L 2834 3500
L 3513 3500
z
" transform="scale(0.015625)"/>
      <path id="DejaVuSans-50" d="M 3328 2828
Q 3544 3216 3844 3400
Q 4144 3584 4550 3584
Q 5097 3584 5394 3201
Q 5691 2819 5691 2113
L 5691 0
L 5113 0
L 5113 2094
Q 5113 2597 4934 2840
Q 4756 3084 4391 3084
Q 3944 3084 3684 2787
Q 3425 2491 3425 1978
L 3425 0
L 2847 0
L 2847 2094
Q 2847 2600 2669 2842
Q 2491 3084 2119 3084
Q 1678 3084 1418 2786
Q 1159 2488 1159 1978
L 1159 0
L 581 0
L 581 3500
L 1159 3500
L 1159 2956
Q 1356 3278 1631 3431
Q 1906 3584 2284 3584
Q 2666 3584 2933 3390
Q 3200 3197 3328 2828
z
" transform="scale(0.015625)"/>
      <path id="DejaVuSans-53" d="M 1159 525
L 1159 -1331
L 581 -1331
L 581 3500
L 1159 3500
L 1159 2969
Q 1341 3281 1617 3432
Q 1894 3584 2278 3584
Q 2916 3584 3314 3078
Q 3713 2572 3713 1747
Q 3713 922 3314 415
Q 2916 -91 2278 -91
Q 1894 -91 1617 61
Q 1341 213 1159 525
z
M 3116 1747
Q 3116 2381 2855 2742
Q 2594 3103 2138 3103
Q 1681 3103 1420 2742
Q 1159 2381 1159 1747
Q 1159 1113 1420 752
Q 1681 391 2138 391
Q 2594 391 2855 752
Q 3116 1113 3116 1747
z
" transform="scale(0.015625)"/>
     </defs>
     <use xlink:href="#DejaVuSans-2c"/>
     <use xlink:href="#DejaVuSans-15" transform="translate(29.5 0)"/>
     <use xlink:href="#DejaVuSans-1d" transform="translate(93.125 0)"/>
     <use xlink:href="#DejaVuSans-3" transform="translate(126.8125 0)"/>
     <use xlink:href="#DejaVuSans-2f" transform="translate(158.59375 0)"/>
     <use xlink:href="#DejaVuSans-48" transform="translate(212.5625 0)"/>
     <use xlink:href="#DejaVuSans-5b" transform="translate(272.34375 0)"/>
     <use xlink:href="#DejaVuSans-4c" transform="translate(331.53125 0)"/>
     <use xlink:href="#DejaVuSans-46" transform="translate(359.3125 0)"/>
     <use xlink:href="#DejaVuSans-52" transform="translate(414.296875 0)"/>
     <use xlink:href="#DejaVuSans-51" transform="translate(475.484375 0)"/>
     <use xlink:href="#DejaVuSans-3" transform="translate(538.859375 0)"/>
     <use xlink:href="#DejaVuSans-46" transform="translate(570.640625 0)"/>
     <use xlink:href="#DejaVuSans-52" transform="translate(625.625 0)"/>
     <use xlink:href="#DejaVuSans-50" transform="translate(686.8125 0)"/>
     <use xlink:href="#DejaVuSans-53" transform="translate(784.21875 0)"/>
     <use xlink:href="#DejaVuSans-4f" transform="translate(847.703125 0)"/>
     <use xlink:href="#DejaVuSans-48" transform="translate(875.484375 0)"/>
     <use xlink:href="#DejaVuSans-57" transform="translate(937.015625 0)"/>
     <use xlink:href="#DejaVuSans-48" transform="translate(976.21875 0)"/>
     <use xlink:href="#DejaVuSans-51" transform="translate(1037.75 0)"/>
     <use xlink:href="#DejaVuSans-48" transform="translate(1101.125 0)"/>
     <use xlink:href="#DejaVuSans-56" transform="translate(1162.65625 0)"/>
     <use xlink:href="#DejaVuSans-56" transform="translate(1214.75 0)"/>
     <use xlink:href="#DejaVuSans-3" transform="translate(1266.84375 0)"/>
     <use xlink:href="#DejaVuSans-5f" transform="translate(1298.625 0)"/>
     <use xlink:href="#DejaVuSans-3" transform="translate(1332.3125 0)"/>
     <use xlink:href="#DejaVuSans-46" transform="translate(1364.09375 0)"/>
     <use xlink:href="#DejaVuSans-52" transform="translate(1419.078125 0)"/>
     <use xlink:href="#DejaVuSans-51" transform="translate(1480.265625 0)"/>
     <use xlink:href="#DejaVuSans-13af" transform="translate(1543.640625 0)"/>
     <use xlink:href="#DejaVuSans-4a" transform="translate(1606.625 0)"/>
    </g>
    <!-- I3: Token hydration | generated_metric -->
    <g style="fill: #111827" transform="translate(47.975234 405.204912) scale(0.07 -0.07)">
     <defs>
      <path id="DejaVuSans-37" d="M -19 4666
L 3928 4666
L 3928 4134
L 2272 4134
L 2272 0
L 1638 0
L 1638 4134
L -19 4134
L -19 4666
z
" transform="scale(0.015625)"/>
      <path id="DejaVuSans-4e" d="M 581 4863
L 1159 4863
L 1159 1991
L 2875 3500
L 3609 3500
L 1753 1863
L 3688 0
L 2938 0
L 1159 1709
L 1159 0
L 581 0
L 581 4863
z
" transform="scale(0.015625)"/>
     </defs>
     <use xlink:href="#DejaVuSans-2c"/>
     <use xlink:href="#DejaVuSans-16" transform="translate(29.5 0)"/>
     <use xlink:href="#DejaVuSans-1d" transform="translate(93.125 0)"/>
     <use xlink:href="#DejaVuSans-3" transform="translate(126.8125 0)"/>
     <use xlink:href="#DejaVuSans-37" transform="translate(158.59375 0)"/>
     <use xlink:href="#DejaVuSans-52" transform="translate(202.6875 0)"/>
     <use xlink:href="#DejaVuSans-4e" transform="translate(263.875 0)"/>
     <use xlink:href="#DejaVuSans-48" transform="translate(318.21875 0)"/>
     <use xlink:href="#DejaVuSans-51" transform="translate(379.75 0)"/>
     <use xlink:href="#DejaVuSans-3" transform="translate(443.125 0)"/>
     <use xlink:href="#DejaVuSans-4b" transform="translate(474.90625 0)"/>
     <use xlink:href="#DejaVuSans-5c" transform="translate(538.28125 0)"/>
     <use xlink:href="#DejaVuSans-47" transform="translate(597.46875 0)"/>
     <use xlink:href="#DejaVuSans-55" transform="translate(660.953125 0)"/>
     <use xlink:href="#DejaVuSans-44" transform="translate(702.0625 0)"/>
     <use xlink:href="#DejaVuSans-57" transform="translate(763.34375 0)"/>
     <use xlink:href="#DejaVuSans-4c" transform="translate(802.546875 0)"/>
     <use xlink:href="#DejaVuSans-52" transform="translate(830.328125 0)"/>
     <use xlink:href="#DejaVuSans-51" transform="translate(891.515625 0)"/>
     <use xlink:href="#DejaVuSans-3" transform="translate(954.890625 0)"/>
     <use xlink:href="#DejaVuSans-5f" transform="translate(986.671875 0)"/>
     <use xlink:href="#DejaVuSans-3" transform="translate(1020.359375 0)"/>
     <use xlink:href="#DejaVuSans-4a" transform="translate(1052.140625 0)"/>
     <use xlink:href="#DejaVuSans-48" transform="translate(1115.625 0)"/>
     <use xlink:href="#DejaVuSans-51" transform="translate(1177.15625 0)"/>
     <use xlink:href="#DejaVuSans-48" transform="translate(1240.53125 0)"/>
     <use xlink:href="#DejaVuSans-55" transform="translate(1302.0625 0)"/>
     <use xlink:href="#DejaVuSans-44" transform="translate(1343.171875 0)"/>
     <use xlink:href="#DejaVuSans-57" transform="translate(1404.453125 0)"/>
     <use xlink:href="#DejaVuSans-48" transform="translate(1443.65625 0)"/>
     <use xlink:href="#DejaVuSans-47" transform="translate(1505.1875 0)"/>
     <use xlink:href="#DejaVuSans-42" transform="translate(1568.671875 0)"/>
     <use xlink:href="#DejaVuSans-50" transform="translate(1618.671875 0)"/>
     <use xlink:href="#DejaVuSans-48" transform="translate(1716.078125 0)"/>
     <use xlink:href="#DejaVuSans-57" transform="translate(1777.609375 0)"/>
     <use xlink:href="#DejaVuSans-55" transform="translate(1816.8125 0)"/>
     <use xlink:href="#DejaVuSans-4c" transform="translate(1857.921875 0)"/>
     <use xlink:href="#DejaVuSans-46" transform="translate(1885.703125 0)"/>
    </g>
    <!-- I4: Analogy boundary | claim_ledger -->
    <g style="fill: #111827" transform="translate(47.975234 413.637451) scale(0.07 -0.07)">
     <defs>
      <path id="DejaVuSans-24" d="M 2188 4044
L 1331 1722
L 3047 1722
L 2188 4044
z
M 1831 4666
L 2547 4666
L 4325 0
L 3669 0
L 3244 1197
L 1141 1197
L 716 0
L 50 0
L 1831 4666
z
" transform="scale(0.015625)"/>
     </defs>
     <use xlink:href="#DejaVuSans-2c"/>
     <use xlink:href="#DejaVuSans-17" transform="translate(29.5 0)"/>
     <use xlink:href="#DejaVuSans-1d" transform="translate(93.125 0)"/>
     <use xlink:href="#DejaVuSans-3" transform="translate(126.8125 0)"/>
     <use xlink:href="#DejaVuSans-24" transform="translate(158.59375 0)"/>
     <use xlink:href="#DejaVuSans-51" transform="translate(227 0)"/>
     <use xlink:href="#DejaVuSans-44" transform="translate(290.375 0)"/>
     <use xlink:href="#DejaVuSans-4f" transform="translate(351.65625 0)"/>
     <use xlink:href="#DejaVuSans-52" transform="translate(379.4375 0)"/>
     <use xlink:href="#DejaVuSans-4a" transform="translate(440.625 0)"/>
     <use xlink:href="#DejaVuSans-5c" transform="translate(504.109375 0)"/>
     <use xlink:href="#DejaVuSans-3" transform="translate(563.296875 0)"/>
     <use xlink:href="#DejaVuSans-45" transform="translate(595.078125 0)"/>
     <use xlink:href="#DejaVuSans-52" transform="translate(658.5625 0)"/>
     <use xlink:href="#DejaVuSans-58" transform="translate(719.75 0)"/>
     <use xlink:href="#DejaVuSans-51" transform="translate(783.125 0)"/>
     <use xlink:href="#DejaVuSans-47" transform="translate(846.5 0)"/>
     <use xlink:href="#DejaVuSans-44" transform="translate(909.984375 0)"/>
     <use xlink:href="#DejaVuSans-55" transform="translate(971.265625 0)"/>
     <use xlink:href="#DejaVuSans-5c" transform="translate(1012.375 0)"/>
     <use xlink:href="#DejaVuSans-3" transform="translate(1071.5625 0)"/>
     <use xlink:href="#DejaVuSans-5f" transform="translate(1103.34375 0)"/>
     <use xlink:href="#DejaVuSans-3" transform="translate(1137.03125 0)"/>
     <use xlink:href="#DejaVuSans-46" transform="translate(1168.8125 0)"/>
     <use xlink:href="#DejaVuSans-4f" transform="translate(1223.796875 0)"/>
     <use xlink:href="#DejaVuSans-44" transform="translate(1251.578125 0)"/>
     <use xlink:href="#DejaVuSans-4c" transform="translate(1312.859375 0)"/>
     <use xlink:href="#DejaVuSans-50" transform="translate(1340.640625 0)"/>
     <use xlink:href="#DejaVuSans-42" transform="translate(1438.046875 0)"/>
     <use xlink:href="#DejaVuSans-4f" transform="translate(1488.046875 0)"/>
     <use xlink:href="#DejaVuSans-48" transform="translate(1515.828125 0)"/>
     <use xlink:href="#DejaVuSans-47" transform="translate(1577.359375 0)"/>
     <use xlink:href="#DejaVuSans-4a" transform="translate(1640.84375 0)"/>
     <use xlink:href="#DejaVuSans-48" transform="translate(1704.328125 0)"/>
     <use xlink:href="#DejaVuSans-55" transform="translate(1765.859375 0)"/>
    </g>
    <!-- I5: Claim support | artifact -->
    <g style="fill: #111827" transform="translate(47.975234 422.06999) scale(0.07 -0.07)">
     <defs>
      <path id="DejaVuSans-26" d="M 4122 4306
L 4122 3641
Q 3803 3938 3442 4084
Q 3081 4231 2675 4231
Q 1875 4231 1450 3742
Q 1025 3253 1025 2328
Q 1025 1406 1450 917
Q 1875 428 2675 428
Q 3081 428 3442 575
Q 3803 722 4122 1019
L 4122 359
Q 3791 134 3420 21
Q 3050 -91 2638 -91
Q 1578 -91 968 557
Q 359 1206 359 2328
Q 359 3453 968 4101
Q 1578 4750 2638 4750
Q 3056 4750 3426 4639
Q 3797 4528 4122 4306
z
" transform="scale(0.015625)"/>
      <path id="DejaVuSans-49" d="M 2375 4863
L 2375 4384
L 1825 4384
Q 1516 4384 1395 4259
Q 1275 4134 1275 3809
L 1275 3500
L 2222 3500
L 2222 3053
L 1275 3053
L 1275 0
L 697 0
L 697 3053
L 147 3053
L 147 3500
L 697 3500
L 697 3744
Q 697 4328 969 4595
Q 1241 4863 1831 4863
L 2375 4863
z
" transform="scale(0.015625)"/>
     </defs>
     <use xlink:href="#DejaVuSans-2c"/>
     <use xlink:href="#DejaVuSans-18" transform="translate(29.5 0)"/>
     <use xlink:href="#DejaVuSans-1d" transform="translate(93.125 0)"/>
     <use xlink:href="#DejaVuSans-3" transform="translate(126.8125 0)"/>
     <use xlink:href="#DejaVuSans-26" transform="translate(158.59375 0)"/>
     <use xlink:href="#DejaVuSans-4f" transform="translate(228.421875 0)"/>
     <use xlink:href="#DejaVuSans-44" transform="translate(256.203125 0)"/>
     <use xlink:href="#DejaVuSans-4c" transform="translate(317.484375 0)"/>
     <use xlink:href="#DejaVuSans-50" transform="translate(345.265625 0)"/>
     <use xlink:href="#DejaVuSans-3" transform="translate(442.671875 0)"/>
     <use xlink:href="#DejaVuSans-56" transform="translate(474.453125 0)"/>
     <use xlink:href="#DejaVuSans-58" transform="translate(526.546875 0)"/>
     <use xlink:href="#DejaVuSans-53" transform="translate(589.921875 0)"/>
     <use xlink:href="#DejaVuSans-53" transform="translate(653.40625 0)"/>
     <use xlink:href="#DejaVuSans-52" transform="translate(716.890625 0)"/>
     <use xlink:href="#DejaVuSans-55" transform="translate(778.078125 0)"/>
     <use xlink:href="#DejaVuSans-57" transform="translate(819.1875 0)"/>
     <use xlink:href="#DejaVuSans-3" transform="translate(858.390625 0)"/>
     <use xlink:href="#DejaVuSans-5f" transform="translate(890.171875 0)"/>
     <use xlink:href="#DejaVuSans-3" transform="translate(923.859375 0)"/>
     <use xlink:href="#DejaVuSans-44" transform="translate(955.640625 0)"/>
     <use xlink:href="#DejaVuSans-55" transform="translate(1016.921875 0)"/>
     <use xlink:href="#DejaVuSans-57" transform="translate(1058.03125 0)"/>
     <use xlink:href="#DejaVuSans-4c" transform="translate(1097.234375 0)"/>
     <use xlink:href="#DejaVuSans-49" transform="translate(1125.015625 0)"/>
     <use xlink:href="#DejaVuSans-44" transform="translate(1160.21875 0)"/>
     <use xlink:href="#DejaVuSans-46" transform="translate(1221.5 0)"/>
     <use xlink:href="#DejaVuSans-57" transform="translate(1276.484375 0)"/>
    </g>
    <!-- I6: Figure registry | artifact -->
    <g style="fill: #111827" transform="translate(47.975234 430.502529) scale(0.07 -0.07)">
     <defs>
      <path id="DejaVuSans-19" d="M 2113 2584
Q 1688 2584 1439 2293
Q 1191 2003 1191 1497
Q 1191 994 1439 701
Q 1688 409 2113 409
Q 2538 409 2786 701
Q 3034 994 3034 1497
Q 3034 2003 2786 2293
Q 2538 2584 2113 2584
z
M 3366 4563
L 3366 3988
Q 3128 4100 2886 4159
Q 2644 4219 2406 4219
Q 1781 4219 1451 3797
Q 1122 3375 1075 2522
Q 1259 2794 1537 2939
Q 1816 3084 2150 3084
Q 2853 3084 3261 2657
Q 3669 2231 3669 1497
Q 3669 778 3244 343
Q 2819 -91 2113 -91
Q 1303 -91 875 529
Q 447 1150 447 2328
Q 447 3434 972 4092
Q 1497 4750 2381 4750
Q 2619 4750 2861 4703
Q 3103 4656 3366 4563
z
" transform="scale(0.015625)"/>
      <path id="DejaVuSans-29" d="M 628 4666
L 3309 4666
L 3309 4134
L 1259 4134
L 1259 2759
L 3109 2759
L 3109 2228
L 1259 2228
L 1259 0
L 628 0
L 628 4666
z
" transform="scale(0.015625)"/>
     </defs>
     <use xlink:href="#DejaVuSans-2c"/>
     <use xlink:href="#DejaVuSans-19" transform="translate(29.5 0)"/>
     <use xlink:href="#DejaVuSans-1d" transform="translate(93.125 0)"/>
     <use xlink:href="#DejaVuSans-3" transform="translate(126.8125 0)"/>
     <use xlink:href="#DejaVuSans-29" transform="translate(158.59375 0)"/>
     <use xlink:href="#DejaVuSans-4c" transform="translate(208.828125 0)"/>
     <use xlink:href="#DejaVuSans-4a" transform="translate(236.609375 0)"/>
     <use xlink:href="#DejaVuSans-58" transform="translate(300.09375 0)"/>
     <use xlink:href="#DejaVuSans-55" transform="translate(363.46875 0)"/>
     <use xlink:href="#DejaVuSans-48" transform="translate(402.375 0)"/>
     <use xlink:href="#DejaVuSans-3" transform="translate(463.90625 0)"/>
     <use xlink:href="#DejaVuSans-55" transform="translate(495.6875 0)"/>
     <use xlink:href="#DejaVuSans-48" transform="translate(534.59375 0)"/>
     <use xlink:href="#DejaVuSans-4a" transform="translate(596.125 0)"/>
     <use xlink:href="#DejaVuSans-4c" transform="translate(659.609375 0)"/>
     <use xlink:href="#DejaVuSans-56" transform="translate(687.390625 0)"/>
     <use xlink:href="#DejaVuSans-57" transform="translate(739.484375 0)"/>
     <use xlink:href="#DejaVuSans-55" transform="translate(778.6875 0)"/>
     <use xlink:href="#DejaVuSans-5c" transform="translate(819.796875 0)"/>
     <use xlink:href="#DejaVuSans-3" transform="translate(878.984375 0)"/>
     <use xlink:href="#DejaVuSans-5f" transform="translate(910.765625 0)"/>
     <use xlink:href="#DejaVuSans-3" transform="translate(944.453125 0)"/>
     <use xlink:href="#DejaVuSans-44" transform="translate(976.234375 0)"/>
     <use xlink:href="#DejaVuSans-55" transform="translate(1037.515625 0)"/>
     <use xlink:href="#DejaVuSans-57" transform="translate(1078.625 0)"/>
     <use xlink:href="#DejaVuSans-4c" transform="translate(1117.828125 0)"/>
     <use xlink:href="#DejaVuSans-49" transform="translate(1145.609375 0)"/>
     <use xlink:href="#DejaVuSans-44" transform="translate(1180.8125 0)"/>
     <use xlink:href="#DejaVuSans-46" transform="translate(1242.09375 0)"/>
     <use xlink:href="#DejaVuSans-57" transform="translate(1297.078125 0)"/>
    </g>
    <!-- I7: Citation hygiene | bibliography -->
    <g style="fill: #111827" transform="translate(47.975234 438.935068) scale(0.07 -0.07)">
     <defs>
      <path id="DejaVuSans-1a" d="M 525 4666
L 3525 4666
L 3525 4397
L 1831 0
L 1172 0
L 2766 4134
L 525 4134
L 525 4666
z
" transform="scale(0.015625)"/>
     </defs>
     <use xlink:href="#DejaVuSans-2c"/>
     <use xlink:href="#DejaVuSans-1a" transform="translate(29.5 0)"/>
     <use xlink:href="#DejaVuSans-1d" transform="translate(93.125 0)"/>
     <use xlink:href="#DejaVuSans-3" transform="translate(126.8125 0)"/>
     <use xlink:href="#DejaVuSans-26" transform="translate(158.59375 0)"/>
     <use xlink:href="#DejaVuSans-4c" transform="translate(228.421875 0)"/>
     <use xlink:href="#DejaVuSans-57" transform="translate(256.203125 0)"/>
     <use xlink:href="#DejaVuSans-44" transform="translate(295.40625 0)"/>
     <use xlink:href="#DejaVuSans-57" transform="translate(356.6875 0)"/>
     <use xlink:href="#DejaVuSans-4c" transform="translate(395.890625 0)"/>
     <use xlink:href="#DejaVuSans-52" transform="translate(423.671875 0)"/>
     <use xlink:href="#DejaVuSans-51" transform="translate(484.859375 0)"/>
     <use xlink:href="#DejaVuSans-3" transform="translate(548.234375 0)"/>
     <use xlink:href="#DejaVuSans-4b" transform="translate(580.015625 0)"/>
     <use xlink:href="#DejaVuSans-5c" transform="translate(643.390625 0)"/>
     <use xlink:href="#DejaVuSans-4a" transform="translate(702.578125 0)"/>
     <use xlink:href="#DejaVuSans-4c" transform="translate(766.0625 0)"/>
     <use xlink:href="#DejaVuSans-48" transform="translate(793.84375 0)"/>
     <use xlink:href="#DejaVuSans-51" transform="translate(855.375 0)"/>
     <use xlink:href="#DejaVuSans-48" transform="translate(918.75 0)"/>
     <use xlink:href="#DejaVuSans-3" transform="translate(980.28125 0)"/>
     <use xlink:href="#DejaVuSans-5f" transform="translate(1012.0625 0)"/>
     <use xlink:href="#DejaVuSans-3" transform="translate(1045.75 0)"/>
     <use xlink:href="#DejaVuSans-45" transform="translate(1077.53125 0)"/>
     <use xlink:href="#DejaVuSans-4c" transform="translate(1141.015625 0)"/>
     <use xlink:href="#DejaVuSans-45" transform="translate(1168.796875 0)"/>
     <use xlink:href="#DejaVuSans-4f" transform="translate(1232.28125 0)"/>
     <use xlink:href="#DejaVuSans-4c" transform="translate(1260.0625 0)"/>
     <use xlink:href="#DejaVuSans-52" transform="translate(1287.84375 0)"/>
     <use xlink:href="#DejaVuSans-4a" transform="translate(1349.03125 0)"/>
     <use xlink:href="#DejaVuSans-55" transform="translate(1412.515625 0)"/>
     <use xlink:href="#DejaVuSans-44" transform="translate(1453.625 0)"/>
     <use xlink:href="#DejaVuSans-53" transform="translate(1514.90625 0)"/>
     <use xlink:href="#DejaVuSans-4b" transform="translate(1578.390625 0)"/>
     <use xlink:href="#DejaVuSans-5c" transform="translate(1641.765625 0)"/>
    </g>
    <!-- I8: Render readiness | validation -->
    <g style="fill: #111827" transform="translate(47.975234 447.367607) scale(0.07 -0.07)">
     <defs>
      <path id="DejaVuSans-1b" d="M 2034 2216
Q 1584 2216 1326 1975
Q 1069 1734 1069 1313
Q 1069 891 1326 650
Q 1584 409 2034 409
Q 2484 409 2743 651
Q 3003 894 3003 1313
Q 3003 1734 2745 1975
Q 2488 2216 2034 2216
z
M 1403 2484
Q 997 2584 770 2862
Q 544 3141 544 3541
Q 544 4100 942 4425
Q 1341 4750 2034 4750
Q 2731 4750 3128 4425
Q 3525 4100 3525 3541
Q 3525 3141 3298 2862
Q 3072 2584 2669 2484
Q 3125 2378 3379 2068
Q 3634 1759 3634 1313
Q 3634 634 3220 271
Q 2806 -91 2034 -91
Q 1263 -91 848 271
Q 434 634 434 1313
Q 434 1759 690 2068
Q 947 2378 1403 2484
z
M 1172 3481
Q 1172 3119 1398 2916
Q 1625 2713 2034 2713
Q 2441 2713 2670 2916
Q 2900 3119 2900 3481
Q 2900 3844 2670 4047
Q 2441 4250 2034 4250
Q 1625 4250 1398 4047
Q 1172 3844 1172 3481
z
" transform="scale(0.015625)"/>
      <path id="DejaVuSans-35" d="M 2841 2188
Q 3044 2119 3236 1894
Q 3428 1669 3622 1275
L 4263 0
L 3584 0
L 2988 1197
Q 2756 1666 2539 1819
Q 2322 1972 1947 1972
L 1259 1972
L 1259 0
L 628 0
L 628 4666
L 2053 4666
Q 2853 4666 3247 4331
Q 3641 3997 3641 3322
Q 3641 2881 3436 2590
Q 3231 2300 2841 2188
z
M 1259 4147
L 1259 2491
L 2053 2491
Q 2509 2491 2742 2702
Q 2975 2913 2975 3322
Q 2975 3731 2742 3939
Q 2509 4147 2053 4147
L 1259 4147
z
" transform="scale(0.015625)"/>
     </defs>
     <use xlink:href="#DejaVuSans-2c"/>
     <use xlink:href="#DejaVuSans-1b" transform="translate(29.5 0)"/>
     <use xlink:href="#DejaVuSans-1d" transform="translate(93.125 0)"/>
     <use xlink:href="#DejaVuSans-3" transform="translate(126.8125 0)"/>
     <use xlink:href="#DejaVuSans-35" transform="translate(158.59375 0)"/>
     <use xlink:href="#DejaVuSans-48" transform="translate(223.59375 0)"/>
     <use xlink:href="#DejaVuSans-51" transform="translate(285.125 0)"/>
     <use xlink:href="#DejaVuSans-47" transform="translate(348.5 0)"/>
     <use xlink:href="#DejaVuSans-48" transform="translate(411.984375 0)"/>
     <use xlink:href="#DejaVuSans-55" transform="translate(473.515625 0)"/>
     <use xlink:href="#DejaVuSans-3" transform="translate(514.625 0)"/>
     <use xlink:href="#DejaVuSans-55" transform="translate(546.40625 0)"/>
     <use xlink:href="#DejaVuSans-48" transform="translate(585.3125 0)"/>
     <use xlink:href="#DejaVuSans-44" transform="translate(646.84375 0)"/>
     <use xlink:href="#DejaVuSans-47" transform="translate(708.125 0)"/>
     <use xlink:href="#DejaVuSans-4c" transform="translate(771.609375 0)"/>
     <use xlink:href="#DejaVuSans-51" transform="translate(799.390625 0)"/>
     <use xlink:href="#DejaVuSans-48" transform="translate(862.765625 0)"/>
     <use xlink:href="#DejaVuSans-56" transform="translate(924.296875 0)"/>
     <use xlink:href="#DejaVuSans-56" transform="translate(976.390625 0)"/>
     <use xlink:href="#DejaVuSans-3" transform="translate(1028.484375 0)"/>
     <use xlink:href="#DejaVuSans-5f" transform="translate(1060.265625 0)"/>
     <use xlink:href="#DejaVuSans-3" transform="translate(1093.953125 0)"/>
     <use xlink:href="#DejaVuSans-59" transform="translate(1125.734375 0)"/>
     <use xlink:href="#DejaVuSans-44" transform="translate(1184.921875 0)"/>
     <use xlink:href="#DejaVuSans-4f" transform="translate(1246.203125 0)"/>
     <use xlink:href="#DejaVuSans-4c" transform="translate(1273.984375 0)"/>
     <use xlink:href="#DejaVuSans-47" transform="translate(1301.765625 0)"/>
     <use xlink:href="#DejaVuSans-44" transform="translate(1365.25 0)"/>
     <use xlink:href="#DejaVuSans-57" transform="translate(1426.53125 0)"/>
     <use xlink:href="#DejaVuSans-4c" transform="translate(1465.734375 0)"/>
     <use xlink:href="#DejaVuSans-52" transform="translate(1493.515625 0)"/>
     <use xlink:href="#DejaVuSans-51" transform="translate(1554.703125 0)"/>
    </g>
   </g>
   <g id="text_22">
    <!-- Scientific-Integrity Risk Matrix -->
    <g transform="translate(264.705703 17.837812) scale(0.14 -0.14)">
     <defs>
      <path id="DejaVuSans-10" d="M 313 2009
L 1997 2009
L 1997 1497
L 313 1497
L 313 2009
z
" transform="scale(0.015625)"/>
     </defs>
     <use xlink:href="#DejaVuSans-36"/>
     <use xlink:href="#DejaVuSans-46" transform="translate(63.484375 0)"/>
     <use xlink:href="#DejaVuSans-4c" transform="translate(118.46875 0)"/>
     <use xlink:href="#DejaVuSans-48" transform="translate(146.25 0)"/>
     <use xlink:href="#DejaVuSans-51" transform="translate(207.78125 0)"/>
     <use xlink:href="#DejaVuSans-57" transform="translate(271.15625 0)"/>
     <use xlink:href="#DejaVuSans-4c" transform="translate(310.359375 0)"/>
     <use xlink:href="#DejaVuSans-13af" transform="translate(338.140625 0)"/>
     <use xlink:href="#DejaVuSans-46" transform="translate(401.125 0)"/>
     <use xlink:href="#DejaVuSans-10" transform="translate(456.109375 0)"/>
     <use xlink:href="#DejaVuSans-2c" transform="translate(492.1875 0)"/>
     <use xlink:href="#DejaVuSans-51" transform="translate(521.6875 0)"/>
     <use xlink:href="#DejaVuSans-57" transform="translate(585.0625 0)"/>
     <use xlink:href="#DejaVuSans-48" transform="translate(624.265625 0)"/>
     <use xlink:href="#DejaVuSans-4a" transform="translate(685.796875 0)"/>
     <use xlink:href="#DejaVuSans-55" transform="translate(749.28125 0)"/>
     <use xlink:href="#DejaVuSans-4c" transform="translate(790.390625 0)"/>
     <use xlink:href="#DejaVuSans-57" transform="translate(818.171875 0)"/>
     <use xlink:href="#DejaVuSans-5c" transform="translate(857.375 0)"/>
     <use xlink:href="#DejaVuSans-3" transform="translate(916.5625 0)"/>
     <use xlink:href="#DejaVuSans-35" transform="translate(948.34375 0)"/>
     <use xlink:href="#DejaVuSans-4c" transform="translate(1017.828125 0)"/>
     <use xlink:href="#DejaVuSans-56" transform="translate(1045.609375 0)"/>
     <use xlink:href="#DejaVuSans-4e" transform="translate(1097.703125 0)"/>
     <use xlink:href="#DejaVuSans-3" transform="translate(1155.609375 0)"/>
     <use xlink:href="#DejaVuSans-30" transform="translate(1187.390625 0)"/>
     <use xlink:href="#DejaVuSans-44" transform="translate(1273.671875 0)"/>
     <use xlink:href="#DejaVuSans-57" transform="translate(1334.953125 0)"/>
     <use xlink:href="#DejaVuSans-55" transform="translate(1374.15625 0)"/>
     <use xlink:href="#DejaVuSans-4c" transform="translate(1415.265625 0)"/>
     <use xlink:href="#DejaVuSans-5b" transform="translate(1443.046875 0)"/>
    </g>
   </g>
   <g id="legend_1">
    <g id="patch_10">
     <path d="M 615.662656 124.442422
L 700.260938 124.442422
Q 701.660938 124.442422 701.660938 123.042422
L 701.660938 36.737812
Q 701.660938 35.337812 700.260938 35.337812
L 615.662656 35.337812
Q 614.262656 35.337812 614.262656 36.737812
L 614.262656 123.042422
Q 614.262656 124.442422 615.662656 124.442422
z
" style="fill: #ffffff; opacity: 0.8; stroke: #cccccc; stroke-linejoin: miter"/>
    </g>
    <g id="text_23">
     <!-- Source tier -->
     <g transform="translate(630.718047 45.73625) scale(0.1 -0.1)">
      <use xlink:href="#DejaVuSans-36"/>
      <use xlink:href="#DejaVuSans-52" transform="translate(63.484375 0)"/>
      <use xlink:href="#DejaVuSans-58" transform="translate(124.671875 0)"/>
      <use xlink:href="#DejaVuSans-55" transform="translate(188.046875 0)"/>
      <use xlink:href="#DejaVuSans-46" transform="translate(226.953125 0)"/>
      <use xlink:href="#DejaVuSans-48" transform="translate(281.9375 0)"/>
      <use xlink:href="#DejaVuSans-3" transform="translate(343.46875 0)"/>
      <use xlink:href="#DejaVuSans-57" transform="translate(375.25 0)"/>
      <use xlink:href="#DejaVuSans-4c" transform="translate(414.453125 0)"/>
      <use xlink:href="#DejaVuSans-48" transform="translate(442.234375 0)"/>
      <use xlink:href="#DejaVuSans-55" transform="translate(503.765625 0)"/>
     </g>
    </g>
    <g id="PathCollection_12">
     <defs>
      <path id="m0b4f9b5139" d="M 0 5.244044
C 1.390737 5.244044 2.7247 4.691499 3.708099 3.708099
C 4.691499 2.7247 5.244044 1.390737 5.244044 0
C 5.244044 -1.390737 4.691499 -2.7247 3.708099 -3.708099
C 2.7247 -4.691499 1.390737 -5.244044 0 -5.244044
C -1.390737 -5.244044 -2.7247 -4.691499 -3.708099 -3.708099
C -4.691499 -2.7247 -5.244044 -1.390737 -5.244044 0
C -5.244044 1.390737 -4.691499 2.7247 -3.708099 3.708099
C -2.7247 4.691499 -1.390737 5.244044 0 5.244044
z
" style="stroke: #1f2937; stroke-width: 0.8"/>
     </defs>
     <g>
      <use xlink:href="#m0b4f9b5139" x="624.062656" y="55.12" style="fill: #2a9d8f; stroke: #1f2937; stroke-width: 0.8"/>
     </g>
    </g>
    <g id="text_24">
     <!-- artifact -->
     <g transform="translate(636.662656 56.9575) scale(0.07 -0.07)">
      <use xlink:href="#DejaVuSans-44"/>
      <use xlink:href="#DejaVuSans-55" transform="translate(61.28125 0)"/>
      <use xlink:href="#DejaVuSans-57" transform="translate(102.390625 0)"/>
      <use xlink:href="#DejaVuSans-4c" transform="translate(141.59375 0)"/>
      <use xlink:href="#DejaVuSans-49" transform="translate(169.375 0)"/>
      <use xlink:href="#DejaVuSans-44" transform="translate(204.578125 0)"/>
      <use xlink:href="#DejaVuSans-46" transform="translate(265.859375 0)"/>
      <use xlink:href="#DejaVuSans-57" transform="translate(320.84375 0)"/>
     </g>
    </g>
    <g id="PathCollection_13">
     <defs>
      <path id="me8704c0855" d="M 0 5.244044
C 1.390737 5.244044 2.7247 4.691499 3.708099 3.708099
C 4.691499 2.7247 5.244044 1.390737 5.244044 0
C 5.244044 -1.390737 4.691499 -2.7247 3.708099 -3.708099
C 2.7247 -4.691499 1.390737 -5.244044 0 -5.244044
C -1.390737 -5.244044 -2.7247 -4.691499 -3.708099 -3.708099
C -4.691499 -2.7247 -5.244044 -1.390737 -5.244044 0
C -5.244044 1.390737 -4.691499 2.7247 -3.708099 3.708099
C -2.7247 4.691499 -1.390737 5.244044 0 5.244044
z
" style="stroke: #1f2937; stroke-width: 0.8"/>
     </defs>
     <g>
      <use xlink:href="#me8704c0855" x="624.062656" y="65.620547" style="fill: #90be6d; stroke: #1f2937; stroke-width: 0.8"/>
     </g>
    </g>
    <g id="text_25">
     <!-- bibliography -->
     <g transform="translate(636.662656 67.458047) scale(0.07 -0.07)">
      <use xlink:href="#DejaVuSans-45"/>
      <use xlink:href="#DejaVuSans-4c" transform="translate(63.484375 0)"/>
      <use xlink:href="#DejaVuSans-45" transform="translate(91.265625 0)"/>
      <use xlink:href="#DejaVuSans-4f" transform="translate(154.75 0)"/>
      <use xlink:href="#DejaVuSans-4c" transform="translate(182.53125 0)"/>
      <use xlink:href="#DejaVuSans-52" transform="translate(210.3125 0)"/>
      <use xlink:href="#DejaVuSans-4a" transform="translate(271.5 0)"/>
      <use xlink:href="#DejaVuSans-55" transform="translate(334.984375 0)"/>
      <use xlink:href="#DejaVuSans-44" transform="translate(376.09375 0)"/>
      <use xlink:href="#DejaVuSans-53" transform="translate(437.375 0)"/>
      <use xlink:href="#DejaVuSans-4b" transform="translate(500.859375 0)"/>
      <use xlink:href="#DejaVuSans-5c" transform="translate(564.234375 0)"/>
     </g>
    </g>
    <g id="PathCollection_14">
     <defs>
      <path id="m37a070b802" d="M 0 5.244044
C 1.390737 5.244044 2.7247 4.691499 3.708099 3.708099
C 4.691499 2.7247 5.244044 1.390737 5.244044 0
C 5.244044 -1.390737 4.691499 -2.7247 3.708099 -3.708099
C 2.7247 -4.691499 1.390737 -5.244044 0 -5.244044
C -1.390737 -5.244044 -2.7247 -4.691499 -3.708099 -3.708099
C -4.691499 -2.7247 -5.244044 -1.390737 -5.244044 0
C -5.244044 1.390737 -4.691499 2.7247 -3.708099 3.708099
C -2.7247 4.691499 -1.390737 5.244044 0 5.244044
z
" style="stroke: #1f2937; stroke-width: 0.8"/>
     </defs>
     <g>
      <use xlink:href="#m37a070b802" x="624.062656" y="76.121094" style="fill: #f4a261; stroke: #1f2937; stroke-width: 0.8"/>
     </g>
    </g>
    <g id="text_26">
     <!-- claim_ledger -->
     <g transform="translate(636.662656 77.958594) scale(0.07 -0.07)">
      <use xlink:href="#DejaVuSans-46"/>
      <use xlink:href="#DejaVuSans-4f" transform="translate(54.984375 0)"/>
      <use xlink:href="#DejaVuSans-44" transform="translate(82.765625 0)"/>
      <use xlink:href="#DejaVuSans-4c" transform="translate(144.046875 0)"/>
      <use xlink:href="#DejaVuSans-50" transform="translate(171.828125 0)"/>
      <use xlink:href="#DejaVuSans-42" transform="translate(269.234375 0)"/>
      <use xlink:href="#DejaVuSans-4f" transform="translate(319.234375 0)"/>
      <use xlink:href="#DejaVuSans-48" transform="translate(347.015625 0)"/>
      <use xlink:href="#DejaVuSans-47" transform="translate(408.546875 0)"/>
      <use xlink:href="#DejaVuSans-4a" transform="translate(472.03125 0)"/>
      <use xlink:href="#DejaVuSans-48" transform="translate(535.515625 0)"/>
      <use xlink:href="#DejaVuSans-55" transform="translate(597.046875 0)"/>
     </g>
    </g>
    <g id="PathCollection_15">
     <defs>
      <path id="m19abc32185" d="M 0 5.244044
C 1.390737 5.244044 2.7247 4.691499 3.708099 3.708099
C 4.691499 2.7247 5.244044 1.390737 5.244044 0
C 5.244044 -1.390737 4.691499 -2.7247 3.708099 -3.708099
C 2.7247 -4.691499 1.390737 -5.244044 0 -5.244044
C -1.390737 -5.244044 -2.7247 -4.691499 -3.708099 -3.708099
C -4.691499 -2.7247 -5.244044 -1.390737 -5.244044 0
C -5.244044 1.390737 -4.691499 2.7247 -3.708099 3.708099
C -2.7247 4.691499 -1.390737 5.244044 0 5.244044
z
" style="stroke: #1f2937; stroke-width: 0.8"/>
     </defs>
     <g>
      <use xlink:href="#m19abc32185" x="624.062656" y="86.621641" style="fill: #577590; stroke: #1f2937; stroke-width: 0.8"/>
     </g>
    </g>
    <g id="text_27">
     <!-- config -->
     <g transform="translate(636.662656 88.459141) scale(0.07 -0.07)">
      <use xlink:href="#DejaVuSans-46"/>
      <use xlink:href="#DejaVuSans-52" transform="translate(54.984375 0)"/>
      <use xlink:href="#DejaVuSans-51" transform="translate(116.171875 0)"/>
      <use xlink:href="#DejaVuSans-13af" transform="translate(179.546875 0)"/>
      <use xlink:href="#DejaVuSans-4a" transform="translate(242.53125 0)"/>
     </g>
    </g>
    <g id="PathCollection_16">
     <defs>
      <path id="m0b29c0f60b" d="M 0 5.244044
C 1.390737 5.244044 2.7247 4.691499 3.708099 3.708099
C 4.691499 2.7247 5.244044 1.390737 5.244044 0
C 5.244044 -1.390737 4.691499 -2.7247 3.708099 -3.708099
C 2.7247 -4.691499 1.390737 -5.244044 0 -5.244044
C -1.390737 -5.244044 -2.7247 -4.691499 -3.708099 -3.708099
C -4.691499 -2.7247 -5.244044 -1.390737 -5.244044 0
C -5.244044 1.390737 -4.691499 2.7247 -3.708099 3.708099
C -2.7247 4.691499 -1.390737 5.244044 0 5.244044
z
" style="stroke: #1f2937; stroke-width: 0.8"/>
     </defs>
     <g>
      <use xlink:href="#m0b29c0f60b" x="624.062656" y="97.122187" style="fill: #3a0ca3; stroke: #1f2937; stroke-width: 0.8"/>
     </g>
    </g>
    <g id="text_28">
     <!-- generated_metric -->
     <g transform="translate(636.662656 98.959687) scale(0.07 -0.07)">
      <use xlink:href="#DejaVuSans-4a"/>
      <use xlink:href="#DejaVuSans-48" transform="translate(63.484375 0)"/>
      <use xlink:href="#DejaVuSans-51" transform="translate(125.015625 0)"/>
      <use xlink:href="#DejaVuSans-48" transform="translate(188.390625 0)"/>
      <use xlink:href="#DejaVuSans-55" transform="translate(249.921875 0)"/>
      <use xlink:href="#DejaVuSans-44" transform="translate(291.03125 0)"/>
      <use xlink:href="#DejaVuSans-57" transform="translate(352.3125 0)"/>
      <use xlink:href="#DejaVuSans-48" transform="translate(391.515625 0)"/>
      <use xlink:href="#DejaVuSans-47" transform="translate(453.046875 0)"/>
      <use xlink:href="#DejaVuSans-42" transform="translate(516.53125 0)"/>
      <use xlink:href="#DejaVuSans-50" transform="translate(566.53125 0)"/>
      <use xlink:href="#DejaVuSans-48" transform="translate(663.9375 0)"/>
      <use xlink:href="#DejaVuSans-57" transform="translate(725.46875 0)"/>
      <use xlink:href="#DejaVuSans-55" transform="translate(764.671875 0)"/>
      <use xlink:href="#DejaVuSans-4c" transform="translate(805.78125 0)"/>
      <use xlink:href="#DejaVuSans-46" transform="translate(833.5625 0)"/>
     </g>
    </g>
    <g id="PathCollection_17">
     <defs>
      <path id="md7412e1da0" d="M 0 5.244044
C 1.390737 5.244044 2.7247 4.691499 3.708099 3.708099
C 4.691499 2.7247 5.244044 1.390737 5.244044 0
C 5.244044 -1.390737 4.691499 -2.7247 3.708099 -3.708099
C 2.7247 -4.691499 1.390737 -5.244044 0 -5.244044
C -1.390737 -5.244044 -2.7247 -4.691499 -3.708099 -3.708099
C -4.691499 -2.7247 -5.244044 -1.390737 -5.244044 0
C -5.244044 1.390737 -4.691499 2.7247 -3.708099 3.708099
C -2.7247 4.691499 -1.390737 5.244044 0 5.244044
z
" style="stroke: #1f2937; stroke-width: 0.8"/>
     </defs>
     <g>
      <use xlink:href="#md7412e1da0" x="624.062656" y="107.622734" style="fill: #264653; stroke: #1f2937; stroke-width: 0.8"/>
     </g>
    </g>
    <g id="text_29">
     <!-- source_code -->
     <g transform="translate(636.662656 109.460234) scale(0.07 -0.07)">
      <use xlink:href="#DejaVuSans-56"/>
      <use xlink:href="#DejaVuSans-52" transform="translate(52.09375 0)"/>
      <use xlink:href="#DejaVuSans-58" transform="translate(113.28125 0)"/>
      <use xlink:href="#DejaVuSans-55" transform="translate(176.65625 0)"/>
      <use xlink:href="#DejaVuSans-46" transform="translate(215.5625 0)"/>
      <use xlink:href="#DejaVuSans-48" transform="translate(270.546875 0)"/>
      <use xlink:href="#DejaVuSans-42" transform="translate(332.078125 0)"/>
      <use xlink:href="#DejaVuSans-46" transform="translate(382.078125 0)"/>
      <use xlink:href="#DejaVuSans-52" transform="translate(437.0625 0)"/>
      <use xlink:href="#DejaVuSans-47" transform="translate(498.25 0)"/>
      <use xlink:href="#DejaVuSans-48" transform="translate(561.734375 0)"/>
     </g>
    </g>
    <g id="PathCollection_18">
     <defs>
      <path id="mff6f1ca675" d="M 0 5.244044
C 1.390737 5.244044 2.7247 4.691499 3.708099 3.708099
C 4.691499 2.7247 5.244044 1.390737 5.244044 0
C 5.244044 -1.390737 4.691499 -2.7247 3.708099 -3.708099
C 2.7247 -4.691499 1.390737 -5.244044 0 -5.244044
C -1.390737 -5.244044 -2.7247 -4.691499 -3.708099 -3.708099
C -4.691499 -2.7247 -5.244044 -1.390737 -5.244044 0
C -5.244044 1.390737 -4.691499 2.7247 -3.708099 3.708099
C -2.7247 4.691499 -1.390737 5.244044 0 5.244044
z
" style="stroke: #1f2937; stroke-width: 0.8"/>
     </defs>
     <g>
      <use xlink:href="#mff6f1ca675" x="624.062656" y="118.123281" style="fill: #e76f51; stroke: #1f2937; stroke-width: 0.8"/>
     </g>
    </g>
    <g id="text_30">
     <!-- validation -->
     <g transform="translate(636.662656 119.960781) scale(0.07 -0.07)">
      <use xlink:href="#DejaVuSans-59"/>
      <use xlink:href="#DejaVuSans-44" transform="translate(59.1875 0)"/>
      <use xlink:href="#DejaVuSans-4f" transform="translate(120.46875 0)"/>
      <use xlink:href="#DejaVuSans-4c" transform="translate(148.25 0)"/>
      <use xlink:href="#DejaVuSans-47" transform="translate(176.03125 0)"/>
      <use xlink:href="#DejaVuSans-44" transform="translate(239.515625 0)"/>
      <use xlink:href="#DejaVuSans-57" transform="translate(300.796875 0)"/>
      <use xlink:href="#DejaVuSans-4c" transform="translate(340 0)"/>
      <use xlink:href="#DejaVuSans-52" transform="translate(367.78125 0)"/>
      <use xlink:href="#DejaVuSans-51" transform="translate(428.96875 0)"/>
     </g>
    </g>
   </g>
   <g id="legend_2">
    <g id="patch_11">
     <path d="M 634.160938 454.77875
L 700.260938 454.77875
Q 701.660938 454.77875 701.660938 453.37875
L 701.660938 409.076328
Q 701.660938 407.676328 700.260938 407.676328
L 634.160938 407.676328
Q 632.760938 407.676328 632.760938 409.076328
L 632.760938 453.37875
Q 632.760938 454.77875 634.160938 454.77875
z
" style="fill: #ffffff; opacity: 0.8; stroke: #cccccc; stroke-linejoin: miter"/>
    </g>
    <g id="text_31">
     <!-- Residual risk -->
     <g transform="translate(635.560938 418.074766) scale(0.1 -0.1)">
      <use xlink:href="#DejaVuSans-35"/>
      <use xlink:href="#DejaVuSans-48" transform="translate(65 0)"/>
      <use xlink:href="#DejaVuSans-56" transform="translate(126.53125 0)"/>
      <use xlink:href="#DejaVuSans-4c" transform="translate(178.625 0)"/>
      <use xlink:href="#DejaVuSans-47" transform="translate(206.40625 0)"/>
      <use xlink:href="#DejaVuSans-58" transform="translate(269.890625 0)"/>
      <use xlink:href="#DejaVuSans-44" transform="translate(333.265625 0)"/>
      <use xlink:href="#DejaVuSans-4f" transform="translate(394.546875 0)"/>
      <use xlink:href="#DejaVuSans-3" transform="translate(422.328125 0)"/>
      <use xlink:href="#DejaVuSans-55" transform="translate(454.109375 0)"/>
      <use xlink:href="#DejaVuSans-4c" transform="translate(495.21875 0)"/>
      <use xlink:href="#DejaVuSans-56" transform="translate(523 0)"/>
      <use xlink:href="#DejaVuSans-4e" transform="translate(575.09375 0)"/>
     </g>
    </g>
    <g id="PathCollection_19">
     <defs>
      <path id="mbcf4cbb26e" d="M 0 7.5
C 1.989023 7.5 3.896849 6.709753 5.303301 5.303301
C 6.709753 3.896849 7.5 1.989023 7.5 0
C 7.5 -1.989023 6.709753 -3.896849 5.303301 -5.303301
C 3.896849 -6.709753 1.989023 -7.5 0 -7.5
C -1.989023 -7.5 -3.896849 -6.709753 -5.303301 -5.303301
C -6.709753 -3.896849 -7.5 -1.989023 -7.5 0
C -7.5 1.989023 -6.709753 3.896849 -5.303301 5.303301
C -3.896849 6.709753 -1.989023 7.5 0 7.5
z
" style="stroke: #1f2937"/>
     </defs>
     <g>
      <use xlink:href="#mbcf4cbb26e" x="659.957188" y="427.458516" style="fill: #d1d5db; stroke: #1f2937"/>
     </g>
    </g>
    <g id="text_32">
     <!-- 3 -->
     <g transform="translate(672.557188 429.296016) scale(0.07 -0.07)">
      <use xlink:href="#DejaVuSans-16"/>
     </g>
    </g>
    <g id="PathCollection_20">
     <defs>
      <path id="ma6af322be7" d="M 0 9.082951
C 2.408827 9.082951 4.719319 8.125914 6.422616 6.422616
C 8.125914 4.719319 9.082951 2.408827 9.082951 0
C 9.082951 -2.408827 8.125914 -4.719319 6.422616 -6.422616
C 4.719319 -8.125914 2.408827 -9.082951 0 -9.082951
C -2.408827 -9.082951 -4.719319 -8.125914 -6.422616 -6.422616
C -8.125914 -4.719319 -9.082951 -2.408827 -9.082951 0
C -9.082951 2.408827 -8.125914 4.719319 -6.422616 6.422616
C -4.719319 8.125914 -2.408827 9.082951 0 9.082951
z
" style="stroke: #1f2937"/>
     </defs>
     <g>
      <use xlink:href="#ma6af322be7" x="659.957188" y="437.959062" style="fill: #d1d5db; stroke: #1f2937"/>
     </g>
    </g>
    <g id="text_33">
     <!-- 6 -->
     <g transform="translate(672.557188 439.796562) scale(0.07 -0.07)">
      <use xlink:href="#DejaVuSans-19"/>
     </g>
    </g>
    <g id="PathCollection_21">
     <defs>
      <path id="mb613834c02" d="M 0 12.698425
C 3.367662 12.698425 6.597846 11.360439 8.979142 8.979142
C 11.360439 6.597846 12.698425 3.367662 12.698425 0
C 12.698425 -3.367662 11.360439 -6.597846 8.979142 -8.979142
C 6.597846 -11.360439 3.367662 -12.698425 0 -12.698425
C -3.367662 -12.698425 -6.597846 -11.360439 -8.979142 -8.979142
C -11.360439 -6.597846 -12.698425 -3.367662 -12.698425 0
C -12.698425 3.367662 -11.360439 6.597846 -8.979142 8.979142
C -6.597846 11.360439 -3.367662 12.698425 0 12.698425
z
" style="stroke: #1f2937"/>
     </defs>
     <g>
      <use xlink:href="#mb613834c02" x="659.957188" y="448.459609" style="fill: #d1d5db; stroke: #1f2937"/>
     </g>
    </g>
    <g id="text_34">
     <!-- 15 -->
     <g transform="translate(672.557188 450.297109) scale(0.07 -0.07)">
      <use xlink:href="#DejaVuSans-14"/>
      <use xlink:href="#DejaVuSans-18" transform="translate(63.625 0)"/>
     </g>
    </g>
   </g>
  </g>
 </g>
 <defs>
  <clipPath id="pdf6e6a5c81">
   <rect x="34.563281" y="31.837812" width="670.597656" height="426.440938"/>
  </clipPath>
 </defs>
</svg>
