<?xml version="1.0" encoding="utf-8" standalone="no"?>
<!DOCTYPE svg PUBLIC "-//W3C//DTD SVG 1.1//EN"
  "http://www.w3.org/Graphics/SVG/1.1/DTD/svg11.dtd">
<svg xmlns:xlink="http://www.w3.org/1999/xlink" width="928.05653pt" height="398.450956pt" viewBox="0 0 928.05653 398.450956" xmlns="http://www.w3.org/2000/svg" version="1.1">
 <metadata>
  <rdf:RDF xmlns:dc="http://purl.org/dc/elements/1.1/" xmlns:cc="http://creativecommons.org/ns#" xmlns:rdf="http://www.w3.org/1999/02/22-rdf-syntax-ns#">
   <cc:Work>
    <dc:type rdf:resource="http://purl.org/dc/dcmitype/StillImage"/>
    <dc:date>2026-06-26T11:02:13.228452</dc:date>
    <dc:format>image/svg+xml</dc:format>
    <dc:creator>
     <cc:Agent>
      <dc:title>Matplotlib v3.11.0, https://matplotlib.org/</dc:title>
     </cc:Agent>
    </dc:creator>
   </cc:Work>
  </rdf:RDF>
 </metadata>
 <defs>
  <style type="text/css">*{stroke-linejoin: round; stroke-linecap: butt}</style>
 </defs>
 <g id="figure_1">
  <g id="patch_1">
   <path d="M 0 398.450956
L 928.05653 398.450956
L 928.05653 -0
L 0 -0
z
" style="fill: #ffffff"/>
  </g>
  <g id="axes_1">
   <g id="patch_2">
    <path d="M 34.563281 314.114244
L 399.313562 314.114244
L 399.313562 65.936
L 34.563281 65.936
z
" style="fill: #ffffff"/>
   </g>
   <g id="matplotlib.axis_1">
    <g id="xtick_1">
     <g id="line2d_1">
      <defs>
       <path id="mf950d66213" d="M 0 0
L 0 3.5
" style="stroke: #000000; stroke-width: 0.8"/>
      </defs>
      <g>
       <use xlink:href="#mf950d66213" x="70.648202" y="314.114244" style="stroke: #000000; stroke-width: 0.8"/>
      </g>
     </g>
     <g id="text_1">
      <!-- methodology -->
      <g transform="translate(43.411012 360.645465) rotate(-30) scale(0.1 -0.1)">
       <defs>
        <path id="DejaVuSans-50" d="M 3328 2828
Q 3544 3216 3844 3400
Q 4144 3584 4550 3584
Q 5097 3584 5394 3201
Q 5691 2819 5691 2113
L 5691 0
L 5113 0
L 5113 2094
Q 5113 2597 4934 2840
Q 4756 3084 4391 3084
Q 3944 3084 3684 2787
Q 3425 2491 3425 1978
L 3425 0
L 2847 0
L 2847 2094
Q 2847 2600 2669 2842
Q 2491 3084 2119 3084
Q 1678 3084 1418 2786
Q 1159 2488 1159 1978
L 1159 0
L 581 0
L 581 3500
L 1159 3500
L 1159 2956
Q 1356 3278 1631 3431
Q 1906 3584 2284 3584
Q 2666 3584 2933 3390
Q 3200 3197 3328 2828
z
" transform="scale(0.015625)"/>
        <path id="DejaVuSans-48" d="M 3597 1894
L 3597 1613
L 953 1613
Q 991 1019 1311 708
Q 1631 397 2203 397
Q 2534 397 2845 478
Q 3156 559 3463 722
L 3463 178
Q 3153 47 2828 -22
Q 2503 -91 2169 -91
Q 1331 -91 842 396
Q 353 884 353 1716
Q 353 2575 817 3079
Q 1281 3584 2069 3584
Q 2775 3584 3186 3129
Q 3597 2675 3597 1894
z
M 3022 2063
Q 3016 2534 2758 2815
Q 2500 3097 2075 3097
Q 1594 3097 1305 2825
Q 1016 2553 972 2059
L 3022 2063
z
" transform="scale(0.015625)"/>
        <path id="DejaVuSans-57" d="M 1172 4494
L 1172 3500
L 2356 3500
L 2356 3053
L 1172 3053
L 1172 1153
Q 1172 725 1289 603
Q 1406 481 1766 481
L 2356 481
L 2356 0
L 1766 0
Q 1100 0 847 248
Q 594 497 594 1153
L 594 3053
L 172 3053
L 172 3500
L 594 3500
L 594 4494
L 1172 4494
z
" transform="scale(0.015625)"/>
        <path id="DejaVuSans-4b" d="M 3513 2113
L 3513 0
L 2938 0
L 2938 2094
Q 2938 2591 2744 2837
Q 2550 3084 2163 3084
Q 1697 3084 1428 2787
Q 1159 2491 1159 1978
L 1159 0
L 581 0
L 581 4863
L 1159 4863
L 1159 2956
Q 1366 3272 1645 3428
Q 1925 3584 2291 3584
Q 2894 3584 3203 3211
Q 3513 2838 3513 2113
z
" transform="scale(0.015625)"/>
        <path id="DejaVuSans-52" d="M 1959 3097
Q 1497 3097 1228 2736
Q 959 2375 959 1747
Q 959 1119 1226 758
Q 1494 397 1959 397
Q 2419 397 2687 759
Q 2956 1122 2956 1747
Q 2956 2369 2687 2733
Q 2419 3097 1959 3097
z
M 1959 3584
Q 2709 3584 3137 3096
Q 3566 2609 3566 1747
Q 3566 888 3137 398
Q 2709 -91 1959 -91
Q 1206 -91 779 398
Q 353 888 353 1747
Q 353 2609 779 3096
Q 1206 3584 1959 3584
z
" transform="scale(0.015625)"/>
        <path id="DejaVuSans-47" d="M 2906 2969
L 2906 4863
L 3481 4863
L 3481 0
L 2906 0
L 2906 525
Q 2725 213 2448 61
Q 2172 -91 1784 -91
Q 1150 -91 751 415
Q 353 922 353 1747
Q 353 2572 751 3078
Q 1150 3584 1784 3584
Q 2172 3584 2448 3432
Q 2725 3281 2906 2969
z
M 947 1747
Q 947 1113 1208 752
Q 1469 391 1925 391
Q 2381 391 2643 752
Q 2906 1113 2906 1747
Q 2906 2381 2643 2742
Q 2381 3103 1925 3103
Q 1469 3103 1208 2742
Q 947 2381 947 1747
z
" transform="scale(0.015625)"/>
        <path id="DejaVuSans-4f" d="M 603 4863
L 1178 4863
L 1178 0
L 603 0
L 603 4863
z
" transform="scale(0.015625)"/>
        <path id="DejaVuSans-4a" d="M 2906 1791
Q 2906 2416 2648 2759
Q 2391 3103 1925 3103
Q 1463 3103 1205 2759
Q 947 2416 947 1791
Q 947 1169 1205 825
Q 1463 481 1925 481
Q 2391 481 2648 825
Q 2906 1169 2906 1791
z
M 3481 434
Q 3481 -459 3084 -895
Q 2688 -1331 1869 -1331
Q 1566 -1331 1297 -1286
Q 1028 -1241 775 -1147
L 775 -588
Q 1028 -725 1275 -790
Q 1522 -856 1778 -856
Q 2344 -856 2625 -561
Q 2906 -266 2906 331
L 2906 616
Q 2728 306 2450 153
Q 2172 0 1784 0
Q 1141 0 747 490
Q 353 981 353 1791
Q 353 2603 747 3093
Q 1141 3584 1784 3584
Q 2172 3584 2450 3431
Q 2728 3278 2906 2969
L 2906 3500
L 3481 3500
L 3481 434
z
" transform="scale(0.015625)"/>
        <path id="DejaVuSans-5c" d="M 2059 -325
Q 1816 -950 1584 -1140
Q 1353 -1331 966 -1331
L 506 -1331
L 506 -850
L 844 -850
Q 1081 -850 1212 -737
Q 1344 -625 1503 -206
L 1606 56
L 191 3500
L 800 3500
L 1894 763
L 2988 3500
L 3597 3500
L 2059 -325
z
" transform="scale(0.015625)"/>
       </defs>
       <use xlink:href="#DejaVuSans-50"/>
       <use xlink:href="#DejaVuSans-48" transform="translate(97.40625 0)"/>
       <use xlink:href="#DejaVuSans-57" transform="translate(158.9375 0)"/>
       <use xlink:href="#DejaVuSans-4b" transform="translate(198.140625 0)"/>
       <use xlink:href="#DejaVuSans-52" transform="translate(261.515625 0)"/>
       <use xlink:href="#DejaVuSans-47" transform="translate(322.703125 0)"/>
       <use xlink:href="#DejaVuSans-52" transform="translate(386.1875 0)"/>
       <use xlink:href="#DejaVuSans-4f" transform="translate(447.375 0)"/>
       <use xlink:href="#DejaVuSans-52" transform="translate(475.15625 0)"/>
       <use xlink:href="#DejaVuSans-4a" transform="translate(536.34375 0)"/>
       <use xlink:href="#DejaVuSans-5c" transform="translate(599.828125 0)"/>
      </g>
     </g>
    </g>
    <g id="xtick_2">
     <g id="line2d_2">
      <g>
       <use xlink:href="#mf950d66213" x="119.411609" y="314.114244" style="stroke: #000000; stroke-width: 0.8"/>
      </g>
     </g>
     <g id="text_2">
      <!-- results -->
      <g transform="translate(106.205383 344.443903) rotate(-30) scale(0.1 -0.1)">
       <defs>
        <path id="DejaVuSans-55" d="M 2631 2963
Q 2534 3019 2420 3045
Q 2306 3072 2169 3072
Q 1681 3072 1420 2755
Q 1159 2438 1159 1844
L 1159 0
L 581 0
L 581 3500
L 1159 3500
L 1159 2956
Q 1341 3275 1631 3429
Q 1922 3584 2338 3584
Q 2397 3584 2469 3576
Q 2541 3569 2628 3553
L 2631 2963
z
" transform="scale(0.015625)"/>
        <path id="DejaVuSans-56" d="M 2834 3397
L 2834 2853
Q 2591 2978 2328 3040
Q 2066 3103 1784 3103
Q 1356 3103 1142 2972
Q 928 2841 928 2578
Q 928 2378 1081 2264
Q 1234 2150 1697 2047
L 1894 2003
Q 2506 1872 2764 1633
Q 3022 1394 3022 966
Q 3022 478 2636 193
Q 2250 -91 1575 -91
Q 1294 -91 989 -36
Q 684 19 347 128
L 347 722
Q 666 556 975 473
Q 1284 391 1588 391
Q 1994 391 2212 530
Q 2431 669 2431 922
Q 2431 1156 2273 1281
Q 2116 1406 1581 1522
L 1381 1569
Q 847 1681 609 1914
Q 372 2147 372 2553
Q 372 3047 722 3315
Q 1072 3584 1716 3584
Q 2034 3584 2315 3537
Q 2597 3491 2834 3397
z
" transform="scale(0.015625)"/>
        <path id="DejaVuSans-58" d="M 544 1381
L 544 3500
L 1119 3500
L 1119 1403
Q 1119 906 1312 657
Q 1506 409 1894 409
Q 2359 409 2629 706
Q 2900 1003 2900 1516
L 2900 3500
L 3475 3500
L 3475 0
L 2900 0
L 2900 538
Q 2691 219 2414 64
Q 2138 -91 1772 -91
Q 1169 -91 856 284
Q 544 659 544 1381
z
M 1991 3584
L 1991 3584
z
" transform="scale(0.015625)"/>
       </defs>
       <use xlink:href="#DejaVuSans-55"/>
       <use xlink:href="#DejaVuSans-48" transform="translate(38.90625 0)"/>
       <use xlink:href="#DejaVuSans-56" transform="translate(100.4375 0)"/>
       <use xlink:href="#DejaVuSans-58" transform="translate(152.53125 0)"/>
       <use xlink:href="#DejaVuSans-4f" transform="translate(215.90625 0)"/>
       <use xlink:href="#DejaVuSans-57" transform="translate(243.6875 0)"/>
       <use xlink:href="#DejaVuSans-56" transform="translate(282.890625 0)"/>
      </g>
     </g>
    </g>
    <g id="xtick_3">
     <g id="line2d_3">
      <g>
       <use xlink:href="#mf950d66213" x="168.175015" y="314.114244" style="stroke: #000000; stroke-width: 0.8"/>
      </g>
     </g>
     <g id="text_3">
      <!-- discussion -->
      <g transform="translate(147.033155 353.607184) rotate(-30) scale(0.1 -0.1)">
       <defs>
        <path id="DejaVuSans-4c" d="M 603 3500
L 1178 3500
L 1178 0
L 603 0
L 603 3500
z
M 603 4863
L 1178 4863
L 1178 4134
L 603 4134
L 603 4863
z
" transform="scale(0.015625)"/>
        <path id="DejaVuSans-46" d="M 3122 3366
L 3122 2828
Q 2878 2963 2633 3030
Q 2388 3097 2138 3097
Q 1578 3097 1268 2742
Q 959 2388 959 1747
Q 959 1106 1268 751
Q 1578 397 2138 397
Q 2388 397 2633 464
Q 2878 531 3122 666
L 3122 134
Q 2881 22 2623 -34
Q 2366 -91 2075 -91
Q 1284 -91 818 406
Q 353 903 353 1747
Q 353 2603 823 3093
Q 1294 3584 2113 3584
Q 2378 3584 2631 3529
Q 2884 3475 3122 3366
z
" transform="scale(0.015625)"/>
        <path id="DejaVuSans-51" d="M 3513 2113
L 3513 0
L 2938 0
L 2938 2094
Q 2938 2591 2744 2837
Q 2550 3084 2163 3084
Q 1697 3084 1428 2787
Q 1159 2491 1159 1978
L 1159 0
L 581 0
L 581 3500
L 1159 3500
L 1159 2956
Q 1366 3272 1645 3428
Q 1925 3584 2291 3584
Q 2894 3584 3203 3211
Q 3513 2838 3513 2113
z
" transform="scale(0.015625)"/>
       </defs>
       <use xlink:href="#DejaVuSans-47"/>
       <use xlink:href="#DejaVuSans-4c" transform="translate(63.484375 0)"/>
       <use xlink:href="#DejaVuSans-56" transform="translate(91.265625 0)"/>
       <use xlink:href="#DejaVuSans-46" transform="translate(143.359375 0)"/>
       <use xlink:href="#DejaVuSans-58" transform="translate(198.34375 0)"/>
       <use xlink:href="#DejaVuSans-56" transform="translate(261.71875 0)"/>
       <use xlink:href="#DejaVuSans-56" transform="translate(313.8125 0)"/>
       <use xlink:href="#DejaVuSans-4c" transform="translate(365.90625 0)"/>
       <use xlink:href="#DejaVuSans-52" transform="translate(393.6875 0)"/>
       <use xlink:href="#DejaVuSans-51" transform="translate(454.875 0)"/>
      </g>
     </g>
    </g>
    <g id="xtick_4">
     <g id="line2d_4">
      <g>
       <use xlink:href="#mf950d66213" x="216.938422" y="314.114244" style="stroke: #000000; stroke-width: 0.8"/>
      </g>
     </g>
     <g id="text_4">
      <!-- authoring_contract -->
      <g transform="translate(177.122889 375.169684) rotate(-30) scale(0.1 -0.1)">
       <defs>
        <path id="DejaVuSans-44" d="M 2194 1759
Q 1497 1759 1228 1600
Q 959 1441 959 1056
Q 959 750 1161 570
Q 1363 391 1709 391
Q 2188 391 2477 730
Q 2766 1069 2766 1631
L 2766 1759
L 2194 1759
z
M 3341 1997
L 3341 0
L 2766 0
L 2766 531
Q 2569 213 2275 61
Q 1981 -91 1556 -91
Q 1019 -91 701 211
Q 384 513 384 1019
Q 384 1609 779 1909
Q 1175 2209 1959 2209
L 2766 2209
L 2766 2266
Q 2766 2663 2505 2880
Q 2244 3097 1772 3097
Q 1472 3097 1187 3025
Q 903 2953 641 2809
L 641 3341
Q 956 3463 1253 3523
Q 1550 3584 1831 3584
Q 2591 3584 2966 3190
Q 3341 2797 3341 1997
z
" transform="scale(0.015625)"/>
        <path id="DejaVuSans-42" d="M 3263 -1063
L 3263 -1509
L -63 -1509
L -63 -1063
L 3263 -1063
z
" transform="scale(0.015625)"/>
       </defs>
       <use xlink:href="#DejaVuSans-44"/>
       <use xlink:href="#DejaVuSans-58" transform="translate(61.28125 0)"/>
       <use xlink:href="#DejaVuSans-57" transform="translate(124.65625 0)"/>
       <use xlink:href="#DejaVuSans-4b" transform="translate(163.859375 0)"/>
       <use xlink:href="#DejaVuSans-52" transform="translate(227.234375 0)"/>
       <use xlink:href="#DejaVuSans-55" transform="translate(288.421875 0)"/>
       <use xlink:href="#DejaVuSans-4c" transform="translate(329.53125 0)"/>
       <use xlink:href="#DejaVuSans-51" transform="translate(357.3125 0)"/>
       <use xlink:href="#DejaVuSans-4a" transform="translate(420.6875 0)"/>
       <use xlink:href="#DejaVuSans-42" transform="translate(484.171875 0)"/>
       <use xlink:href="#DejaVuSans-46" transform="translate(534.171875 0)"/>
       <use xlink:href="#DejaVuSans-52" transform="translate(589.15625 0)"/>
       <use xlink:href="#DejaVuSans-51" transform="translate(650.34375 0)"/>
       <use xlink:href="#DejaVuSans-57" transform="translate(713.71875 0)"/>
       <use xlink:href="#DejaVuSans-55" transform="translate(752.921875 0)"/>
       <use xlink:href="#DejaVuSans-44" transform="translate(794.03125 0)"/>
       <use xlink:href="#DejaVuSans-46" transform="translate(855.3125 0)"/>
       <use xlink:href="#DejaVuSans-57" transform="translate(910.296875 0)"/>
      </g>
     </g>
    </g>
    <g id="xtick_5">
     <g id="line2d_5">
      <g>
       <use xlink:href="#mf950d66213" x="265.701828" y="314.114244" style="stroke: #000000; stroke-width: 0.8"/>
      </g>
     </g>
     <g id="text_5">
      <!-- evaluation -->
      <g transform="translate(244.22506 353.993903) rotate(-30) scale(0.1 -0.1)">
       <defs>
        <path id="DejaVuSans-59" d="M 191 3500
L 800 3500
L 1894 563
L 2988 3500
L 3597 3500
L 2284 0
L 1503 0
L 191 3500
z
" transform="scale(0.015625)"/>
       </defs>
       <use xlink:href="#DejaVuSans-48"/>
       <use xlink:href="#DejaVuSans-59" transform="translate(61.53125 0)"/>
       <use xlink:href="#DejaVuSans-44" transform="translate(120.71875 0)"/>
       <use xlink:href="#DejaVuSans-4f" transform="translate(182 0)"/>
       <use xlink:href="#DejaVuSans-58" transform="translate(209.78125 0)"/>
       <use xlink:href="#DejaVuSans-44" transform="translate(273.15625 0)"/>
       <use xlink:href="#DejaVuSans-57" transform="translate(334.4375 0)"/>
       <use xlink:href="#DejaVuSans-4c" transform="translate(373.640625 0)"/>
       <use xlink:href="#DejaVuSans-52" transform="translate(401.421875 0)"/>
       <use xlink:href="#DejaVuSans-51" transform="translate(462.609375 0)"/>
      </g>
     </g>
    </g>
    <g id="xtick_6">
     <g id="line2d_6">
      <g>
       <use xlink:href="#mf950d66213" x="314.465234" y="314.114244" style="stroke: #000000; stroke-width: 0.8"/>
      </g>
     </g>
     <g id="text_6">
      <!-- introduction -->
      <g transform="translate(289.617057 357.886872) rotate(-30) scale(0.1 -0.1)">
       <use xlink:href="#DejaVuSans-4c"/>
       <use xlink:href="#DejaVuSans-51" transform="translate(27.78125 0)"/>
       <use xlink:href="#DejaVuSans-57" transform="translate(91.15625 0)"/>
       <use xlink:href="#DejaVuSans-55" transform="translate(130.359375 0)"/>
       <use xlink:href="#DejaVuSans-52" transform="translate(169.265625 0)"/>
       <use xlink:href="#DejaVuSans-47" transform="translate(230.453125 0)"/>
       <use xlink:href="#DejaVuSans-58" transform="translate(293.9375 0)"/>
       <use xlink:href="#DejaVuSans-46" transform="translate(357.3125 0)"/>
       <use xlink:href="#DejaVuSans-57" transform="translate(412.296875 0)"/>
       <use xlink:href="#DejaVuSans-4c" transform="translate(451.5 0)"/>
       <use xlink:href="#DejaVuSans-52" transform="translate(479.28125 0)"/>
       <use xlink:href="#DejaVuSans-51" transform="translate(540.46875 0)"/>
      </g>
     </g>
    </g>
    <g id="xtick_7">
     <g id="line2d_7">
      <g>
       <use xlink:href="#mf950d66213" x="363.228641" y="314.114244" style="stroke: #000000; stroke-width: 0.8"/>
      </g>
     </g>
     <g id="text_7">
      <!-- reproducibility -->
      <g transform="translate(333.40014 363.637653) rotate(-30) scale(0.1 -0.1)">
       <defs>
        <path id="DejaVuSans-53" d="M 1159 525
L 1159 -1331
L 581 -1331
L 581 3500
L 1159 3500
L 1159 2969
Q 1341 3281 1617 3432
Q 1894 3584 2278 3584
Q 2916 3584 3314 3078
Q 3713 2572 3713 1747
Q 3713 922 3314 415
Q 2916 -91 2278 -91
Q 1894 -91 1617 61
Q 1341 213 1159 525
z
M 3116 1747
Q 3116 2381 2855 2742
Q 2594 3103 2138 3103
Q 1681 3103 1420 2742
Q 1159 2381 1159 1747
Q 1159 1113 1420 752
Q 1681 391 2138 391
Q 2594 391 2855 752
Q 3116 1113 3116 1747
z
" transform="scale(0.015625)"/>
        <path id="DejaVuSans-45" d="M 3116 1747
Q 3116 2381 2855 2742
Q 2594 3103 2138 3103
Q 1681 3103 1420 2742
Q 1159 2381 1159 1747
Q 1159 1113 1420 752
Q 1681 391 2138 391
Q 2594 391 2855 752
Q 3116 1113 3116 1747
z
M 1159 2969
Q 1341 3281 1617 3432
Q 1894 3584 2278 3584
Q 2916 3584 3314 3078
Q 3713 2572 3713 1747
Q 3713 922 3314 415
Q 2916 -91 2278 -91
Q 1894 -91 1617 61
Q 1341 213 1159 525
L 1159 0
L 581 0
L 581 4863
L 1159 4863
L 1159 2969
z
" transform="scale(0.015625)"/>
       </defs>
       <use xlink:href="#DejaVuSans-55"/>
       <use xlink:href="#DejaVuSans-48" transform="translate(38.90625 0)"/>
       <use xlink:href="#DejaVuSans-53" transform="translate(100.4375 0)"/>
       <use xlink:href="#DejaVuSans-55" transform="translate(163.921875 0)"/>
       <use xlink:href="#DejaVuSans-52" transform="translate(202.828125 0)"/>
       <use xlink:href="#DejaVuSans-47" transform="translate(264.015625 0)"/>
       <use xlink:href="#DejaVuSans-58" transform="translate(327.5 0)"/>
       <use xlink:href="#DejaVuSans-46" transform="translate(390.875 0)"/>
       <use xlink:href="#DejaVuSans-4c" transform="translate(445.859375 0)"/>
       <use xlink:href="#DejaVuSans-45" transform="translate(473.640625 0)"/>
       <use xlink:href="#DejaVuSans-4c" transform="translate(537.125 0)"/>
       <use xlink:href="#DejaVuSans-4f" transform="translate(564.90625 0)"/>
       <use xlink:href="#DejaVuSans-4c" transform="translate(592.6875 0)"/>
       <use xlink:href="#DejaVuSans-57" transform="translate(620.46875 0)"/>
       <use xlink:href="#DejaVuSans-5c" transform="translate(659.671875 0)"/>
      </g>
     </g>
    </g>
    <g id="text_8">
     <!-- Section -->
     <g transform="translate(198.361078 388.848612) scale(0.1 -0.1)">
      <defs>
       <path id="DejaVuSans-36" d="M 3425 4513
L 3425 3897
Q 3066 4069 2747 4153
Q 2428 4238 2131 4238
Q 1616 4238 1336 4038
Q 1056 3838 1056 3469
Q 1056 3159 1242 3001
Q 1428 2844 1947 2747
L 2328 2669
Q 3034 2534 3370 2195
Q 3706 1856 3706 1288
Q 3706 609 3251 259
Q 2797 -91 1919 -91
Q 1588 -91 1214 -16
Q 841 59 441 206
L 441 856
Q 825 641 1194 531
Q 1563 422 1919 422
Q 2459 422 2753 634
Q 3047 847 3047 1241
Q 3047 1584 2836 1778
Q 2625 1972 2144 2069
L 1759 2144
Q 1053 2284 737 2584
Q 422 2884 422 3419
Q 422 4038 858 4394
Q 1294 4750 2059 4750
Q 2388 4750 2728 4690
Q 3069 4631 3425 4513
z
" transform="scale(0.015625)"/>
      </defs>
      <use xlink:href="#DejaVuSans-36"/>
      <use xlink:href="#DejaVuSans-48" transform="translate(63.484375 0)"/>
      <use xlink:href="#DejaVuSans-46" transform="translate(125.015625 0)"/>
      <use xlink:href="#DejaVuSans-57" transform="translate(180 0)"/>
      <use xlink:href="#DejaVuSans-4c" transform="translate(219.203125 0)"/>
      <use xlink:href="#DejaVuSans-52" transform="translate(246.984375 0)"/>
      <use xlink:href="#DejaVuSans-51" transform="translate(308.171875 0)"/>
     </g>
    </g>
   </g>
   <g id="matplotlib.axis_2">
    <g id="ytick_1">
     <g id="line2d_8">
      <path d="M 34.563281 314.114244
L 399.313562 314.114244
" clip-path="url(#pad3696c47e)" style="fill: none; stroke: #b0b0b0; stroke-opacity: 0.22; stroke-width: 0.8; stroke-linecap: square"/>
     </g>
     <g id="line2d_9">
      <defs>
       <path id="mf77b5526b8" d="M 0 0
L -3.5 0
" style="stroke: #000000; stroke-width: 0.8"/>
      </defs>
      <g>
       <use xlink:href="#mf77b5526b8" x="34.563281" y="314.114244" style="stroke: #000000; stroke-width: 0.8"/>
      </g>
     </g>
     <g id="text_9">
      <!-- 0 -->
      <g transform="translate(21.200781 317.913072) scale(0.1 -0.1)">
       <defs>
        <path id="DejaVuSans-13" d="M 2034 4250
Q 1547 4250 1301 3770
Q 1056 3291 1056 2328
Q 1056 1369 1301 889
Q 1547 409 2034 409
Q 2525 409 2770 889
Q 3016 1369 3016 2328
Q 3016 3291 2770 3770
Q 2525 4250 2034 4250
z
M 2034 4750
Q 2819 4750 3233 4129
Q 3647 3509 3647 2328
Q 3647 1150 3233 529
Q 2819 -91 2034 -91
Q 1250 -91 836 529
Q 422 1150 422 2328
Q 422 3509 836 4129
Q 1250 4750 2034 4750
z
" transform="scale(0.015625)"/>
       </defs>
       <use xlink:href="#DejaVuSans-13"/>
      </g>
     </g>
    </g>
    <g id="ytick_2">
     <g id="line2d_10">
      <path d="M 34.563281 284.569215
L 399.313562 284.569215
" clip-path="url(#pad3696c47e)" style="fill: none; stroke: #b0b0b0; stroke-opacity: 0.22; stroke-width: 0.8; stroke-linecap: square"/>
     </g>
     <g id="line2d_11">
      <g>
       <use xlink:href="#mf77b5526b8" x="34.563281" y="284.569215" style="stroke: #000000; stroke-width: 0.8"/>
      </g>
     </g>
     <g id="text_10">
      <!-- 1 -->
      <g transform="translate(21.200781 288.368043) scale(0.1 -0.1)">
       <defs>
        <path id="DejaVuSans-14" d="M 794 531
L 1825 531
L 1825 4091
L 703 3866
L 703 4441
L 1819 4666
L 2450 4666
L 2450 531
L 3481 531
L 3481 0
L 794 0
L 794 531
z
" transform="scale(0.015625)"/>
       </defs>
       <use xlink:href="#DejaVuSans-14"/>
      </g>
     </g>
    </g>
    <g id="ytick_3">
     <g id="line2d_12">
      <path d="M 34.563281 255.024186
L 399.313562 255.024186
" clip-path="url(#pad3696c47e)" style="fill: none; stroke: #b0b0b0; stroke-opacity: 0.22; stroke-width: 0.8; stroke-linecap: square"/>
     </g>
     <g id="line2d_13">
      <g>
       <use xlink:href="#mf77b5526b8" x="34.563281" y="255.024186" style="stroke: #000000; stroke-width: 0.8"/>
      </g>
     </g>
     <g id="text_11">
      <!-- 2 -->
      <g transform="translate(21.200781 258.823014) scale(0.1 -0.1)">
       <defs>
        <path id="DejaVuSans-15" d="M 1228 531
L 3431 531
L 3431 0
L 469 0
L 469 531
Q 828 903 1448 1529
Q 2069 2156 2228 2338
Q 2531 2678 2651 2914
Q 2772 3150 2772 3378
Q 2772 3750 2511 3984
Q 2250 4219 1831 4219
Q 1534 4219 1204 4116
Q 875 4013 500 3803
L 500 4441
Q 881 4594 1212 4672
Q 1544 4750 1819 4750
Q 2544 4750 2975 4387
Q 3406 4025 3406 3419
Q 3406 3131 3298 2873
Q 3191 2616 2906 2266
Q 2828 2175 2409 1742
Q 1991 1309 1228 531
z
" transform="scale(0.015625)"/>
       </defs>
       <use xlink:href="#DejaVuSans-15"/>
      </g>
     </g>
    </g>
    <g id="ytick_4">
     <g id="line2d_14">
      <path d="M 34.563281 225.479157
L 399.313562 225.479157
" clip-path="url(#pad3696c47e)" style="fill: none; stroke: #b0b0b0; stroke-opacity: 0.22; stroke-width: 0.8; stroke-linecap: square"/>
     </g>
     <g id="line2d_15">
      <g>
       <use xlink:href="#mf77b5526b8" x="34.563281" y="225.479157" style="stroke: #000000; stroke-width: 0.8"/>
      </g>
     </g>
     <g id="text_12">
      <!-- 3 -->
      <g transform="translate(21.200781 229.277985) scale(0.1 -0.1)">
       <defs>
        <path id="DejaVuSans-16" d="M 2597 2516
Q 3050 2419 3304 2112
Q 3559 1806 3559 1356
Q 3559 666 3084 287
Q 2609 -91 1734 -91
Q 1441 -91 1130 -33
Q 819 25 488 141
L 488 750
Q 750 597 1062 519
Q 1375 441 1716 441
Q 2309 441 2620 675
Q 2931 909 2931 1356
Q 2931 1769 2642 2001
Q 2353 2234 1838 2234
L 1294 2234
L 1294 2753
L 1863 2753
Q 2328 2753 2575 2939
Q 2822 3125 2822 3475
Q 2822 3834 2567 4026
Q 2313 4219 1838 4219
Q 1578 4219 1281 4162
Q 984 4106 628 3988
L 628 4550
Q 988 4650 1302 4700
Q 1616 4750 1894 4750
Q 2613 4750 3031 4423
Q 3450 4097 3450 3541
Q 3450 3153 3228 2886
Q 3006 2619 2597 2516
z
" transform="scale(0.015625)"/>
       </defs>
       <use xlink:href="#DejaVuSans-16"/>
      </g>
     </g>
    </g>
    <g id="ytick_5">
     <g id="line2d_16">
      <path d="M 34.563281 195.934128
L 399.313562 195.934128
" clip-path="url(#pad3696c47e)" style="fill: none; stroke: #b0b0b0; stroke-opacity: 0.22; stroke-width: 0.8; stroke-linecap: square"/>
     </g>
     <g id="line2d_17">
      <g>
       <use xlink:href="#mf77b5526b8" x="34.563281" y="195.934128" style="stroke: #000000; stroke-width: 0.8"/>
      </g>
     </g>
     <g id="text_13">
      <!-- 4 -->
      <g transform="translate(21.200781 199.732956) scale(0.1 -0.1)">
       <defs>
        <path id="DejaVuSans-17" d="M 2419 4116
L 825 1625
L 2419 1625
L 2419 4116
z
M 2253 4666
L 3047 4666
L 3047 1625
L 3713 1625
L 3713 1100
L 3047 1100
L 3047 0
L 2419 0
L 2419 1100
L 313 1100
L 313 1709
L 2253 4666
z
" transform="scale(0.015625)"/>
       </defs>
       <use xlink:href="#DejaVuSans-17"/>
      </g>
     </g>
    </g>
    <g id="ytick_6">
     <g id="line2d_18">
      <path d="M 34.563281 166.389099
L 399.313562 166.389099
" clip-path="url(#pad3696c47e)" style="fill: none; stroke: #b0b0b0; stroke-opacity: 0.22; stroke-width: 0.8; stroke-linecap: square"/>
     </g>
     <g id="line2d_19">
      <g>
       <use xlink:href="#mf77b5526b8" x="34.563281" y="166.389099" style="stroke: #000000; stroke-width: 0.8"/>
      </g>
     </g>
     <g id="text_14">
      <!-- 5 -->
      <g transform="translate(21.200781 170.187927) scale(0.1 -0.1)">
       <defs>
        <path id="DejaVuSans-18" d="M 691 4666
L 3169 4666
L 3169 4134
L 1269 4134
L 1269 2991
Q 1406 3038 1543 3061
Q 1681 3084 1819 3084
Q 2600 3084 3056 2656
Q 3513 2228 3513 1497
Q 3513 744 3044 326
Q 2575 -91 1722 -91
Q 1428 -91 1123 -41
Q 819 9 494 109
L 494 744
Q 775 591 1075 516
Q 1375 441 1709 441
Q 2250 441 2565 725
Q 2881 1009 2881 1497
Q 2881 1984 2565 2268
Q 2250 2553 1709 2553
Q 1456 2553 1204 2497
Q 953 2441 691 2322
L 691 4666
z
" transform="scale(0.015625)"/>
       </defs>
       <use xlink:href="#DejaVuSans-18"/>
      </g>
     </g>
    </g>
    <g id="ytick_7">
     <g id="line2d_20">
      <path d="M 34.563281 136.84407
L 399.313562 136.84407
" clip-path="url(#pad3696c47e)" style="fill: none; stroke: #b0b0b0; stroke-opacity: 0.22; stroke-width: 0.8; stroke-linecap: square"/>
     </g>
     <g id="line2d_21">
      <g>
       <use xlink:href="#mf77b5526b8" x="34.563281" y="136.84407" style="stroke: #000000; stroke-width: 0.8"/>
      </g>
     </g>
     <g id="text_15">
      <!-- 6 -->
      <g transform="translate(21.200781 140.642898) scale(0.1 -0.1)">
       <defs>
        <path id="DejaVuSans-19" d="M 2113 2584
Q 1688 2584 1439 2293
Q 1191 2003 1191 1497
Q 1191 994 1439 701
Q 1688 409 2113 409
Q 2538 409 2786 701
Q 3034 994 3034 1497
Q 3034 2003 2786 2293
Q 2538 2584 2113 2584
z
M 3366 4563
L 3366 3988
Q 3128 4100 2886 4159
Q 2644 4219 2406 4219
Q 1781 4219 1451 3797
Q 1122 3375 1075 2522
Q 1259 2794 1537 2939
Q 1816 3084 2150 3084
Q 2853 3084 3261 2657
Q 3669 2231 3669 1497
Q 3669 778 3244 343
Q 2819 -91 2113 -91
Q 1303 -91 875 529
Q 447 1150 447 2328
Q 447 3434 972 4092
Q 1497 4750 2381 4750
Q 2619 4750 2861 4703
Q 3103 4656 3366 4563
z
" transform="scale(0.015625)"/>
       </defs>
       <use xlink:href="#DejaVuSans-19"/>
      </g>
     </g>
    </g>
    <g id="ytick_8">
     <g id="line2d_22">
      <path d="M 34.563281 107.299041
L 399.313562 107.299041
" clip-path="url(#pad3696c47e)" style="fill: none; stroke: #b0b0b0; stroke-opacity: 0.22; stroke-width: 0.8; stroke-linecap: square"/>
     </g>
     <g id="line2d_23">
      <g>
       <use xlink:href="#mf77b5526b8" x="34.563281" y="107.299041" style="stroke: #000000; stroke-width: 0.8"/>
      </g>
     </g>
     <g id="text_16">
      <!-- 7 -->
      <g transform="translate(21.200781 111.097869) scale(0.1 -0.1)">
       <defs>
        <path id="DejaVuSans-1a" d="M 525 4666
L 3525 4666
L 3525 4397
L 1831 0
L 1172 0
L 2766 4134
L 525 4134
L 525 4666
z
" transform="scale(0.015625)"/>
       </defs>
       <use xlink:href="#DejaVuSans-1a"/>
      </g>
     </g>
    </g>
    <g id="ytick_9">
     <g id="line2d_24">
      <path d="M 34.563281 77.754012
L 399.313562 77.754012
" clip-path="url(#pad3696c47e)" style="fill: none; stroke: #b0b0b0; stroke-opacity: 0.22; stroke-width: 0.8; stroke-linecap: square"/>
     </g>
     <g id="line2d_25">
      <g>
       <use xlink:href="#mf77b5526b8" x="34.563281" y="77.754012" style="stroke: #000000; stroke-width: 0.8"/>
      </g>
     </g>
     <g id="text_17">
      <!-- 8 -->
      <g transform="translate(21.200781 81.55284) scale(0.1 -0.1)">
       <defs>
        <path id="DejaVuSans-1b" d="M 2034 2216
Q 1584 2216 1326 1975
Q 1069 1734 1069 1313
Q 1069 891 1326 650
Q 1584 409 2034 409
Q 2484 409 2743 651
Q 3003 894 3003 1313
Q 3003 1734 2745 1975
Q 2488 2216 2034 2216
z
M 1403 2484
Q 997 2584 770 2862
Q 544 3141 544 3541
Q 544 4100 942 4425
Q 1341 4750 2034 4750
Q 2731 4750 3128 4425
Q 3525 4100 3525 3541
Q 3525 3141 3298 2862
Q 3072 2584 2669 2484
Q 3125 2378 3379 2068
Q 3634 1759 3634 1313
Q 3634 634 3220 271
Q 2806 -91 2034 -91
Q 1263 -91 848 271
Q 434 634 434 1313
Q 434 1759 690 2068
Q 947 2378 1403 2484
z
M 1172 3481
Q 1172 3119 1398 2916
Q 1625 2713 2034 2713
Q 2441 2713 2670 2916
Q 2900 3119 2900 3481
Q 2900 3844 2670 4047
Q 2441 4250 2034 4250
Q 1625 4250 1398 4047
Q 1172 3844 1172 3481
z
" transform="scale(0.015625)"/>
       </defs>
       <use xlink:href="#DejaVuSans-1b"/>
      </g>
     </g>
    </g>
    <g id="text_18">
     <!-- Token Count -->
     <g transform="translate(14.798438 220.689185) rotate(-90) scale(0.1 -0.1)">
      <defs>
       <path id="DejaVuSans-37" d="M -19 4666
L 3928 4666
L 3928 4134
L 2272 4134
L 2272 0
L 1638 0
L 1638 4134
L -19 4134
L -19 4666
z
" transform="scale(0.015625)"/>
       <path id="DejaVuSans-4e" d="M 581 4863
L 1159 4863
L 1159 1991
L 2875 3500
L 3609 3500
L 1753 1863
L 3688 0
L 2938 0
L 1159 1709
L 1159 0
L 581 0
L 581 4863
z
" transform="scale(0.015625)"/>
       <path id="DejaVuSans-3" transform="scale(0.015625)"/>
       <path id="DejaVuSans-26" d="M 4122 4306
L 4122 3641
Q 3803 3938 3442 4084
Q 3081 4231 2675 4231
Q 1875 4231 1450 3742
Q 1025 3253 1025 2328
Q 1025 1406 1450 917
Q 1875 428 2675 428
Q 3081 428 3442 575
Q 3803 722 4122 1019
L 4122 359
Q 3791 134 3420 21
Q 3050 -91 2638 -91
Q 1578 -91 968 557
Q 359 1206 359 2328
Q 359 3453 968 4101
Q 1578 4750 2638 4750
Q 3056 4750 3426 4639
Q 3797 4528 4122 4306
z
" transform="scale(0.015625)"/>
      </defs>
      <use xlink:href="#DejaVuSans-37"/>
      <use xlink:href="#DejaVuSans-52" transform="translate(44.09375 0)"/>
      <use xlink:href="#DejaVuSans-4e" transform="translate(105.28125 0)"/>
      <use xlink:href="#DejaVuSans-48" transform="translate(159.625 0)"/>
      <use xlink:href="#DejaVuSans-51" transform="translate(221.15625 0)"/>
      <use xlink:href="#DejaVuSans-3" transform="translate(284.53125 0)"/>
      <use xlink:href="#DejaVuSans-26" transform="translate(316.3125 0)"/>
      <use xlink:href="#DejaVuSans-52" transform="translate(386.140625 0)"/>
      <use xlink:href="#DejaVuSans-58" transform="translate(447.328125 0)"/>
      <use xlink:href="#DejaVuSans-51" transform="translate(510.703125 0)"/>
      <use xlink:href="#DejaVuSans-57" transform="translate(574.078125 0)"/>
     </g>
    </g>
   </g>
   <g id="patch_3">
    <path d="M 51.142839 314.114244
L 90.153565 314.114244
L 90.153565 77.754012
L 51.142839 77.754012
z
" clip-path="url(#pad3696c47e)" style="fill: #1e3a8a; opacity: 0.82"/>
   </g>
   <g id="patch_4">
    <path d="M 99.906246 314.114244
L 138.916971 314.114244
L 138.916971 166.389099
L 99.906246 166.389099
z
" clip-path="url(#pad3696c47e)" style="fill: #1e3a8a; opacity: 0.82"/>
   </g>
   <g id="patch_5">
    <path d="M 148.669652 314.114244
L 187.680378 314.114244
L 187.680378 225.479157
L 148.669652 225.479157
z
" clip-path="url(#pad3696c47e)" style="fill: #1e3a8a; opacity: 0.82"/>
   </g>
   <g id="patch_6">
    <path d="M 197.433059 314.114244
L 236.443784 314.114244
L 236.443784 255.024186
L 197.433059 255.024186
z
" clip-path="url(#pad3696c47e)" style="fill: #1e3a8a; opacity: 0.82"/>
   </g>
   <g id="patch_7">
    <path d="M 246.196465 314.114244
L 285.207191 314.114244
L 285.207191 255.024186
L 246.196465 255.024186
z
" clip-path="url(#pad3696c47e)" style="fill: #1e3a8a; opacity: 0.82"/>
   </g>
   <g id="patch_8">
    <path d="M 294.959872 314.114244
L 333.970597 314.114244
L 333.970597 255.024186
L 294.959872 255.024186
z
" clip-path="url(#pad3696c47e)" style="fill: #1e3a8a; opacity: 0.82"/>
   </g>
   <g id="patch_9">
    <path d="M 343.723278 314.114244
L 382.734004 314.114244
L 382.734004 255.024186
L 343.723278 255.024186
z
" clip-path="url(#pad3696c47e)" style="fill: #1e3a8a; opacity: 0.82"/>
   </g>
   <g id="patch_10">
    <path d="M 34.563281 314.114244
L 34.563281 65.936
" style="fill: none; stroke: #000000; stroke-width: 0.8; stroke-linejoin: miter; stroke-linecap: square"/>
   </g>
   <g id="patch_11">
    <path d="M 34.563281 314.114244
L 399.313562 314.114244
" style="fill: none; stroke: #000000; stroke-width: 0.8; stroke-linejoin: miter; stroke-linecap: square"/>
   </g>
   <g id="text_19">
    <!-- 8 -->
    <g transform="translate(68.103202 65.197946) scale(0.08 -0.08)">
     <use xlink:href="#DejaVuSans-1b"/>
    </g>
    <!-- 33% -->
    <g transform="translate(61.757577 74.799509) scale(0.08 -0.08)">
     <defs>
      <path id="DejaVuSans-8" d="M 4653 2053
Q 4381 2053 4226 1822
Q 4072 1591 4072 1178
Q 4072 772 4226 539
Q 4381 306 4653 306
Q 4919 306 5073 539
Q 5228 772 5228 1178
Q 5228 1588 5073 1820
Q 4919 2053 4653 2053
z
M 4653 2450
Q 5147 2450 5437 2106
Q 5728 1763 5728 1178
Q 5728 594 5436 251
Q 5144 -91 4653 -91
Q 4153 -91 3862 251
Q 3572 594 3572 1178
Q 3572 1766 3864 2108
Q 4156 2450 4653 2450
z
M 1428 4353
Q 1159 4353 1004 4120
Q 850 3888 850 3481
Q 850 3069 1003 2837
Q 1156 2606 1428 2606
Q 1700 2606 1854 2837
Q 2009 3069 2009 3481
Q 2009 3884 1853 4118
Q 1697 4353 1428 4353
z
M 4250 4750
L 4750 4750
L 1831 -91
L 1331 -91
L 4250 4750
z
M 1428 4750
Q 1922 4750 2215 4408
Q 2509 4066 2509 3481
Q 2509 2891 2217 2550
Q 1925 2209 1428 2209
Q 931 2209 642 2551
Q 353 2894 353 3481
Q 353 4063 643 4406
Q 934 4750 1428 4750
z
" transform="scale(0.015625)"/>
     </defs>
     <use xlink:href="#DejaVuSans-16"/>
     <use xlink:href="#DejaVuSans-16" transform="translate(63.625 0)"/>
     <use xlink:href="#DejaVuSans-8" transform="translate(127.25 0)"/>
    </g>
   </g>
   <g id="text_20">
    <!-- 5 -->
    <g transform="translate(116.866609 153.833033) scale(0.08 -0.08)">
     <use xlink:href="#DejaVuSans-18"/>
    </g>
    <!-- 21% -->
    <g transform="translate(110.520984 163.434596) scale(0.08 -0.08)">
     <use xlink:href="#DejaVuSans-15"/>
     <use xlink:href="#DejaVuSans-14" transform="translate(63.625 0)"/>
     <use xlink:href="#DejaVuSans-8" transform="translate(127.25 0)"/>
    </g>
   </g>
   <g id="text_21">
    <!-- 3 -->
    <g transform="translate(165.630015 212.923092) scale(0.08 -0.08)">
     <use xlink:href="#DejaVuSans-16"/>
    </g>
    <!-- 12% -->
    <g transform="translate(159.28439 222.524654) scale(0.08 -0.08)">
     <use xlink:href="#DejaVuSans-14"/>
     <use xlink:href="#DejaVuSans-15" transform="translate(63.625 0)"/>
     <use xlink:href="#DejaVuSans-8" transform="translate(127.25 0)"/>
    </g>
   </g>
   <g id="text_22">
    <!-- 2 -->
    <g transform="translate(214.393422 242.468121) scale(0.08 -0.08)">
     <use xlink:href="#DejaVuSans-15"/>
    </g>
    <!-- 8% -->
    <g transform="translate(210.592797 252.069683) scale(0.08 -0.08)">
     <use xlink:href="#DejaVuSans-1b"/>
     <use xlink:href="#DejaVuSans-8" transform="translate(63.625 0)"/>
    </g>
   </g>
   <g id="text_23">
    <!-- 2 -->
    <g transform="translate(263.156828 242.468121) scale(0.08 -0.08)">
     <use xlink:href="#DejaVuSans-15"/>
    </g>
    <!-- 8% -->
    <g transform="translate(259.356203 252.069683) scale(0.08 -0.08)">
     <use xlink:href="#DejaVuSans-1b"/>
     <use xlink:href="#DejaVuSans-8" transform="translate(63.625 0)"/>
    </g>
   </g>
   <g id="text_24">
    <!-- 2 -->
    <g transform="translate(311.920234 242.468121) scale(0.08 -0.08)">
     <use xlink:href="#DejaVuSans-15"/>
    </g>
    <!-- 8% -->
    <g transform="translate(308.119609 252.069683) scale(0.08 -0.08)">
     <use xlink:href="#DejaVuSans-1b"/>
     <use xlink:href="#DejaVuSans-8" transform="translate(63.625 0)"/>
    </g>
   </g>
   <g id="text_25">
    <!-- 2 -->
    <g transform="translate(360.683641 242.468121) scale(0.08 -0.08)">
     <use xlink:href="#DejaVuSans-15"/>
    </g>
    <!-- 8% -->
    <g transform="translate(356.883016 252.069683) scale(0.08 -0.08)">
     <use xlink:href="#DejaVuSans-1b"/>
     <use xlink:href="#DejaVuSans-8" transform="translate(63.625 0)"/>
    </g>
   </g>
   <g id="text_26">
    <!-- Total: 24 -->
    <g transform="translate(353.65465 85.183506) scale(0.09 -0.09)">
     <defs>
      <path id="DejaVuSans-1d" d="M 750 794
L 1409 794
L 1409 0
L 750 0
L 750 794
z
M 750 3309
L 1409 3309
L 1409 2516
L 750 2516
L 750 3309
z
" transform="scale(0.015625)"/>
     </defs>
     <use xlink:href="#DejaVuSans-37"/>
     <use xlink:href="#DejaVuSans-52" transform="translate(44.09375 0)"/>
     <use xlink:href="#DejaVuSans-57" transform="translate(105.28125 0)"/>
     <use xlink:href="#DejaVuSans-44" transform="translate(144.484375 0)"/>
     <use xlink:href="#DejaVuSans-4f" transform="translate(205.765625 0)"/>
     <use xlink:href="#DejaVuSans-1d" transform="translate(233.546875 0)"/>
     <use xlink:href="#DejaVuSans-3" transform="translate(267.234375 0)"/>
     <use xlink:href="#DejaVuSans-15" transform="translate(299.015625 0)"/>
     <use xlink:href="#DejaVuSans-17" transform="translate(362.640625 0)"/>
    </g>
   </g>
   <g id="text_27">
    <!-- Tokens per Manuscript Section -->
    <g transform="translate(125.581859 59.936) scale(0.12 -0.12)">
     <defs>
      <path id="DejaVuSans-30" d="M 628 4666
L 1569 4666
L 2759 1491
L 3956 4666
L 4897 4666
L 4897 0
L 4281 0
L 4281 4097
L 3078 897
L 2444 897
L 1241 4097
L 1241 0
L 628 0
L 628 4666
z
" transform="scale(0.015625)"/>
     </defs>
     <use xlink:href="#DejaVuSans-37"/>
     <use xlink:href="#DejaVuSans-52" transform="translate(44.09375 0)"/>
     <use xlink:href="#DejaVuSans-4e" transform="translate(105.28125 0)"/>
     <use xlink:href="#DejaVuSans-48" transform="translate(159.625 0)"/>
     <use xlink:href="#DejaVuSans-51" transform="translate(221.15625 0)"/>
     <use xlink:href="#DejaVuSans-56" transform="translate(284.53125 0)"/>
     <use xlink:href="#DejaVuSans-3" transform="translate(336.625 0)"/>
     <use xlink:href="#DejaVuSans-53" transform="translate(368.40625 0)"/>
     <use xlink:href="#DejaVuSans-48" transform="translate(431.890625 0)"/>
     <use xlink:href="#DejaVuSans-55" transform="translate(493.421875 0)"/>
     <use xlink:href="#DejaVuSans-3" transform="translate(534.53125 0)"/>
     <use xlink:href="#DejaVuSans-30" transform="translate(566.3125 0)"/>
     <use xlink:href="#DejaVuSans-44" transform="translate(652.59375 0)"/>
     <use xlink:href="#DejaVuSans-51" transform="translate(713.875 0)"/>
     <use xlink:href="#DejaVuSans-58" transform="translate(777.25 0)"/>
     <use xlink:href="#DejaVuSans-56" transform="translate(840.625 0)"/>
     <use xlink:href="#DejaVuSans-46" transform="translate(892.71875 0)"/>
     <use xlink:href="#DejaVuSans-55" transform="translate(947.703125 0)"/>
     <use xlink:href="#DejaVuSans-4c" transform="translate(988.8125 0)"/>
     <use xlink:href="#DejaVuSans-53" transform="translate(1016.59375 0)"/>
     <use xlink:href="#DejaVuSans-57" transform="translate(1080.078125 0)"/>
     <use xlink:href="#DejaVuSans-3" transform="translate(1119.28125 0)"/>
     <use xlink:href="#DejaVuSans-36" transform="translate(1151.0625 0)"/>
     <use xlink:href="#DejaVuSans-48" transform="translate(1214.546875 0)"/>
     <use xlink:href="#DejaVuSans-46" transform="translate(1276.078125 0)"/>
     <use xlink:href="#DejaVuSans-57" transform="translate(1331.0625 0)"/>
     <use xlink:href="#DejaVuSans-4c" transform="translate(1370.265625 0)"/>
     <use xlink:href="#DejaVuSans-52" transform="translate(1398.046875 0)"/>
     <use xlink:href="#DejaVuSans-51" transform="translate(1459.234375 0)"/>
    </g>
   </g>
  </g>
  <g id="axes_2">
   <g id="patch_12">
    <path d="M 534.871436 314.114244
L 899.621717 314.114244
L 899.621717 65.936
L 534.871436 65.936
z
" style="fill: #ffffff"/>
   </g>
   <g id="matplotlib.axis_3">
    <g id="xtick_8">
     <g id="line2d_26">
      <path d="M 534.871436 314.114244
L 534.871436 65.936
" clip-path="url(#p31a92826ce)" style="fill: none; stroke: #b0b0b0; stroke-opacity: 0.22; stroke-width: 0.8; stroke-linecap: square"/>
     </g>
     <g id="line2d_27">
      <g>
       <use xlink:href="#mf950d66213" x="534.871436" y="314.114244" style="stroke: #000000; stroke-width: 0.8"/>
      </g>
     </g>
     <g id="text_28">
      <!-- 0 -->
      <g transform="translate(531.690186 328.711901) scale(0.1 -0.1)">
       <use xlink:href="#DejaVuSans-13"/>
      </g>
     </g>
    </g>
    <g id="xtick_9">
     <g id="line2d_28">
      <path d="M 604.34768 314.114244
L 604.34768 65.936
" clip-path="url(#p31a92826ce)" style="fill: none; stroke: #b0b0b0; stroke-opacity: 0.22; stroke-width: 0.8; stroke-linecap: square"/>
     </g>
     <g id="line2d_29">
      <g>
       <use xlink:href="#mf950d66213" x="604.34768" y="314.114244" style="stroke: #000000; stroke-width: 0.8"/>
      </g>
     </g>
     <g id="text_29">
      <!-- 1 -->
      <g transform="translate(601.16643 328.711901) scale(0.1 -0.1)">
       <use xlink:href="#DejaVuSans-14"/>
      </g>
     </g>
    </g>
    <g id="xtick_10">
     <g id="line2d_30">
      <path d="M 673.823924 314.114244
L 673.823924 65.936
" clip-path="url(#p31a92826ce)" style="fill: none; stroke: #b0b0b0; stroke-opacity: 0.22; stroke-width: 0.8; stroke-linecap: square"/>
     </g>
     <g id="line2d_31">
      <g>
       <use xlink:href="#mf950d66213" x="673.823924" y="314.114244" style="stroke: #000000; stroke-width: 0.8"/>
      </g>
     </g>
     <g id="text_30">
      <!-- 2 -->
      <g transform="translate(670.642674 328.711901) scale(0.1 -0.1)">
       <use xlink:href="#DejaVuSans-15"/>
      </g>
     </g>
    </g>
    <g id="xtick_11">
     <g id="line2d_32">
      <path d="M 743.300168 314.114244
L 743.300168 65.936
" clip-path="url(#p31a92826ce)" style="fill: none; stroke: #b0b0b0; stroke-opacity: 0.22; stroke-width: 0.8; stroke-linecap: square"/>
     </g>
     <g id="line2d_33">
      <g>
       <use xlink:href="#mf950d66213" x="743.300168" y="314.114244" style="stroke: #000000; stroke-width: 0.8"/>
      </g>
     </g>
     <g id="text_31">
      <!-- 3 -->
      <g transform="translate(740.118918 328.711901) scale(0.1 -0.1)">
       <use xlink:href="#DejaVuSans-16"/>
      </g>
     </g>
    </g>
    <g id="xtick_12">
     <g id="line2d_34">
      <path d="M 812.776412 314.114244
L 812.776412 65.936
" clip-path="url(#p31a92826ce)" style="fill: none; stroke: #b0b0b0; stroke-opacity: 0.22; stroke-width: 0.8; stroke-linecap: square"/>
     </g>
     <g id="line2d_35">
      <g>
       <use xlink:href="#mf950d66213" x="812.776412" y="314.114244" style="stroke: #000000; stroke-width: 0.8"/>
      </g>
     </g>
     <g id="text_32">
      <!-- 4 -->
      <g transform="translate(809.595162 328.711901) scale(0.1 -0.1)">
       <use xlink:href="#DejaVuSans-17"/>
      </g>
     </g>
    </g>
    <g id="xtick_13">
     <g id="line2d_36">
      <path d="M 882.252656 314.114244
L 882.252656 65.936
" clip-path="url(#p31a92826ce)" style="fill: none; stroke: #b0b0b0; stroke-opacity: 0.22; stroke-width: 0.8; stroke-linecap: square"/>
     </g>
     <g id="line2d_37">
      <g>
       <use xlink:href="#mf950d66213" x="882.252656" y="314.114244" style="stroke: #000000; stroke-width: 0.8"/>
      </g>
     </g>
     <g id="text_33">
      <!-- 5 -->
      <g transform="translate(879.071406 328.711901) scale(0.1 -0.1)">
       <use xlink:href="#DejaVuSans-18"/>
      </g>
     </g>
    </g>
    <g id="text_34">
     <!-- Token Count -->
     <g transform="translate(686.582514 342.712682) scale(0.1 -0.1)">
      <use xlink:href="#DejaVuSans-37"/>
      <use xlink:href="#DejaVuSans-52" transform="translate(44.09375 0)"/>
      <use xlink:href="#DejaVuSans-4e" transform="translate(105.28125 0)"/>
      <use xlink:href="#DejaVuSans-48" transform="translate(159.625 0)"/>
      <use xlink:href="#DejaVuSans-51" transform="translate(221.15625 0)"/>
      <use xlink:href="#DejaVuSans-3" transform="translate(284.53125 0)"/>
      <use xlink:href="#DejaVuSans-26" transform="translate(316.3125 0)"/>
      <use xlink:href="#DejaVuSans-52" transform="translate(386.140625 0)"/>
      <use xlink:href="#DejaVuSans-58" transform="translate(447.328125 0)"/>
      <use xlink:href="#DejaVuSans-51" transform="translate(510.703125 0)"/>
      <use xlink:href="#DejaVuSans-57" transform="translate(574.078125 0)"/>
     </g>
    </g>
   </g>
   <g id="matplotlib.axis_4">
    <g id="ytick_10">
     <g id="line2d_38">
      <g>
       <use xlink:href="#mf77b5526b8" x="534.871436" y="291.263334" style="stroke: #000000; stroke-width: 0.8"/>
      </g>
     </g>
     <g id="text_35">
      <!-- refinement_verbs -->
      <g transform="translate(440.146436 295.062552) scale(0.1 -0.1)">
       <defs>
        <path id="DejaVuSans-13af" d="M 3431 3500
L 3431 0
L 2853 0
L 2853 3053
L 1275 3053
L 1275 0
L 697 0
L 697 3053
L 147 3053
L 147 3500
L 697 3500
L 697 3744
Q 697 4316 967 4589
Q 1238 4863 1797 4863
L 2375 4863
L 2375 4384
L 1825 4384
Q 1516 4384 1395 4259
Q 1275 4134 1275 3809
L 1275 3500
L 3431 3500
z
M 2853 4856
L 3431 4856
L 3431 4128
L 2853 4128
L 2853 4856
z
" transform="scale(0.015625)"/>
       </defs>
       <use xlink:href="#DejaVuSans-55"/>
       <use xlink:href="#DejaVuSans-48" transform="translate(38.90625 0)"/>
       <use xlink:href="#DejaVuSans-13af" transform="translate(100.4375 0)"/>
       <use xlink:href="#DejaVuSans-51" transform="translate(163.421875 0)"/>
       <use xlink:href="#DejaVuSans-48" transform="translate(226.796875 0)"/>
       <use xlink:href="#DejaVuSans-50" transform="translate(288.328125 0)"/>
       <use xlink:href="#DejaVuSans-48" transform="translate(385.734375 0)"/>
       <use xlink:href="#DejaVuSans-51" transform="translate(447.265625 0)"/>
       <use xlink:href="#DejaVuSans-57" transform="translate(510.640625 0)"/>
       <use xlink:href="#DejaVuSans-42" transform="translate(549.84375 0)"/>
       <use xlink:href="#DejaVuSans-59" transform="translate(599.84375 0)"/>
       <use xlink:href="#DejaVuSans-48" transform="translate(659.03125 0)"/>
       <use xlink:href="#DejaVuSans-55" transform="translate(720.5625 0)"/>
       <use xlink:href="#DejaVuSans-45" transform="translate(761.671875 0)"/>
       <use xlink:href="#DejaVuSans-56" transform="translate(825.15625 0)"/>
      </g>
     </g>
    </g>
    <g id="ytick_11">
     <g id="line2d_39">
      <g>
       <use xlink:href="#mf77b5526b8" x="534.871436" y="262.33813" style="stroke: #000000; stroke-width: 0.8"/>
      </g>
     </g>
     <g id="text_36">
      <!-- integrity_terms -->
      <g transform="translate(451.646436 266.137349) scale(0.1 -0.1)">
       <use xlink:href="#DejaVuSans-4c"/>
       <use xlink:href="#DejaVuSans-51" transform="translate(27.78125 0)"/>
       <use xlink:href="#DejaVuSans-57" transform="translate(91.15625 0)"/>
       <use xlink:href="#DejaVuSans-48" transform="translate(130.359375 0)"/>
       <use xlink:href="#DejaVuSans-4a" transform="translate(191.890625 0)"/>
       <use xlink:href="#DejaVuSans-55" transform="translate(255.375 0)"/>
       <use xlink:href="#DejaVuSans-4c" transform="translate(296.484375 0)"/>
       <use xlink:href="#DejaVuSans-57" transform="translate(324.265625 0)"/>
       <use xlink:href="#DejaVuSans-5c" transform="translate(363.46875 0)"/>
       <use xlink:href="#DejaVuSans-42" transform="translate(422.65625 0)"/>
       <use xlink:href="#DejaVuSans-57" transform="translate(472.65625 0)"/>
       <use xlink:href="#DejaVuSans-48" transform="translate(511.859375 0)"/>
       <use xlink:href="#DejaVuSans-55" transform="translate(573.390625 0)"/>
       <use xlink:href="#DejaVuSans-50" transform="translate(612.75 0)"/>
       <use xlink:href="#DejaVuSans-56" transform="translate(710.15625 0)"/>
      </g>
     </g>
    </g>
    <g id="ytick_12">
     <g id="line2d_40">
      <g>
       <use xlink:href="#mf77b5526b8" x="534.871436" y="233.412927" style="stroke: #000000; stroke-width: 0.8"/>
      </g>
     </g>
     <g id="text_37">
      <!-- manuscript_terms -->
      <g transform="translate(437.502686 237.212146) scale(0.1 -0.1)">
       <use xlink:href="#DejaVuSans-50"/>
       <use xlink:href="#DejaVuSans-44" transform="translate(97.40625 0)"/>
       <use xlink:href="#DejaVuSans-51" transform="translate(158.6875 0)"/>
       <use xlink:href="#DejaVuSans-58" transform="translate(222.0625 0)"/>
       <use xlink:href="#DejaVuSans-56" transform="translate(285.4375 0)"/>
       <use xlink:href="#DejaVuSans-46" transform="translate(337.53125 0)"/>
       <use xlink:href="#DejaVuSans-55" transform="translate(392.515625 0)"/>
       <use xlink:href="#DejaVuSans-4c" transform="translate(433.625 0)"/>
       <use xlink:href="#DejaVuSans-53" transform="translate(461.40625 0)"/>
       <use xlink:href="#DejaVuSans-57" transform="translate(524.890625 0)"/>
       <use xlink:href="#DejaVuSans-42" transform="translate(564.09375 0)"/>
       <use xlink:href="#DejaVuSans-57" transform="translate(614.09375 0)"/>
       <use xlink:href="#DejaVuSans-48" transform="translate(653.296875 0)"/>
       <use xlink:href="#DejaVuSans-55" transform="translate(714.828125 0)"/>
       <use xlink:href="#DejaVuSans-50" transform="translate(754.1875 0)"/>
       <use xlink:href="#DejaVuSans-56" transform="translate(851.59375 0)"/>
      </g>
     </g>
    </g>
    <g id="ytick_13">
     <g id="line2d_41">
      <g>
       <use xlink:href="#mf77b5526b8" x="534.871436" y="204.487724" style="stroke: #000000; stroke-width: 0.8"/>
      </g>
     </g>
     <g id="text_38">
      <!-- purity_adjectives -->
      <g transform="translate(442.571436 208.286943) scale(0.1 -0.1)">
       <defs>
        <path id="DejaVuSans-4d" d="M 603 3500
L 1178 3500
L 1178 -63
Q 1178 -731 923 -1031
Q 669 -1331 103 -1331
L -116 -1331
L -116 -844
L 38 -844
Q 366 -844 484 -692
Q 603 -541 603 -63
L 603 3500
z
M 603 4863
L 1178 4863
L 1178 4134
L 603 4134
L 603 4863
z
" transform="scale(0.015625)"/>
       </defs>
       <use xlink:href="#DejaVuSans-53"/>
       <use xlink:href="#DejaVuSans-58" transform="translate(63.484375 0)"/>
       <use xlink:href="#DejaVuSans-55" transform="translate(126.859375 0)"/>
       <use xlink:href="#DejaVuSans-4c" transform="translate(167.96875 0)"/>
       <use xlink:href="#DejaVuSans-57" transform="translate(195.75 0)"/>
       <use xlink:href="#DejaVuSans-5c" transform="translate(234.953125 0)"/>
       <use xlink:href="#DejaVuSans-42" transform="translate(294.140625 0)"/>
       <use xlink:href="#DejaVuSans-44" transform="translate(344.140625 0)"/>
       <use xlink:href="#DejaVuSans-47" transform="translate(405.421875 0)"/>
       <use xlink:href="#DejaVuSans-4d" transform="translate(468.90625 0)"/>
       <use xlink:href="#DejaVuSans-48" transform="translate(496.6875 0)"/>
       <use xlink:href="#DejaVuSans-46" transform="translate(558.21875 0)"/>
       <use xlink:href="#DejaVuSans-57" transform="translate(613.203125 0)"/>
       <use xlink:href="#DejaVuSans-4c" transform="translate(652.40625 0)"/>
       <use xlink:href="#DejaVuSans-59" transform="translate(680.1875 0)"/>
       <use xlink:href="#DejaVuSans-48" transform="translate(739.375 0)"/>
       <use xlink:href="#DejaVuSans-56" transform="translate(800.90625 0)"/>
      </g>
     </g>
    </g>
    <g id="ytick_14">
     <g id="line2d_42">
      <g>
       <use xlink:href="#mf77b5526b8" x="534.871436" y="175.562521" style="stroke: #000000; stroke-width: 0.8"/>
      </g>
     </g>
     <g id="text_39">
      <!-- metallurgical_terms -->
      <g transform="translate(428.608936 179.361739) scale(0.1 -0.1)">
       <use xlink:href="#DejaVuSans-50"/>
       <use xlink:href="#DejaVuSans-48" transform="translate(97.40625 0)"/>
       <use xlink:href="#DejaVuSans-57" transform="translate(158.9375 0)"/>
       <use xlink:href="#DejaVuSans-44" transform="translate(198.140625 0)"/>
       <use xlink:href="#DejaVuSans-4f" transform="translate(259.421875 0)"/>
       <use xlink:href="#DejaVuSans-4f" transform="translate(287.203125 0)"/>
       <use xlink:href="#DejaVuSans-58" transform="translate(314.984375 0)"/>
       <use xlink:href="#DejaVuSans-55" transform="translate(378.359375 0)"/>
       <use xlink:href="#DejaVuSans-4a" transform="translate(417.71875 0)"/>
       <use xlink:href="#DejaVuSans-4c" transform="translate(481.203125 0)"/>
       <use xlink:href="#DejaVuSans-46" transform="translate(508.984375 0)"/>
       <use xlink:href="#DejaVuSans-44" transform="translate(563.96875 0)"/>
       <use xlink:href="#DejaVuSans-4f" transform="translate(625.25 0)"/>
       <use xlink:href="#DejaVuSans-42" transform="translate(653.03125 0)"/>
       <use xlink:href="#DejaVuSans-57" transform="translate(703.03125 0)"/>
       <use xlink:href="#DejaVuSans-48" transform="translate(742.234375 0)"/>
       <use xlink:href="#DejaVuSans-55" transform="translate(803.765625 0)"/>
       <use xlink:href="#DejaVuSans-50" transform="translate(843.125 0)"/>
       <use xlink:href="#DejaVuSans-56" transform="translate(940.53125 0)"/>
      </g>
     </g>
    </g>
    <g id="ytick_15">
     <g id="line2d_43">
      <g>
       <use xlink:href="#mf77b5526b8" x="534.871436" y="146.637317" style="stroke: #000000; stroke-width: 0.8"/>
      </g>
     </g>
     <g id="text_40">
      <!-- boundary_terms -->
      <g transform="translate(446.263624 150.436536) scale(0.1 -0.1)">
       <use xlink:href="#DejaVuSans-45"/>
       <use xlink:href="#DejaVuSans-52" transform="translate(63.484375 0)"/>
       <use xlink:href="#DejaVuSans-58" transform="translate(124.671875 0)"/>
       <use xlink:href="#DejaVuSans-51" transform="translate(188.046875 0)"/>
       <use xlink:href="#DejaVuSans-47" transform="translate(251.421875 0)"/>
       <use xlink:href="#DejaVuSans-44" transform="translate(314.90625 0)"/>
       <use xlink:href="#DejaVuSans-55" transform="translate(376.1875 0)"/>
       <use xlink:href="#DejaVuSans-5c" transform="translate(417.296875 0)"/>
       <use xlink:href="#DejaVuSans-42" transform="translate(476.484375 0)"/>
       <use xlink:href="#DejaVuSans-57" transform="translate(526.484375 0)"/>
       <use xlink:href="#DejaVuSans-48" transform="translate(565.6875 0)"/>
       <use xlink:href="#DejaVuSans-55" transform="translate(627.21875 0)"/>
       <use xlink:href="#DejaVuSans-50" transform="translate(666.578125 0)"/>
       <use xlink:href="#DejaVuSans-56" transform="translate(763.984375 0)"/>
      </g>
     </g>
    </g>
    <g id="ytick_16">
     <g id="line2d_44">
      <g>
       <use xlink:href="#mf77b5526b8" x="534.871436" y="117.712114" style="stroke: #000000; stroke-width: 0.8"/>
      </g>
     </g>
     <g id="text_41">
      <!-- evidence_terms -->
      <g transform="translate(448.571436 121.511333) scale(0.1 -0.1)">
       <use xlink:href="#DejaVuSans-48"/>
       <use xlink:href="#DejaVuSans-59" transform="translate(61.53125 0)"/>
       <use xlink:href="#DejaVuSans-4c" transform="translate(120.71875 0)"/>
       <use xlink:href="#DejaVuSans-47" transform="translate(148.5 0)"/>
       <use xlink:href="#DejaVuSans-48" transform="translate(211.984375 0)"/>
       <use xlink:href="#DejaVuSans-51" transform="translate(273.515625 0)"/>
       <use xlink:href="#DejaVuSans-46" transform="translate(336.890625 0)"/>
       <use xlink:href="#DejaVuSans-48" transform="translate(391.875 0)"/>
       <use xlink:href="#DejaVuSans-42" transform="translate(453.40625 0)"/>
       <use xlink:href="#DejaVuSans-57" transform="translate(503.40625 0)"/>
       <use xlink:href="#DejaVuSans-48" transform="translate(542.609375 0)"/>
       <use xlink:href="#DejaVuSans-55" transform="translate(604.140625 0)"/>
       <use xlink:href="#DejaVuSans-50" transform="translate(643.5 0)"/>
       <use xlink:href="#DejaVuSans-56" transform="translate(740.90625 0)"/>
      </g>
     </g>
    </g>
    <g id="ytick_17">
     <g id="line2d_45">
      <g>
       <use xlink:href="#mf77b5526b8" x="534.871436" y="88.786911" style="stroke: #000000; stroke-width: 0.8"/>
      </g>
     </g>
     <g id="text_42">
      <!-- gate_terms -->
      <g transform="translate(471.362061 92.585739) scale(0.1 -0.1)">
       <use xlink:href="#DejaVuSans-4a"/>
       <use xlink:href="#DejaVuSans-44" transform="translate(63.484375 0)"/>
       <use xlink:href="#DejaVuSans-57" transform="translate(124.765625 0)"/>
       <use xlink:href="#DejaVuSans-48" transform="translate(163.96875 0)"/>
       <use xlink:href="#DejaVuSans-42" transform="translate(225.5 0)"/>
       <use xlink:href="#DejaVuSans-57" transform="translate(275.5 0)"/>
       <use xlink:href="#DejaVuSans-48" transform="translate(314.703125 0)"/>
       <use xlink:href="#DejaVuSans-55" transform="translate(376.234375 0)"/>
       <use xlink:href="#DejaVuSans-50" transform="translate(415.59375 0)"/>
       <use xlink:href="#DejaVuSans-56" transform="translate(513 0)"/>
      </g>
     </g>
    </g>
    <g id="text_43">
     <!-- Category -->
     <g transform="translate(422.206592 212.865747) rotate(-90) scale(0.1 -0.1)">
      <use xlink:href="#DejaVuSans-26"/>
      <use xlink:href="#DejaVuSans-44" transform="translate(69.828125 0)"/>
      <use xlink:href="#DejaVuSans-57" transform="translate(131.109375 0)"/>
      <use xlink:href="#DejaVuSans-48" transform="translate(170.3125 0)"/>
      <use xlink:href="#DejaVuSans-4a" transform="translate(231.84375 0)"/>
      <use xlink:href="#DejaVuSans-52" transform="translate(295.328125 0)"/>
      <use xlink:href="#DejaVuSans-55" transform="translate(356.515625 0)"/>
      <use xlink:href="#DejaVuSans-5c" transform="translate(397.625 0)"/>
     </g>
    </g>
   </g>
   <g id="patch_13">
    <path d="M 534.871436 302.833415
L 604.34768 302.833415
L 604.34768 279.693252
L 534.871436 279.693252
z
" clip-path="url(#p31a92826ce)" style="fill: #0f766e; opacity: 0.8"/>
   </g>
   <g id="patch_14">
    <path d="M 534.871436 273.908212
L 673.823924 273.908212
L 673.823924 250.768049
L 534.871436 250.768049
z
" clip-path="url(#p31a92826ce)" style="fill: #0f766e; opacity: 0.8"/>
   </g>
   <g id="patch_15">
    <path d="M 534.871436 244.983008
L 673.823924 244.983008
L 673.823924 221.842846
L 534.871436 221.842846
z
" clip-path="url(#p31a92826ce)" style="fill: #0f766e; opacity: 0.8"/>
   </g>
   <g id="patch_16">
    <path d="M 534.871436 216.057805
L 673.823924 216.057805
L 673.823924 192.917642
L 534.871436 192.917642
z
" clip-path="url(#p31a92826ce)" style="fill: #0f766e; opacity: 0.8"/>
   </g>
   <g id="patch_17">
    <path d="M 534.871436 187.132602
L 743.300168 187.132602
L 743.300168 163.992439
L 534.871436 163.992439
z
" clip-path="url(#p31a92826ce)" style="fill: #0f766e; opacity: 0.8"/>
   </g>
   <g id="patch_18">
    <path d="M 534.871436 158.207399
L 812.776412 158.207399
L 812.776412 135.067236
L 534.871436 135.067236
z
" clip-path="url(#p31a92826ce)" style="fill: #0f766e; opacity: 0.8"/>
   </g>
   <g id="patch_19">
    <path d="M 534.871436 129.282195
L 882.252656 129.282195
L 882.252656 106.142033
L 534.871436 106.142033
z
" clip-path="url(#p31a92826ce)" style="fill: #0f766e; opacity: 0.8"/>
   </g>
   <g id="patch_20">
    <path d="M 534.871436 100.356992
L 882.252656 100.356992
L 882.252656 77.216829
L 534.871436 77.216829
z
" clip-path="url(#p31a92826ce)" style="fill: #0f766e; opacity: 0.8"/>
   </g>
   <g id="patch_21">
    <path d="M 534.871436 314.114244
L 534.871436 65.936
" style="fill: none; stroke: #000000; stroke-width: 0.8; stroke-linejoin: miter; stroke-linecap: square"/>
   </g>
   <g id="patch_22">
    <path d="M 534.871436 314.114244
L 899.621717 314.114244
" style="fill: none; stroke: #000000; stroke-width: 0.8; stroke-linejoin: miter; stroke-linecap: square"/>
   </g>
   <g id="text_44">
    <!-- 1 (4%) -->
    <g transform="translate(611.295304 293.341459) scale(0.08 -0.08)">
     <defs>
      <path id="DejaVuSans-b" d="M 1984 4856
Q 1566 4138 1362 3434
Q 1159 2731 1159 2009
Q 1159 1288 1364 580
Q 1569 -128 1984 -844
L 1484 -844
Q 1016 -109 783 600
Q 550 1309 550 2009
Q 550 2706 781 3412
Q 1013 4119 1484 4856
L 1984 4856
z
" transform="scale(0.015625)"/>
      <path id="DejaVuSans-c" d="M 513 4856
L 1013 4856
Q 1481 4119 1714 3412
Q 1947 2706 1947 2009
Q 1947 1309 1714 600
Q 1481 -109 1013 -844
L 513 -844
Q 928 -128 1133 580
Q 1338 1288 1338 2009
Q 1338 2731 1133 3434
Q 928 4138 513 4856
z
" transform="scale(0.015625)"/>
     </defs>
     <use xlink:href="#DejaVuSans-14"/>
     <use xlink:href="#DejaVuSans-3" transform="translate(63.625 0)"/>
     <use xlink:href="#DejaVuSans-b" transform="translate(95.40625 0)"/>
     <use xlink:href="#DejaVuSans-17" transform="translate(134.421875 0)"/>
     <use xlink:href="#DejaVuSans-8" transform="translate(198.046875 0)"/>
     <use xlink:href="#DejaVuSans-c" transform="translate(293.0625 0)"/>
    </g>
   </g>
   <g id="text_45">
    <!-- 2 (8%) -->
    <g transform="translate(680.771548 264.416255) scale(0.08 -0.08)">
     <use xlink:href="#DejaVuSans-15"/>
     <use xlink:href="#DejaVuSans-3" transform="translate(63.625 0)"/>
     <use xlink:href="#DejaVuSans-b" transform="translate(95.40625 0)"/>
     <use xlink:href="#DejaVuSans-1b" transform="translate(134.421875 0)"/>
     <use xlink:href="#DejaVuSans-8" transform="translate(198.046875 0)"/>
     <use xlink:href="#DejaVuSans-c" transform="translate(293.0625 0)"/>
    </g>
   </g>
   <g id="text_46">
    <!-- 2 (8%) -->
    <g transform="translate(680.771548 235.491052) scale(0.08 -0.08)">
     <use xlink:href="#DejaVuSans-15"/>
     <use xlink:href="#DejaVuSans-3" transform="translate(63.625 0)"/>
     <use xlink:href="#DejaVuSans-b" transform="translate(95.40625 0)"/>
     <use xlink:href="#DejaVuSans-1b" transform="translate(134.421875 0)"/>
     <use xlink:href="#DejaVuSans-8" transform="translate(198.046875 0)"/>
     <use xlink:href="#DejaVuSans-c" transform="translate(293.0625 0)"/>
    </g>
   </g>
   <g id="text_47">
    <!-- 2 (8%) -->
    <g transform="translate(680.771548 206.565849) scale(0.08 -0.08)">
     <use xlink:href="#DejaVuSans-15"/>
     <use xlink:href="#DejaVuSans-3" transform="translate(63.625 0)"/>
     <use xlink:href="#DejaVuSans-b" transform="translate(95.40625 0)"/>
     <use xlink:href="#DejaVuSans-1b" transform="translate(134.421875 0)"/>
     <use xlink:href="#DejaVuSans-8" transform="translate(198.046875 0)"/>
     <use xlink:href="#DejaVuSans-c" transform="translate(293.0625 0)"/>
    </g>
   </g>
   <g id="text_48">
    <!-- 3 (12%) -->
    <g transform="translate(750.247792 177.640646) scale(0.08 -0.08)">
     <use xlink:href="#DejaVuSans-16"/>
     <use xlink:href="#DejaVuSans-3" transform="translate(63.625 0)"/>
     <use xlink:href="#DejaVuSans-b" transform="translate(95.40625 0)"/>
     <use xlink:href="#DejaVuSans-14" transform="translate(134.421875 0)"/>
     <use xlink:href="#DejaVuSans-15" transform="translate(198.046875 0)"/>
     <use xlink:href="#DejaVuSans-8" transform="translate(261.671875 0)"/>
     <use xlink:href="#DejaVuSans-c" transform="translate(356.6875 0)"/>
    </g>
   </g>
   <g id="text_49">
    <!-- 4 (17%) -->
    <g transform="translate(819.724036 148.715442) scale(0.08 -0.08)">
     <use xlink:href="#DejaVuSans-17"/>
     <use xlink:href="#DejaVuSans-3" transform="translate(63.625 0)"/>
     <use xlink:href="#DejaVuSans-b" transform="translate(95.40625 0)"/>
     <use xlink:href="#DejaVuSans-14" transform="translate(134.421875 0)"/>
     <use xlink:href="#DejaVuSans-1a" transform="translate(198.046875 0)"/>
     <use xlink:href="#DejaVuSans-8" transform="translate(261.671875 0)"/>
     <use xlink:href="#DejaVuSans-c" transform="translate(356.6875 0)"/>
    </g>
   </g>
   <g id="text_50">
    <!-- 5 (21%) -->
    <g transform="translate(889.20028 119.790239) scale(0.08 -0.08)">
     <use xlink:href="#DejaVuSans-18"/>
     <use xlink:href="#DejaVuSans-3" transform="translate(63.625 0)"/>
     <use xlink:href="#DejaVuSans-b" transform="translate(95.40625 0)"/>
     <use xlink:href="#DejaVuSans-15" transform="translate(134.421875 0)"/>
     <use xlink:href="#DejaVuSans-14" transform="translate(198.046875 0)"/>
     <use xlink:href="#DejaVuSans-8" transform="translate(261.671875 0)"/>
     <use xlink:href="#DejaVuSans-c" transform="translate(356.6875 0)"/>
    </g>
   </g>
   <g id="text_51">
    <!-- 5 (21%) -->
    <g transform="translate(889.20028 90.865036) scale(0.08 -0.08)">
     <use xlink:href="#DejaVuSans-18"/>
     <use xlink:href="#DejaVuSans-3" transform="translate(63.625 0)"/>
     <use xlink:href="#DejaVuSans-b" transform="translate(95.40625 0)"/>
     <use xlink:href="#DejaVuSans-15" transform="translate(134.421875 0)"/>
     <use xlink:href="#DejaVuSans-14" transform="translate(198.046875 0)"/>
     <use xlink:href="#DejaVuSans-8" transform="translate(261.671875 0)"/>
     <use xlink:href="#DejaVuSans-c" transform="translate(356.6875 0)"/>
    </g>
   </g>
   <g id="text_52">
    <!-- Total: 24 -->
    <g transform="translate(853.962805 302.025005) scale(0.09 -0.09)">
     <use xlink:href="#DejaVuSans-37"/>
     <use xlink:href="#DejaVuSans-52" transform="translate(44.09375 0)"/>
     <use xlink:href="#DejaVuSans-57" transform="translate(105.28125 0)"/>
     <use xlink:href="#DejaVuSans-44" transform="translate(144.484375 0)"/>
     <use xlink:href="#DejaVuSans-4f" transform="translate(205.765625 0)"/>
     <use xlink:href="#DejaVuSans-1d" transform="translate(233.546875 0)"/>
     <use xlink:href="#DejaVuSans-3" transform="translate(267.234375 0)"/>
     <use xlink:href="#DejaVuSans-15" transform="translate(299.015625 0)"/>
     <use xlink:href="#DejaVuSans-17" transform="translate(362.640625 0)"/>
    </g>
   </g>
   <g id="text_53">
    <!-- Tokens per Lexicon Category -->
    <g transform="translate(631.136264 59.936) scale(0.12 -0.12)">
     <defs>
      <path id="DejaVuSans-2f" d="M 628 4666
L 1259 4666
L 1259 531
L 3531 531
L 3531 0
L 628 0
L 628 4666
z
" transform="scale(0.015625)"/>
      <path id="DejaVuSans-5b" d="M 3513 3500
L 2247 1797
L 3578 0
L 2900 0
L 1881 1375
L 863 0
L 184 0
L 1544 1831
L 300 3500
L 978 3500
L 1906 2253
L 2834 3500
L 3513 3500
z
" transform="scale(0.015625)"/>
     </defs>
     <use xlink:href="#DejaVuSans-37"/>
     <use xlink:href="#DejaVuSans-52" transform="translate(44.09375 0)"/>
     <use xlink:href="#DejaVuSans-4e" transform="translate(105.28125 0)"/>
     <use xlink:href="#DejaVuSans-48" transform="translate(159.625 0)"/>
     <use xlink:href="#DejaVuSans-51" transform="translate(221.15625 0)"/>
     <use xlink:href="#DejaVuSans-56" transform="translate(284.53125 0)"/>
     <use xlink:href="#DejaVuSans-3" transform="translate(336.625 0)"/>
     <use xlink:href="#DejaVuSans-53" transform="translate(368.40625 0)"/>
     <use xlink:href="#DejaVuSans-48" transform="translate(431.890625 0)"/>
     <use xlink:href="#DejaVuSans-55" transform="translate(493.421875 0)"/>
     <use xlink:href="#DejaVuSans-3" transform="translate(534.53125 0)"/>
     <use xlink:href="#DejaVuSans-2f" transform="translate(566.3125 0)"/>
     <use xlink:href="#DejaVuSans-48" transform="translate(620.28125 0)"/>
     <use xlink:href="#DejaVuSans-5b" transform="translate(680.0625 0)"/>
     <use xlink:href="#DejaVuSans-4c" transform="translate(739.25 0)"/>
     <use xlink:href="#DejaVuSans-46" transform="translate(767.03125 0)"/>
     <use xlink:href="#DejaVuSans-52" transform="translate(822.015625 0)"/>
     <use xlink:href="#DejaVuSans-51" transform="translate(883.203125 0)"/>
     <use xlink:href="#DejaVuSans-3" transform="translate(946.578125 0)"/>
     <use xlink:href="#DejaVuSans-26" transform="translate(978.359375 0)"/>
     <use xlink:href="#DejaVuSans-44" transform="translate(1048.1875 0)"/>
     <use xlink:href="#DejaVuSans-57" transform="translate(1109.46875 0)"/>
     <use xlink:href="#DejaVuSans-48" transform="translate(1148.671875 0)"/>
     <use xlink:href="#DejaVuSans-4a" transform="translate(1210.203125 0)"/>
     <use xlink:href="#DejaVuSans-52" transform="translate(1273.6875 0)"/>
     <use xlink:href="#DejaVuSans-55" transform="translate(1334.875 0)"/>
     <use xlink:href="#DejaVuSans-5c" transform="translate(1375.984375 0)"/>
    </g>
   </g>
  </g>
  <g id="text_54">
   <!-- Mega-Madlib Token Distribution -->
   <g transform="translate(354.045625 17.837812) scale(0.14 -0.14)">
    <defs>
     <path id="DejaVuSans-10" d="M 313 2009
L 1997 2009
L 1997 1497
L 313 1497
L 313 2009
z
" transform="scale(0.015625)"/>
     <path id="DejaVuSans-27" d="M 1259 4147
L 1259 519
L 2022 519
Q 2988 519 3436 956
Q 3884 1394 3884 2338
Q 3884 3275 3436 3711
Q 2988 4147 2022 4147
L 1259 4147
z
M 628 4666
L 1925 4666
Q 3281 4666 3915 4102
Q 4550 3538 4550 2338
Q 4550 1131 3912 565
Q 3275 0 1925 0
L 628 0
L 628 4666
z
" transform="scale(0.015625)"/>
    </defs>
    <use xlink:href="#DejaVuSans-30"/>
    <use xlink:href="#DejaVuSans-48" transform="translate(86.28125 0)"/>
    <use xlink:href="#DejaVuSans-4a" transform="translate(147.8125 0)"/>
    <use xlink:href="#DejaVuSans-44" transform="translate(211.296875 0)"/>
    <use xlink:href="#DejaVuSans-10" transform="translate(272.578125 0)"/>
    <use xlink:href="#DejaVuSans-30" transform="translate(308.65625 0)"/>
    <use xlink:href="#DejaVuSans-44" transform="translate(394.9375 0)"/>
    <use xlink:href="#DejaVuSans-47" transform="translate(456.21875 0)"/>
    <use xlink:href="#DejaVuSans-4f" transform="translate(519.703125 0)"/>
    <use xlink:href="#DejaVuSans-4c" transform="translate(547.484375 0)"/>
    <use xlink:href="#DejaVuSans-45" transform="translate(575.265625 0)"/>
    <use xlink:href="#DejaVuSans-3" transform="translate(638.75 0)"/>
    <use xlink:href="#DejaVuSans-37" transform="translate(670.53125 0)"/>
    <use xlink:href="#DejaVuSans-52" transform="translate(714.625 0)"/>
    <use xlink:href="#DejaVuSans-4e" transform="translate(775.8125 0)"/>
    <use xlink:href="#DejaVuSans-48" transform="translate(830.15625 0)"/>
    <use xlink:href="#DejaVuSans-51" transform="translate(891.6875 0)"/>
    <use xlink:href="#DejaVuSans-3" transform="translate(955.0625 0)"/>
    <use xlink:href="#DejaVuSans-27" transform="translate(986.84375 0)"/>
    <use xlink:href="#DejaVuSans-4c" transform="translate(1063.84375 0)"/>
    <use xlink:href="#DejaVuSans-56" transform="translate(1091.625 0)"/>
    <use xlink:href="#DejaVuSans-57" transform="translate(1143.71875 0)"/>
    <use xlink:href="#DejaVuSans-55" transform="translate(1182.921875 0)"/>
    <use xlink:href="#DejaVuSans-4c" transform="translate(1224.03125 0)"/>
    <use xlink:href="#DejaVuSans-45" transform="translate(1251.8125 0)"/>
    <use xlink:href="#DejaVuSans-58" transform="translate(1315.296875 0)"/>
    <use xlink:href="#DejaVuSans-57" transform="translate(1378.671875 0)"/>
    <use xlink:href="#DejaVuSans-4c" transform="translate(1417.875 0)"/>
    <use xlink:href="#DejaVuSans-52" transform="translate(1445.65625 0)"/>
    <use xlink:href="#DejaVuSans-51" transform="translate(1506.84375 0)"/>
   </g>
  </g>
 </g>
 <defs>
  <clipPath id="pad3696c47e">
   <rect x="34.563281" y="65.936" width="364.750281" height="248.178244"/>
  </clipPath>
  <clipPath id="p31a92826ce">
   <rect x="534.871436" y="65.936" width="364.750281" height="248.178244"/>
  </clipPath>
 </defs>
</svg>
