<?xml version="1.0" encoding="utf-8" standalone="no"?>
<!DOCTYPE svg PUBLIC "-//W3C//DTD SVG 1.1//EN"
  "http://www.w3.org/Graphics/SVG/1.1/DTD/svg11.dtd">
<svg xmlns:xlink="http://www.w3.org/1999/xlink" width="927.307854pt" height="399.444269pt" viewBox="0 0 927.307854 399.444269" xmlns="http://www.w3.org/2000/svg" version="1.1">
 <metadata>
  <rdf:RDF xmlns:dc="http://purl.org/dc/elements/1.1/" xmlns:cc="http://creativecommons.org/ns#" xmlns:rdf="http://www.w3.org/1999/02/22-rdf-syntax-ns#">
   <cc:Work>
    <dc:type rdf:resource="http://purl.org/dc/dcmitype/StillImage"/>
    <dc:date>2026-06-26T18:02:22.264049</dc:date>
    <dc:format>image/svg+xml</dc:format>
    <dc:creator>
     <cc:Agent>
      <dc:title>Matplotlib v3.10.8, https://matplotlib.org/</dc:title>
     </cc:Agent>
    </dc:creator>
   </cc:Work>
  </rdf:RDF>
 </metadata>
 <defs>
  <style type="text/css">*{stroke-linejoin: round; stroke-linecap: butt}</style>
 </defs>
 <g id="figure_1">
  <g id="patch_1">
   <path d="M 0 399.444269
L 927.307854 399.444269
L 927.307854 -0
L 0 -0
z
" style="fill: #ffffff"/>
  </g>
  <g id="axes_1">
   <g id="patch_2">
    <path d="M 34.240625 315.468779
L 400.333625 315.468779
L 400.333625 66.336
L 34.240625 66.336
z
" style="fill: #ffffff"/>
   </g>
   <g id="matplotlib.axis_1">
    <g id="xtick_1">
     <g id="line2d_1">
      <defs>
       <path id="mab0ca7d0a2" d="M 0 0
L 0 3.5
" style="stroke: #000000; stroke-width: 0.8"/>
      </defs>
      <g>
       <use xlink:href="#mab0ca7d0a2" x="70.458382" y="315.468779" style="stroke: #000000; stroke-width: 0.8"/>
      </g>
     </g>
     <g id="text_1">
      <!-- methodology -->
      <g transform="translate(43.301856 362) rotate(-30) scale(0.1 -0.1)">
       <defs>
        <path id="DejaVuSans-6d" d="M 3328 2828
Q 3544 3216 3844 3400
Q 4144 3584 4550 3584
Q 5097 3584 5394 3201
Q 5691 2819 5691 2113
L 5691 0
L 5113 0
L 5113 2094
Q 5113 2597 4934 2840
Q 4756 3084 4391 3084
Q 3944 3084 3684 2787
Q 3425 2491 3425 1978
L 3425 0
L 2847 0
L 2847 2094
Q 2847 2600 2669 2842
Q 2491 3084 2119 3084
Q 1678 3084 1418 2786
Q 1159 2488 1159 1978
L 1159 0
L 581 0
L 581 3500
L 1159 3500
L 1159 2956
Q 1356 3278 1631 3431
Q 1906 3584 2284 3584
Q 2666 3584 2933 3390
Q 3200 3197 3328 2828
z
" transform="scale(0.015625)"/>
        <path id="DejaVuSans-65" d="M 3597 1894
L 3597 1613
L 953 1613
Q 991 1019 1311 708
Q 1631 397 2203 397
Q 2534 397 2845 478
Q 3156 559 3463 722
L 3463 178
Q 3153 47 2828 -22
Q 2503 -91 2169 -91
Q 1331 -91 842 396
Q 353 884 353 1716
Q 353 2575 817 3079
Q 1281 3584 2069 3584
Q 2775 3584 3186 3129
Q 3597 2675 3597 1894
z
M 3022 2063
Q 3016 2534 2758 2815
Q 2500 3097 2075 3097
Q 1594 3097 1305 2825
Q 1016 2553 972 2059
L 3022 2063
z
" transform="scale(0.015625)"/>
        <path id="DejaVuSans-74" d="M 1172 4494
L 1172 3500
L 2356 3500
L 2356 3053
L 1172 3053
L 1172 1153
Q 1172 725 1289 603
Q 1406 481 1766 481
L 2356 481
L 2356 0
L 1766 0
Q 1100 0 847 248
Q 594 497 594 1153
L 594 3053
L 172 3053
L 172 3500
L 594 3500
L 594 4494
L 1172 4494
z
" transform="scale(0.015625)"/>
        <path id="DejaVuSans-68" d="M 3513 2113
L 3513 0
L 2938 0
L 2938 2094
Q 2938 2591 2744 2837
Q 2550 3084 2163 3084
Q 1697 3084 1428 2787
Q 1159 2491 1159 1978
L 1159 0
L 581 0
L 581 4863
L 1159 4863
L 1159 2956
Q 1366 3272 1645 3428
Q 1925 3584 2291 3584
Q 2894 3584 3203 3211
Q 3513 2838 3513 2113
z
" transform="scale(0.015625)"/>
        <path id="DejaVuSans-6f" d="M 1959 3097
Q 1497 3097 1228 2736
Q 959 2375 959 1747
Q 959 1119 1226 758
Q 1494 397 1959 397
Q 2419 397 2687 759
Q 2956 1122 2956 1747
Q 2956 2369 2687 2733
Q 2419 3097 1959 3097
z
M 1959 3584
Q 2709 3584 3137 3096
Q 3566 2609 3566 1747
Q 3566 888 3137 398
Q 2709 -91 1959 -91
Q 1206 -91 779 398
Q 353 888 353 1747
Q 353 2609 779 3096
Q 1206 3584 1959 3584
z
" transform="scale(0.015625)"/>
        <path id="DejaVuSans-64" d="M 2906 2969
L 2906 4863
L 3481 4863
L 3481 0
L 2906 0
L 2906 525
Q 2725 213 2448 61
Q 2172 -91 1784 -91
Q 1150 -91 751 415
Q 353 922 353 1747
Q 353 2572 751 3078
Q 1150 3584 1784 3584
Q 2172 3584 2448 3432
Q 2725 3281 2906 2969
z
M 947 1747
Q 947 1113 1208 752
Q 1469 391 1925 391
Q 2381 391 2643 752
Q 2906 1113 2906 1747
Q 2906 2381 2643 2742
Q 2381 3103 1925 3103
Q 1469 3103 1208 2742
Q 947 2381 947 1747
z
" transform="scale(0.015625)"/>
        <path id="DejaVuSans-6c" d="M 603 4863
L 1178 4863
L 1178 0
L 603 0
L 603 4863
z
" transform="scale(0.015625)"/>
        <path id="DejaVuSans-67" d="M 2906 1791
Q 2906 2416 2648 2759
Q 2391 3103 1925 3103
Q 1463 3103 1205 2759
Q 947 2416 947 1791
Q 947 1169 1205 825
Q 1463 481 1925 481
Q 2391 481 2648 825
Q 2906 1169 2906 1791
z
M 3481 434
Q 3481 -459 3084 -895
Q 2688 -1331 1869 -1331
Q 1566 -1331 1297 -1286
Q 1028 -1241 775 -1147
L 775 -588
Q 1028 -725 1275 -790
Q 1522 -856 1778 -856
Q 2344 -856 2625 -561
Q 2906 -266 2906 331
L 2906 616
Q 2728 306 2450 153
Q 2172 0 1784 0
Q 1141 0 747 490
Q 353 981 353 1791
Q 353 2603 747 3093
Q 1141 3584 1784 3584
Q 2172 3584 2450 3431
Q 2728 3278 2906 2969
L 2906 3500
L 3481 3500
L 3481 434
z
" transform="scale(0.015625)"/>
        <path id="DejaVuSans-79" d="M 2059 -325
Q 1816 -950 1584 -1140
Q 1353 -1331 966 -1331
L 506 -1331
L 506 -850
L 844 -850
Q 1081 -850 1212 -737
Q 1344 -625 1503 -206
L 1606 56
L 191 3500
L 800 3500
L 1894 763
L 2988 3500
L 3597 3500
L 2059 -325
z
" transform="scale(0.015625)"/>
       </defs>
       <use xlink:href="#DejaVuSans-6d"/>
       <use xlink:href="#DejaVuSans-65" transform="translate(97.412109 0)"/>
       <use xlink:href="#DejaVuSans-74" transform="translate(158.935547 0)"/>
       <use xlink:href="#DejaVuSans-68" transform="translate(198.144531 0)"/>
       <use xlink:href="#DejaVuSans-6f" transform="translate(261.523438 0)"/>
       <use xlink:href="#DejaVuSans-64" transform="translate(322.705078 0)"/>
       <use xlink:href="#DejaVuSans-6f" transform="translate(386.181641 0)"/>
       <use xlink:href="#DejaVuSans-6c" transform="translate(447.363281 0)"/>
       <use xlink:href="#DejaVuSans-6f" transform="translate(475.146484 0)"/>
       <use xlink:href="#DejaVuSans-67" transform="translate(536.328125 0)"/>
       <use xlink:href="#DejaVuSans-79" transform="translate(599.804688 0)"/>
      </g>
     </g>
    </g>
    <g id="xtick_2">
     <g id="line2d_2">
      <g>
       <use xlink:href="#mab0ca7d0a2" x="119.401296" y="315.468779" style="stroke: #000000; stroke-width: 0.8"/>
      </g>
     </g>
     <g id="text_2">
      <!-- results -->
      <g transform="translate(106.277764 345.796094) rotate(-30) scale(0.1 -0.1)">
       <defs>
        <path id="DejaVuSans-72" d="M 2631 2963
Q 2534 3019 2420 3045
Q 2306 3072 2169 3072
Q 1681 3072 1420 2755
Q 1159 2438 1159 1844
L 1159 0
L 581 0
L 581 3500
L 1159 3500
L 1159 2956
Q 1341 3275 1631 3429
Q 1922 3584 2338 3584
Q 2397 3584 2469 3576
Q 2541 3569 2628 3553
L 2631 2963
z
" transform="scale(0.015625)"/>
        <path id="DejaVuSans-73" d="M 2834 3397
L 2834 2853
Q 2591 2978 2328 3040
Q 2066 3103 1784 3103
Q 1356 3103 1142 2972
Q 928 2841 928 2578
Q 928 2378 1081 2264
Q 1234 2150 1697 2047
L 1894 2003
Q 2506 1872 2764 1633
Q 3022 1394 3022 966
Q 3022 478 2636 193
Q 2250 -91 1575 -91
Q 1294 -91 989 -36
Q 684 19 347 128
L 347 722
Q 666 556 975 473
Q 1284 391 1588 391
Q 1994 391 2212 530
Q 2431 669 2431 922
Q 2431 1156 2273 1281
Q 2116 1406 1581 1522
L 1381 1569
Q 847 1681 609 1914
Q 372 2147 372 2553
Q 372 3047 722 3315
Q 1072 3584 1716 3584
Q 2034 3584 2315 3537
Q 2597 3491 2834 3397
z
" transform="scale(0.015625)"/>
        <path id="DejaVuSans-75" d="M 544 1381
L 544 3500
L 1119 3500
L 1119 1403
Q 1119 906 1312 657
Q 1506 409 1894 409
Q 2359 409 2629 706
Q 2900 1003 2900 1516
L 2900 3500
L 3475 3500
L 3475 0
L 2900 0
L 2900 538
Q 2691 219 2414 64
Q 2138 -91 1772 -91
Q 1169 -91 856 284
Q 544 659 544 1381
z
M 1991 3584
L 1991 3584
z
" transform="scale(0.015625)"/>
       </defs>
       <use xlink:href="#DejaVuSans-72"/>
       <use xlink:href="#DejaVuSans-65" transform="translate(38.863281 0)"/>
       <use xlink:href="#DejaVuSans-73" transform="translate(100.386719 0)"/>
       <use xlink:href="#DejaVuSans-75" transform="translate(152.486328 0)"/>
       <use xlink:href="#DejaVuSans-6c" transform="translate(215.865234 0)"/>
       <use xlink:href="#DejaVuSans-74" transform="translate(243.648438 0)"/>
       <use xlink:href="#DejaVuSans-73" transform="translate(282.857422 0)"/>
      </g>
     </g>
    </g>
    <g id="xtick_3">
     <g id="line2d_3">
      <g>
       <use xlink:href="#mab0ca7d0a2" x="168.344211" y="315.468779" style="stroke: #000000; stroke-width: 0.8"/>
      </g>
     </g>
     <g id="text_3">
      <!-- discussion -->
      <g transform="translate(147.283015 354.961719) rotate(-30) scale(0.1 -0.1)">
       <defs>
        <path id="DejaVuSans-69" d="M 603 3500
L 1178 3500
L 1178 0
L 603 0
L 603 3500
z
M 603 4863
L 1178 4863
L 1178 4134
L 603 4134
L 603 4863
z
" transform="scale(0.015625)"/>
        <path id="DejaVuSans-63" d="M 3122 3366
L 3122 2828
Q 2878 2963 2633 3030
Q 2388 3097 2138 3097
Q 1578 3097 1268 2742
Q 959 2388 959 1747
Q 959 1106 1268 751
Q 1578 397 2138 397
Q 2388 397 2633 464
Q 2878 531 3122 666
L 3122 134
Q 2881 22 2623 -34
Q 2366 -91 2075 -91
Q 1284 -91 818 406
Q 353 903 353 1747
Q 353 2603 823 3093
Q 1294 3584 2113 3584
Q 2378 3584 2631 3529
Q 2884 3475 3122 3366
z
" transform="scale(0.015625)"/>
        <path id="DejaVuSans-6e" d="M 3513 2113
L 3513 0
L 2938 0
L 2938 2094
Q 2938 2591 2744 2837
Q 2550 3084 2163 3084
Q 1697 3084 1428 2787
Q 1159 2491 1159 1978
L 1159 0
L 581 0
L 581 3500
L 1159 3500
L 1159 2956
Q 1366 3272 1645 3428
Q 1925 3584 2291 3584
Q 2894 3584 3203 3211
Q 3513 2838 3513 2113
z
" transform="scale(0.015625)"/>
       </defs>
       <use xlink:href="#DejaVuSans-64"/>
       <use xlink:href="#DejaVuSans-69" transform="translate(63.476562 0)"/>
       <use xlink:href="#DejaVuSans-73" transform="translate(91.259766 0)"/>
       <use xlink:href="#DejaVuSans-63" transform="translate(143.359375 0)"/>
       <use xlink:href="#DejaVuSans-75" transform="translate(198.339844 0)"/>
       <use xlink:href="#DejaVuSans-73" transform="translate(261.71875 0)"/>
       <use xlink:href="#DejaVuSans-73" transform="translate(313.818359 0)"/>
       <use xlink:href="#DejaVuSans-69" transform="translate(365.917969 0)"/>
       <use xlink:href="#DejaVuSans-6f" transform="translate(393.701172 0)"/>
       <use xlink:href="#DejaVuSans-6e" transform="translate(454.882812 0)"/>
      </g>
     </g>
    </g>
    <g id="xtick_4">
     <g id="line2d_4">
      <g>
       <use xlink:href="#mab0ca7d0a2" x="217.287125" y="315.468779" style="stroke: #000000; stroke-width: 0.8"/>
      </g>
     </g>
     <g id="text_4">
      <!-- authoring_contract -->
      <g transform="translate(177.482725 376.524219) rotate(-30) scale(0.1 -0.1)">
       <defs>
        <path id="DejaVuSans-61" d="M 2194 1759
Q 1497 1759 1228 1600
Q 959 1441 959 1056
Q 959 750 1161 570
Q 1363 391 1709 391
Q 2188 391 2477 730
Q 2766 1069 2766 1631
L 2766 1759
L 2194 1759
z
M 3341 1997
L 3341 0
L 2766 0
L 2766 531
Q 2569 213 2275 61
Q 1981 -91 1556 -91
Q 1019 -91 701 211
Q 384 513 384 1019
Q 384 1609 779 1909
Q 1175 2209 1959 2209
L 2766 2209
L 2766 2266
Q 2766 2663 2505 2880
Q 2244 3097 1772 3097
Q 1472 3097 1187 3025
Q 903 2953 641 2809
L 641 3341
Q 956 3463 1253 3523
Q 1550 3584 1831 3584
Q 2591 3584 2966 3190
Q 3341 2797 3341 1997
z
" transform="scale(0.015625)"/>
        <path id="DejaVuSans-5f" d="M 3263 -1063
L 3263 -1509
L -63 -1509
L -63 -1063
L 3263 -1063
z
" transform="scale(0.015625)"/>
       </defs>
       <use xlink:href="#DejaVuSans-61"/>
       <use xlink:href="#DejaVuSans-75" transform="translate(61.279297 0)"/>
       <use xlink:href="#DejaVuSans-74" transform="translate(124.658203 0)"/>
       <use xlink:href="#DejaVuSans-68" transform="translate(163.867188 0)"/>
       <use xlink:href="#DejaVuSans-6f" transform="translate(227.246094 0)"/>
       <use xlink:href="#DejaVuSans-72" transform="translate(288.427734 0)"/>
       <use xlink:href="#DejaVuSans-69" transform="translate(329.541016 0)"/>
       <use xlink:href="#DejaVuSans-6e" transform="translate(357.324219 0)"/>
       <use xlink:href="#DejaVuSans-67" transform="translate(420.703125 0)"/>
       <use xlink:href="#DejaVuSans-5f" transform="translate(484.179688 0)"/>
       <use xlink:href="#DejaVuSans-63" transform="translate(534.179688 0)"/>
       <use xlink:href="#DejaVuSans-6f" transform="translate(589.160156 0)"/>
       <use xlink:href="#DejaVuSans-6e" transform="translate(650.341797 0)"/>
       <use xlink:href="#DejaVuSans-74" transform="translate(713.720703 0)"/>
       <use xlink:href="#DejaVuSans-72" transform="translate(752.929688 0)"/>
       <use xlink:href="#DejaVuSans-61" transform="translate(794.042969 0)"/>
       <use xlink:href="#DejaVuSans-63" transform="translate(855.322266 0)"/>
       <use xlink:href="#DejaVuSans-74" transform="translate(910.302734 0)"/>
      </g>
     </g>
    </g>
    <g id="xtick_5">
     <g id="line2d_5">
      <g>
       <use xlink:href="#mab0ca7d0a2" x="266.230039" y="315.468779" style="stroke: #000000; stroke-width: 0.8"/>
      </g>
     </g>
     <g id="text_5">
      <!-- evaluation -->
      <g transform="translate(244.833935 355.348438) rotate(-30) scale(0.1 -0.1)">
       <defs>
        <path id="DejaVuSans-76" d="M 191 3500
L 800 3500
L 1894 563
L 2988 3500
L 3597 3500
L 2284 0
L 1503 0
L 191 3500
z
" transform="scale(0.015625)"/>
       </defs>
       <use xlink:href="#DejaVuSans-65"/>
       <use xlink:href="#DejaVuSans-76" transform="translate(61.523438 0)"/>
       <use xlink:href="#DejaVuSans-61" transform="translate(120.703125 0)"/>
       <use xlink:href="#DejaVuSans-6c" transform="translate(181.982422 0)"/>
       <use xlink:href="#DejaVuSans-75" transform="translate(209.765625 0)"/>
       <use xlink:href="#DejaVuSans-61" transform="translate(273.144531 0)"/>
       <use xlink:href="#DejaVuSans-74" transform="translate(334.423828 0)"/>
       <use xlink:href="#DejaVuSans-69" transform="translate(373.632812 0)"/>
       <use xlink:href="#DejaVuSans-6f" transform="translate(401.416016 0)"/>
       <use xlink:href="#DejaVuSans-6e" transform="translate(462.597656 0)"/>
      </g>
     </g>
    </g>
    <g id="xtick_6">
     <g id="line2d_6">
      <g>
       <use xlink:href="#mab0ca7d0a2" x="315.172954" y="315.468779" style="stroke: #000000; stroke-width: 0.8"/>
      </g>
     </g>
     <g id="text_6">
      <!-- introduction -->
      <g transform="translate(290.40747 359.239063) rotate(-30) scale(0.1 -0.1)">
       <use xlink:href="#DejaVuSans-69"/>
       <use xlink:href="#DejaVuSans-6e" transform="translate(27.783203 0)"/>
       <use xlink:href="#DejaVuSans-74" transform="translate(91.162109 0)"/>
       <use xlink:href="#DejaVuSans-72" transform="translate(130.371094 0)"/>
       <use xlink:href="#DejaVuSans-6f" transform="translate(169.234375 0)"/>
       <use xlink:href="#DejaVuSans-64" transform="translate(230.416016 0)"/>
       <use xlink:href="#DejaVuSans-75" transform="translate(293.892578 0)"/>
       <use xlink:href="#DejaVuSans-63" transform="translate(357.271484 0)"/>
       <use xlink:href="#DejaVuSans-74" transform="translate(412.251953 0)"/>
       <use xlink:href="#DejaVuSans-69" transform="translate(451.460938 0)"/>
       <use xlink:href="#DejaVuSans-6f" transform="translate(479.244141 0)"/>
       <use xlink:href="#DejaVuSans-6e" transform="translate(540.425781 0)"/>
      </g>
     </g>
    </g>
    <g id="xtick_7">
     <g id="line2d_7">
      <g>
       <use xlink:href="#mab0ca7d0a2" x="364.115868" y="315.468779" style="stroke: #000000; stroke-width: 0.8"/>
      </g>
     </g>
     <g id="text_7">
      <!-- reproducibility -->
      <g transform="translate(334.372091 364.9875) rotate(-30) scale(0.1 -0.1)">
       <defs>
        <path id="DejaVuSans-70" d="M 1159 525
L 1159 -1331
L 581 -1331
L 581 3500
L 1159 3500
L 1159 2969
Q 1341 3281 1617 3432
Q 1894 3584 2278 3584
Q 2916 3584 3314 3078
Q 3713 2572 3713 1747
Q 3713 922 3314 415
Q 2916 -91 2278 -91
Q 1894 -91 1617 61
Q 1341 213 1159 525
z
M 3116 1747
Q 3116 2381 2855 2742
Q 2594 3103 2138 3103
Q 1681 3103 1420 2742
Q 1159 2381 1159 1747
Q 1159 1113 1420 752
Q 1681 391 2138 391
Q 2594 391 2855 752
Q 3116 1113 3116 1747
z
" transform="scale(0.015625)"/>
        <path id="DejaVuSans-62" d="M 3116 1747
Q 3116 2381 2855 2742
Q 2594 3103 2138 3103
Q 1681 3103 1420 2742
Q 1159 2381 1159 1747
Q 1159 1113 1420 752
Q 1681 391 2138 391
Q 2594 391 2855 752
Q 3116 1113 3116 1747
z
M 1159 2969
Q 1341 3281 1617 3432
Q 1894 3584 2278 3584
Q 2916 3584 3314 3078
Q 3713 2572 3713 1747
Q 3713 922 3314 415
Q 2916 -91 2278 -91
Q 1894 -91 1617 61
Q 1341 213 1159 525
L 1159 0
L 581 0
L 581 4863
L 1159 4863
L 1159 2969
z
" transform="scale(0.015625)"/>
       </defs>
       <use xlink:href="#DejaVuSans-72"/>
       <use xlink:href="#DejaVuSans-65" transform="translate(38.863281 0)"/>
       <use xlink:href="#DejaVuSans-70" transform="translate(100.386719 0)"/>
       <use xlink:href="#DejaVuSans-72" transform="translate(163.863281 0)"/>
       <use xlink:href="#DejaVuSans-6f" transform="translate(202.726562 0)"/>
       <use xlink:href="#DejaVuSans-64" transform="translate(263.908203 0)"/>
       <use xlink:href="#DejaVuSans-75" transform="translate(327.384766 0)"/>
       <use xlink:href="#DejaVuSans-63" transform="translate(390.763672 0)"/>
       <use xlink:href="#DejaVuSans-69" transform="translate(445.744141 0)"/>
       <use xlink:href="#DejaVuSans-62" transform="translate(473.527344 0)"/>
       <use xlink:href="#DejaVuSans-69" transform="translate(537.003906 0)"/>
       <use xlink:href="#DejaVuSans-6c" transform="translate(564.787109 0)"/>
       <use xlink:href="#DejaVuSans-69" transform="translate(592.570312 0)"/>
       <use xlink:href="#DejaVuSans-74" transform="translate(620.353516 0)"/>
       <use xlink:href="#DejaVuSans-79" transform="translate(659.5625 0)"/>
      </g>
     </g>
    </g>
    <g id="text_8">
     <!-- Section -->
     <g transform="translate(198.709781 390.164582) scale(0.1 -0.1)">
      <defs>
       <path id="DejaVuSans-53" d="M 3425 4513
L 3425 3897
Q 3066 4069 2747 4153
Q 2428 4238 2131 4238
Q 1616 4238 1336 4038
Q 1056 3838 1056 3469
Q 1056 3159 1242 3001
Q 1428 2844 1947 2747
L 2328 2669
Q 3034 2534 3370 2195
Q 3706 1856 3706 1288
Q 3706 609 3251 259
Q 2797 -91 1919 -91
Q 1588 -91 1214 -16
Q 841 59 441 206
L 441 856
Q 825 641 1194 531
Q 1563 422 1919 422
Q 2459 422 2753 634
Q 3047 847 3047 1241
Q 3047 1584 2836 1778
Q 2625 1972 2144 2069
L 1759 2144
Q 1053 2284 737 2584
Q 422 2884 422 3419
Q 422 4038 858 4394
Q 1294 4750 2059 4750
Q 2388 4750 2728 4690
Q 3069 4631 3425 4513
z
" transform="scale(0.015625)"/>
      </defs>
      <use xlink:href="#DejaVuSans-53"/>
      <use xlink:href="#DejaVuSans-65" transform="translate(63.476562 0)"/>
      <use xlink:href="#DejaVuSans-63" transform="translate(125 0)"/>
      <use xlink:href="#DejaVuSans-74" transform="translate(179.980469 0)"/>
      <use xlink:href="#DejaVuSans-69" transform="translate(219.189453 0)"/>
      <use xlink:href="#DejaVuSans-6f" transform="translate(246.972656 0)"/>
      <use xlink:href="#DejaVuSans-6e" transform="translate(308.154297 0)"/>
     </g>
    </g>
   </g>
   <g id="matplotlib.axis_2">
    <g id="ytick_1">
     <g id="line2d_8">
      <path d="M 34.240625 315.468779
L 400.333625 315.468779
" clip-path="url(#pd2df743401)" style="fill: none; stroke: #b0b0b0; stroke-opacity: 0.22; stroke-width: 0.8; stroke-linecap: square"/>
     </g>
     <g id="line2d_9">
      <defs>
       <path id="mec18ba6a98" d="M 0 0
L -3.5 0
" style="stroke: #000000; stroke-width: 0.8"/>
      </defs>
      <g>
       <use xlink:href="#mec18ba6a98" x="34.240625" y="315.468779" style="stroke: #000000; stroke-width: 0.8"/>
      </g>
     </g>
     <g id="text_9">
      <!-- 0 -->
      <g transform="translate(20.878125 319.267998) scale(0.1 -0.1)">
       <defs>
        <path id="DejaVuSans-30" d="M 2034 4250
Q 1547 4250 1301 3770
Q 1056 3291 1056 2328
Q 1056 1369 1301 889
Q 1547 409 2034 409
Q 2525 409 2770 889
Q 3016 1369 3016 2328
Q 3016 3291 2770 3770
Q 2525 4250 2034 4250
z
M 2034 4750
Q 2819 4750 3233 4129
Q 3647 3509 3647 2328
Q 3647 1150 3233 529
Q 2819 -91 2034 -91
Q 1250 -91 836 529
Q 422 1150 422 2328
Q 422 3509 836 4129
Q 1250 4750 2034 4750
z
" transform="scale(0.015625)"/>
       </defs>
       <use xlink:href="#DejaVuSans-30"/>
      </g>
     </g>
    </g>
    <g id="ytick_2">
     <g id="line2d_10">
      <path d="M 34.240625 285.810115
L 400.333625 285.810115
" clip-path="url(#pd2df743401)" style="fill: none; stroke: #b0b0b0; stroke-opacity: 0.22; stroke-width: 0.8; stroke-linecap: square"/>
     </g>
     <g id="line2d_11">
      <g>
       <use xlink:href="#mec18ba6a98" x="34.240625" y="285.810115" style="stroke: #000000; stroke-width: 0.8"/>
      </g>
     </g>
     <g id="text_10">
      <!-- 1 -->
      <g transform="translate(20.878125 289.609333) scale(0.1 -0.1)">
       <defs>
        <path id="DejaVuSans-31" d="M 794 531
L 1825 531
L 1825 4091
L 703 3866
L 703 4441
L 1819 4666
L 2450 4666
L 2450 531
L 3481 531
L 3481 0
L 794 0
L 794 531
z
" transform="scale(0.015625)"/>
       </defs>
       <use xlink:href="#DejaVuSans-31"/>
      </g>
     </g>
    </g>
    <g id="ytick_3">
     <g id="line2d_12">
      <path d="M 34.240625 256.151451
L 400.333625 256.151451
" clip-path="url(#pd2df743401)" style="fill: none; stroke: #b0b0b0; stroke-opacity: 0.22; stroke-width: 0.8; stroke-linecap: square"/>
     </g>
     <g id="line2d_13">
      <g>
       <use xlink:href="#mec18ba6a98" x="34.240625" y="256.151451" style="stroke: #000000; stroke-width: 0.8"/>
      </g>
     </g>
     <g id="text_11">
      <!-- 2 -->
      <g transform="translate(20.878125 259.950669) scale(0.1 -0.1)">
       <defs>
        <path id="DejaVuSans-32" d="M 1228 531
L 3431 531
L 3431 0
L 469 0
L 469 531
Q 828 903 1448 1529
Q 2069 2156 2228 2338
Q 2531 2678 2651 2914
Q 2772 3150 2772 3378
Q 2772 3750 2511 3984
Q 2250 4219 1831 4219
Q 1534 4219 1204 4116
Q 875 4013 500 3803
L 500 4441
Q 881 4594 1212 4672
Q 1544 4750 1819 4750
Q 2544 4750 2975 4387
Q 3406 4025 3406 3419
Q 3406 3131 3298 2873
Q 3191 2616 2906 2266
Q 2828 2175 2409 1742
Q 1991 1309 1228 531
z
" transform="scale(0.015625)"/>
       </defs>
       <use xlink:href="#DejaVuSans-32"/>
      </g>
     </g>
    </g>
    <g id="ytick_4">
     <g id="line2d_14">
      <path d="M 34.240625 226.492786
L 400.333625 226.492786
" clip-path="url(#pd2df743401)" style="fill: none; stroke: #b0b0b0; stroke-opacity: 0.22; stroke-width: 0.8; stroke-linecap: square"/>
     </g>
     <g id="line2d_15">
      <g>
       <use xlink:href="#mec18ba6a98" x="34.240625" y="226.492786" style="stroke: #000000; stroke-width: 0.8"/>
      </g>
     </g>
     <g id="text_12">
      <!-- 3 -->
      <g transform="translate(20.878125 230.292005) scale(0.1 -0.1)">
       <defs>
        <path id="DejaVuSans-33" d="M 2597 2516
Q 3050 2419 3304 2112
Q 3559 1806 3559 1356
Q 3559 666 3084 287
Q 2609 -91 1734 -91
Q 1441 -91 1130 -33
Q 819 25 488 141
L 488 750
Q 750 597 1062 519
Q 1375 441 1716 441
Q 2309 441 2620 675
Q 2931 909 2931 1356
Q 2931 1769 2642 2001
Q 2353 2234 1838 2234
L 1294 2234
L 1294 2753
L 1863 2753
Q 2328 2753 2575 2939
Q 2822 3125 2822 3475
Q 2822 3834 2567 4026
Q 2313 4219 1838 4219
Q 1578 4219 1281 4162
Q 984 4106 628 3988
L 628 4550
Q 988 4650 1302 4700
Q 1616 4750 1894 4750
Q 2613 4750 3031 4423
Q 3450 4097 3450 3541
Q 3450 3153 3228 2886
Q 3006 2619 2597 2516
z
" transform="scale(0.015625)"/>
       </defs>
       <use xlink:href="#DejaVuSans-33"/>
      </g>
     </g>
    </g>
    <g id="ytick_5">
     <g id="line2d_16">
      <path d="M 34.240625 196.834122
L 400.333625 196.834122
" clip-path="url(#pd2df743401)" style="fill: none; stroke: #b0b0b0; stroke-opacity: 0.22; stroke-width: 0.8; stroke-linecap: square"/>
     </g>
     <g id="line2d_17">
      <g>
       <use xlink:href="#mec18ba6a98" x="34.240625" y="196.834122" style="stroke: #000000; stroke-width: 0.8"/>
      </g>
     </g>
     <g id="text_13">
      <!-- 4 -->
      <g transform="translate(20.878125 200.633341) scale(0.1 -0.1)">
       <defs>
        <path id="DejaVuSans-34" d="M 2419 4116
L 825 1625
L 2419 1625
L 2419 4116
z
M 2253 4666
L 3047 4666
L 3047 1625
L 3713 1625
L 3713 1100
L 3047 1100
L 3047 0
L 2419 0
L 2419 1100
L 313 1100
L 313 1709
L 2253 4666
z
" transform="scale(0.015625)"/>
       </defs>
       <use xlink:href="#DejaVuSans-34"/>
      </g>
     </g>
    </g>
    <g id="ytick_6">
     <g id="line2d_18">
      <path d="M 34.240625 167.175458
L 400.333625 167.175458
" clip-path="url(#pd2df743401)" style="fill: none; stroke: #b0b0b0; stroke-opacity: 0.22; stroke-width: 0.8; stroke-linecap: square"/>
     </g>
     <g id="line2d_19">
      <g>
       <use xlink:href="#mec18ba6a98" x="34.240625" y="167.175458" style="stroke: #000000; stroke-width: 0.8"/>
      </g>
     </g>
     <g id="text_14">
      <!-- 5 -->
      <g transform="translate(20.878125 170.974677) scale(0.1 -0.1)">
       <defs>
        <path id="DejaVuSans-35" d="M 691 4666
L 3169 4666
L 3169 4134
L 1269 4134
L 1269 2991
Q 1406 3038 1543 3061
Q 1681 3084 1819 3084
Q 2600 3084 3056 2656
Q 3513 2228 3513 1497
Q 3513 744 3044 326
Q 2575 -91 1722 -91
Q 1428 -91 1123 -41
Q 819 9 494 109
L 494 744
Q 775 591 1075 516
Q 1375 441 1709 441
Q 2250 441 2565 725
Q 2881 1009 2881 1497
Q 2881 1984 2565 2268
Q 2250 2553 1709 2553
Q 1456 2553 1204 2497
Q 953 2441 691 2322
L 691 4666
z
" transform="scale(0.015625)"/>
       </defs>
       <use xlink:href="#DejaVuSans-35"/>
      </g>
     </g>
    </g>
    <g id="ytick_7">
     <g id="line2d_20">
      <path d="M 34.240625 137.516794
L 400.333625 137.516794
" clip-path="url(#pd2df743401)" style="fill: none; stroke: #b0b0b0; stroke-opacity: 0.22; stroke-width: 0.8; stroke-linecap: square"/>
     </g>
     <g id="line2d_21">
      <g>
       <use xlink:href="#mec18ba6a98" x="34.240625" y="137.516794" style="stroke: #000000; stroke-width: 0.8"/>
      </g>
     </g>
     <g id="text_15">
      <!-- 6 -->
      <g transform="translate(20.878125 141.316013) scale(0.1 -0.1)">
       <defs>
        <path id="DejaVuSans-36" d="M 2113 2584
Q 1688 2584 1439 2293
Q 1191 2003 1191 1497
Q 1191 994 1439 701
Q 1688 409 2113 409
Q 2538 409 2786 701
Q 3034 994 3034 1497
Q 3034 2003 2786 2293
Q 2538 2584 2113 2584
z
M 3366 4563
L 3366 3988
Q 3128 4100 2886 4159
Q 2644 4219 2406 4219
Q 1781 4219 1451 3797
Q 1122 3375 1075 2522
Q 1259 2794 1537 2939
Q 1816 3084 2150 3084
Q 2853 3084 3261 2657
Q 3669 2231 3669 1497
Q 3669 778 3244 343
Q 2819 -91 2113 -91
Q 1303 -91 875 529
Q 447 1150 447 2328
Q 447 3434 972 4092
Q 1497 4750 2381 4750
Q 2619 4750 2861 4703
Q 3103 4656 3366 4563
z
" transform="scale(0.015625)"/>
       </defs>
       <use xlink:href="#DejaVuSans-36"/>
      </g>
     </g>
    </g>
    <g id="ytick_8">
     <g id="line2d_22">
      <path d="M 34.240625 107.85813
L 400.333625 107.85813
" clip-path="url(#pd2df743401)" style="fill: none; stroke: #b0b0b0; stroke-opacity: 0.22; stroke-width: 0.8; stroke-linecap: square"/>
     </g>
     <g id="line2d_23">
      <g>
       <use xlink:href="#mec18ba6a98" x="34.240625" y="107.85813" style="stroke: #000000; stroke-width: 0.8"/>
      </g>
     </g>
     <g id="text_16">
      <!-- 7 -->
      <g transform="translate(20.878125 111.657349) scale(0.1 -0.1)">
       <defs>
        <path id="DejaVuSans-37" d="M 525 4666
L 3525 4666
L 3525 4397
L 1831 0
L 1172 0
L 2766 4134
L 525 4134
L 525 4666
z
" transform="scale(0.015625)"/>
       </defs>
       <use xlink:href="#DejaVuSans-37"/>
      </g>
     </g>
    </g>
    <g id="ytick_9">
     <g id="line2d_24">
      <path d="M 34.240625 78.199466
L 400.333625 78.199466
" clip-path="url(#pd2df743401)" style="fill: none; stroke: #b0b0b0; stroke-opacity: 0.22; stroke-width: 0.8; stroke-linecap: square"/>
     </g>
     <g id="line2d_25">
      <g>
       <use xlink:href="#mec18ba6a98" x="34.240625" y="78.199466" style="stroke: #000000; stroke-width: 0.8"/>
      </g>
     </g>
     <g id="text_17">
      <!-- 8 -->
      <g transform="translate(20.878125 81.998684) scale(0.1 -0.1)">
       <defs>
        <path id="DejaVuSans-38" d="M 2034 2216
Q 1584 2216 1326 1975
Q 1069 1734 1069 1313
Q 1069 891 1326 650
Q 1584 409 2034 409
Q 2484 409 2743 651
Q 3003 894 3003 1313
Q 3003 1734 2745 1975
Q 2488 2216 2034 2216
z
M 1403 2484
Q 997 2584 770 2862
Q 544 3141 544 3541
Q 544 4100 942 4425
Q 1341 4750 2034 4750
Q 2731 4750 3128 4425
Q 3525 4100 3525 3541
Q 3525 3141 3298 2862
Q 3072 2584 2669 2484
Q 3125 2378 3379 2068
Q 3634 1759 3634 1313
Q 3634 634 3220 271
Q 2806 -91 2034 -91
Q 1263 -91 848 271
Q 434 634 434 1313
Q 434 1759 690 2068
Q 947 2378 1403 2484
z
M 1172 3481
Q 1172 3119 1398 2916
Q 1625 2713 2034 2713
Q 2441 2713 2670 2916
Q 2900 3119 2900 3481
Q 2900 3844 2670 4047
Q 2441 4250 2034 4250
Q 1625 4250 1398 4047
Q 1172 3844 1172 3481
z
" transform="scale(0.015625)"/>
       </defs>
       <use xlink:href="#DejaVuSans-38"/>
      </g>
     </g>
    </g>
    <g id="text_18">
     <!-- Token Count -->
     <g transform="translate(14.798438 221.562546) rotate(-90) scale(0.1 -0.1)">
      <defs>
       <path id="DejaVuSans-54" d="M -19 4666
L 3928 4666
L 3928 4134
L 2272 4134
L 2272 0
L 1638 0
L 1638 4134
L -19 4134
L -19 4666
z
" transform="scale(0.015625)"/>
       <path id="DejaVuSans-6b" d="M 581 4863
L 1159 4863
L 1159 1991
L 2875 3500
L 3609 3500
L 1753 1863
L 3688 0
L 2938 0
L 1159 1709
L 1159 0
L 581 0
L 581 4863
z
" transform="scale(0.015625)"/>
       <path id="DejaVuSans-20" transform="scale(0.015625)"/>
       <path id="DejaVuSans-43" d="M 4122 4306
L 4122 3641
Q 3803 3938 3442 4084
Q 3081 4231 2675 4231
Q 1875 4231 1450 3742
Q 1025 3253 1025 2328
Q 1025 1406 1450 917
Q 1875 428 2675 428
Q 3081 428 3442 575
Q 3803 722 4122 1019
L 4122 359
Q 3791 134 3420 21
Q 3050 -91 2638 -91
Q 1578 -91 968 557
Q 359 1206 359 2328
Q 359 3453 968 4101
Q 1578 4750 2638 4750
Q 3056 4750 3426 4639
Q 3797 4528 4122 4306
z
" transform="scale(0.015625)"/>
      </defs>
      <use xlink:href="#DejaVuSans-54"/>
      <use xlink:href="#DejaVuSans-6f" transform="translate(44.083984 0)"/>
      <use xlink:href="#DejaVuSans-6b" transform="translate(105.265625 0)"/>
      <use xlink:href="#DejaVuSans-65" transform="translate(159.550781 0)"/>
      <use xlink:href="#DejaVuSans-6e" transform="translate(221.074219 0)"/>
      <use xlink:href="#DejaVuSans-20" transform="translate(284.453125 0)"/>
      <use xlink:href="#DejaVuSans-43" transform="translate(316.240234 0)"/>
      <use xlink:href="#DejaVuSans-6f" transform="translate(386.064453 0)"/>
      <use xlink:href="#DejaVuSans-75" transform="translate(447.246094 0)"/>
      <use xlink:href="#DejaVuSans-6e" transform="translate(510.625 0)"/>
      <use xlink:href="#DejaVuSans-74" transform="translate(574.003906 0)"/>
     </g>
    </g>
   </g>
   <g id="patch_3">
    <path d="M 50.881216 315.468779
L 90.035547 315.468779
L 90.035547 78.199466
L 50.881216 78.199466
z
" clip-path="url(#pd2df743401)" style="fill: #1e3a8a; opacity: 0.82"/>
   </g>
   <g id="patch_4">
    <path d="M 99.82413 315.468779
L 138.978462 315.468779
L 138.978462 167.175458
L 99.82413 167.175458
z
" clip-path="url(#pd2df743401)" style="fill: #1e3a8a; opacity: 0.82"/>
   </g>
   <g id="patch_5">
    <path d="M 148.767045 315.468779
L 187.921376 315.468779
L 187.921376 226.492786
L 148.767045 226.492786
z
" clip-path="url(#pd2df743401)" style="fill: #1e3a8a; opacity: 0.82"/>
   </g>
   <g id="patch_6">
    <path d="M 197.709959 315.468779
L 236.864291 315.468779
L 236.864291 256.151451
L 197.709959 256.151451
z
" clip-path="url(#pd2df743401)" style="fill: #1e3a8a; opacity: 0.82"/>
   </g>
   <g id="patch_7">
    <path d="M 246.652874 315.468779
L 285.807205 315.468779
L 285.807205 256.151451
L 246.652874 256.151451
z
" clip-path="url(#pd2df743401)" style="fill: #1e3a8a; opacity: 0.82"/>
   </g>
   <g id="patch_8">
    <path d="M 295.595788 315.468779
L 334.75012 315.468779
L 334.75012 256.151451
L 295.595788 256.151451
z
" clip-path="url(#pd2df743401)" style="fill: #1e3a8a; opacity: 0.82"/>
   </g>
   <g id="patch_9">
    <path d="M 344.538703 315.468779
L 383.693034 315.468779
L 383.693034 256.151451
L 344.538703 256.151451
z
" clip-path="url(#pd2df743401)" style="fill: #1e3a8a; opacity: 0.82"/>
   </g>
   <g id="patch_10">
    <path d="M 34.240625 315.468779
L 34.240625 66.336
" style="fill: none; stroke: #000000; stroke-width: 0.8; stroke-linejoin: miter; stroke-linecap: square"/>
   </g>
   <g id="patch_11">
    <path d="M 34.240625 315.468779
L 400.333625 315.468779
" style="fill: none; stroke: #000000; stroke-width: 0.8; stroke-linejoin: miter; stroke-linecap: square"/>
   </g>
   <g id="text_19">
    <!-- 8 -->
    <g transform="translate(67.913382 66.275349) scale(0.08 -0.08)">
     <use xlink:href="#DejaVuSans-38"/>
    </g>
    <!-- 33% -->
    <g transform="translate(61.567757 75.233599) scale(0.08 -0.08)">
     <defs>
      <path id="DejaVuSans-25" d="M 4653 2053
Q 4381 2053 4226 1822
Q 4072 1591 4072 1178
Q 4072 772 4226 539
Q 4381 306 4653 306
Q 4919 306 5073 539
Q 5228 772 5228 1178
Q 5228 1588 5073 1820
Q 4919 2053 4653 2053
z
M 4653 2450
Q 5147 2450 5437 2106
Q 5728 1763 5728 1178
Q 5728 594 5436 251
Q 5144 -91 4653 -91
Q 4153 -91 3862 251
Q 3572 594 3572 1178
Q 3572 1766 3864 2108
Q 4156 2450 4653 2450
z
M 1428 4353
Q 1159 4353 1004 4120
Q 850 3888 850 3481
Q 850 3069 1003 2837
Q 1156 2606 1428 2606
Q 1700 2606 1854 2837
Q 2009 3069 2009 3481
Q 2009 3884 1853 4118
Q 1697 4353 1428 4353
z
M 4250 4750
L 4750 4750
L 1831 -91
L 1331 -91
L 4250 4750
z
M 1428 4750
Q 1922 4750 2215 4408
Q 2509 4066 2509 3481
Q 2509 2891 2217 2550
Q 1925 2209 1428 2209
Q 931 2209 642 2551
Q 353 2894 353 3481
Q 353 4063 643 4406
Q 934 4750 1428 4750
z
" transform="scale(0.015625)"/>
     </defs>
     <use xlink:href="#DejaVuSans-33"/>
     <use xlink:href="#DejaVuSans-33" transform="translate(63.623047 0)"/>
     <use xlink:href="#DejaVuSans-25" transform="translate(127.246094 0)"/>
    </g>
   </g>
   <g id="text_20">
    <!-- 5 -->
    <g transform="translate(116.856296 155.251342) scale(0.08 -0.08)">
     <use xlink:href="#DejaVuSans-35"/>
    </g>
    <!-- 21% -->
    <g transform="translate(110.510671 164.209592) scale(0.08 -0.08)">
     <use xlink:href="#DejaVuSans-32"/>
     <use xlink:href="#DejaVuSans-31" transform="translate(63.623047 0)"/>
     <use xlink:href="#DejaVuSans-25" transform="translate(127.246094 0)"/>
    </g>
   </g>
   <g id="text_21">
    <!-- 3 -->
    <g transform="translate(165.799211 214.56867) scale(0.08 -0.08)">
     <use xlink:href="#DejaVuSans-33"/>
    </g>
    <!-- 12% -->
    <g transform="translate(159.453586 223.52692) scale(0.08 -0.08)">
     <use xlink:href="#DejaVuSans-31"/>
     <use xlink:href="#DejaVuSans-32" transform="translate(63.623047 0)"/>
     <use xlink:href="#DejaVuSans-25" transform="translate(127.246094 0)"/>
    </g>
   </g>
   <g id="text_22">
    <!-- 2 -->
    <g transform="translate(214.742125 244.227334) scale(0.08 -0.08)">
     <use xlink:href="#DejaVuSans-32"/>
    </g>
    <!-- 8% -->
    <g transform="translate(210.9415 253.185584) scale(0.08 -0.08)">
     <use xlink:href="#DejaVuSans-38"/>
     <use xlink:href="#DejaVuSans-25" transform="translate(63.623047 0)"/>
    </g>
   </g>
   <g id="text_23">
    <!-- 2 -->
    <g transform="translate(263.685039 244.227334) scale(0.08 -0.08)">
     <use xlink:href="#DejaVuSans-32"/>
    </g>
    <!-- 8% -->
    <g transform="translate(259.884414 253.185584) scale(0.08 -0.08)">
     <use xlink:href="#DejaVuSans-38"/>
     <use xlink:href="#DejaVuSans-25" transform="translate(63.623047 0)"/>
    </g>
   </g>
   <g id="text_24">
    <!-- 2 -->
    <g transform="translate(312.627954 244.227334) scale(0.08 -0.08)">
     <use xlink:href="#DejaVuSans-32"/>
    </g>
    <!-- 8% -->
    <g transform="translate(308.827329 253.185584) scale(0.08 -0.08)">
     <use xlink:href="#DejaVuSans-38"/>
     <use xlink:href="#DejaVuSans-25" transform="translate(63.623047 0)"/>
    </g>
   </g>
   <g id="text_25">
    <!-- 2 -->
    <g transform="translate(361.570868 244.227334) scale(0.08 -0.08)">
     <use xlink:href="#DejaVuSans-32"/>
    </g>
    <!-- 8% -->
    <g transform="translate(357.770243 253.185584) scale(0.08 -0.08)">
     <use xlink:href="#DejaVuSans-38"/>
     <use xlink:href="#DejaVuSans-25" transform="translate(63.623047 0)"/>
    </g>
   </g>
   <g id="text_26">
    <!-- Total: 24 -->
    <g transform="translate(354.649265 85.631233) scale(0.09 -0.09)">
     <defs>
      <path id="DejaVuSans-3a" d="M 750 794
L 1409 794
L 1409 0
L 750 0
L 750 794
z
M 750 3309
L 1409 3309
L 1409 2516
L 750 2516
L 750 3309
z
" transform="scale(0.015625)"/>
     </defs>
     <use xlink:href="#DejaVuSans-54"/>
     <use xlink:href="#DejaVuSans-6f" transform="translate(44.083984 0)"/>
     <use xlink:href="#DejaVuSans-74" transform="translate(105.265625 0)"/>
     <use xlink:href="#DejaVuSans-61" transform="translate(144.474609 0)"/>
     <use xlink:href="#DejaVuSans-6c" transform="translate(205.753906 0)"/>
     <use xlink:href="#DejaVuSans-3a" transform="translate(233.537109 0)"/>
     <use xlink:href="#DejaVuSans-20" transform="translate(267.228516 0)"/>
     <use xlink:href="#DejaVuSans-32" transform="translate(299.015625 0)"/>
     <use xlink:href="#DejaVuSans-34" transform="translate(362.638672 0)"/>
    </g>
   </g>
   <g id="text_27">
    <!-- Tokens per Manuscript Section -->
    <g transform="translate(125.93525 60.336) scale(0.12 -0.12)">
     <defs>
      <path id="DejaVuSans-4d" d="M 628 4666
L 1569 4666
L 2759 1491
L 3956 4666
L 4897 4666
L 4897 0
L 4281 0
L 4281 4097
L 3078 897
L 2444 897
L 1241 4097
L 1241 0
L 628 0
L 628 4666
z
" transform="scale(0.015625)"/>
     </defs>
     <use xlink:href="#DejaVuSans-54"/>
     <use xlink:href="#DejaVuSans-6f" transform="translate(44.083984 0)"/>
     <use xlink:href="#DejaVuSans-6b" transform="translate(105.265625 0)"/>
     <use xlink:href="#DejaVuSans-65" transform="translate(159.550781 0)"/>
     <use xlink:href="#DejaVuSans-6e" transform="translate(221.074219 0)"/>
     <use xlink:href="#DejaVuSans-73" transform="translate(284.453125 0)"/>
     <use xlink:href="#DejaVuSans-20" transform="translate(336.552734 0)"/>
     <use xlink:href="#DejaVuSans-70" transform="translate(368.339844 0)"/>
     <use xlink:href="#DejaVuSans-65" transform="translate(431.816406 0)"/>
     <use xlink:href="#DejaVuSans-72" transform="translate(493.339844 0)"/>
     <use xlink:href="#DejaVuSans-20" transform="translate(534.453125 0)"/>
     <use xlink:href="#DejaVuSans-4d" transform="translate(566.240234 0)"/>
     <use xlink:href="#DejaVuSans-61" transform="translate(652.519531 0)"/>
     <use xlink:href="#DejaVuSans-6e" transform="translate(713.798828 0)"/>
     <use xlink:href="#DejaVuSans-75" transform="translate(777.177734 0)"/>
     <use xlink:href="#DejaVuSans-73" transform="translate(840.556641 0)"/>
     <use xlink:href="#DejaVuSans-63" transform="translate(892.65625 0)"/>
     <use xlink:href="#DejaVuSans-72" transform="translate(947.636719 0)"/>
     <use xlink:href="#DejaVuSans-69" transform="translate(988.75 0)"/>
     <use xlink:href="#DejaVuSans-70" transform="translate(1016.533203 0)"/>
     <use xlink:href="#DejaVuSans-74" transform="translate(1080.009766 0)"/>
     <use xlink:href="#DejaVuSans-20" transform="translate(1119.21875 0)"/>
     <use xlink:href="#DejaVuSans-53" transform="translate(1151.005859 0)"/>
     <use xlink:href="#DejaVuSans-65" transform="translate(1214.482422 0)"/>
     <use xlink:href="#DejaVuSans-63" transform="translate(1276.005859 0)"/>
     <use xlink:href="#DejaVuSans-74" transform="translate(1330.986328 0)"/>
     <use xlink:href="#DejaVuSans-69" transform="translate(1370.195312 0)"/>
     <use xlink:href="#DejaVuSans-6f" transform="translate(1397.978516 0)"/>
     <use xlink:href="#DejaVuSans-6e" transform="translate(1459.160156 0)"/>
    </g>
   </g>
  </g>
  <g id="axes_2">
   <g id="patch_12">
    <path d="M 532.818404 315.468779
L 898.911404 315.468779
L 898.911404 66.336
L 532.818404 66.336
z
" style="fill: #ffffff"/>
   </g>
   <g id="matplotlib.axis_3">
    <g id="xtick_8">
     <g id="line2d_26">
      <path d="M 532.818404 315.468779
L 532.818404 66.336
" clip-path="url(#p810da19db5)" style="fill: none; stroke: #b0b0b0; stroke-opacity: 0.22; stroke-width: 0.8; stroke-linecap: square"/>
     </g>
     <g id="line2d_27">
      <g>
       <use xlink:href="#mab0ca7d0a2" x="532.818404" y="315.468779" style="stroke: #000000; stroke-width: 0.8"/>
      </g>
     </g>
     <g id="text_28">
      <!-- 0 -->
      <g transform="translate(529.637154 330.067216) scale(0.1 -0.1)">
       <use xlink:href="#DejaVuSans-30"/>
      </g>
     </g>
    </g>
    <g id="xtick_9">
     <g id="line2d_28">
      <path d="M 602.550404 315.468779
L 602.550404 66.336
" clip-path="url(#p810da19db5)" style="fill: none; stroke: #b0b0b0; stroke-opacity: 0.22; stroke-width: 0.8; stroke-linecap: square"/>
     </g>
     <g id="line2d_29">
      <g>
       <use xlink:href="#mab0ca7d0a2" x="602.550404" y="315.468779" style="stroke: #000000; stroke-width: 0.8"/>
      </g>
     </g>
     <g id="text_29">
      <!-- 1 -->
      <g transform="translate(599.369154 330.067216) scale(0.1 -0.1)">
       <use xlink:href="#DejaVuSans-31"/>
      </g>
     </g>
    </g>
    <g id="xtick_10">
     <g id="line2d_30">
      <path d="M 672.282404 315.468779
L 672.282404 66.336
" clip-path="url(#p810da19db5)" style="fill: none; stroke: #b0b0b0; stroke-opacity: 0.22; stroke-width: 0.8; stroke-linecap: square"/>
     </g>
     <g id="line2d_31">
      <g>
       <use xlink:href="#mab0ca7d0a2" x="672.282404" y="315.468779" style="stroke: #000000; stroke-width: 0.8"/>
      </g>
     </g>
     <g id="text_30">
      <!-- 2 -->
      <g transform="translate(669.101154 330.067216) scale(0.1 -0.1)">
       <use xlink:href="#DejaVuSans-32"/>
      </g>
     </g>
    </g>
    <g id="xtick_11">
     <g id="line2d_32">
      <path d="M 742.014404 315.468779
L 742.014404 66.336
" clip-path="url(#p810da19db5)" style="fill: none; stroke: #b0b0b0; stroke-opacity: 0.22; stroke-width: 0.8; stroke-linecap: square"/>
     </g>
     <g id="line2d_33">
      <g>
       <use xlink:href="#mab0ca7d0a2" x="742.014404" y="315.468779" style="stroke: #000000; stroke-width: 0.8"/>
      </g>
     </g>
     <g id="text_31">
      <!-- 3 -->
      <g transform="translate(738.833154 330.067216) scale(0.1 -0.1)">
       <use xlink:href="#DejaVuSans-33"/>
      </g>
     </g>
    </g>
    <g id="xtick_12">
     <g id="line2d_34">
      <path d="M 811.746404 315.468779
L 811.746404 66.336
" clip-path="url(#p810da19db5)" style="fill: none; stroke: #b0b0b0; stroke-opacity: 0.22; stroke-width: 0.8; stroke-linecap: square"/>
     </g>
     <g id="line2d_35">
      <g>
       <use xlink:href="#mab0ca7d0a2" x="811.746404" y="315.468779" style="stroke: #000000; stroke-width: 0.8"/>
      </g>
     </g>
     <g id="text_32">
      <!-- 4 -->
      <g transform="translate(808.565154 330.067216) scale(0.1 -0.1)">
       <use xlink:href="#DejaVuSans-34"/>
      </g>
     </g>
    </g>
    <g id="xtick_13">
     <g id="line2d_36">
      <path d="M 881.478404 315.468779
L 881.478404 66.336
" clip-path="url(#p810da19db5)" style="fill: none; stroke: #b0b0b0; stroke-opacity: 0.22; stroke-width: 0.8; stroke-linecap: square"/>
     </g>
     <g id="line2d_37">
      <g>
       <use xlink:href="#mab0ca7d0a2" x="881.478404" y="315.468779" style="stroke: #000000; stroke-width: 0.8"/>
      </g>
     </g>
     <g id="text_33">
      <!-- 5 -->
      <g transform="translate(878.297154 330.067216) scale(0.1 -0.1)">
       <use xlink:href="#DejaVuSans-35"/>
      </g>
     </g>
    </g>
    <g id="text_34">
     <!-- Token Count -->
     <g transform="translate(685.204748 343.745341) scale(0.1 -0.1)">
      <use xlink:href="#DejaVuSans-54"/>
      <use xlink:href="#DejaVuSans-6f" transform="translate(44.083984 0)"/>
      <use xlink:href="#DejaVuSans-6b" transform="translate(105.265625 0)"/>
      <use xlink:href="#DejaVuSans-65" transform="translate(159.550781 0)"/>
      <use xlink:href="#DejaVuSans-6e" transform="translate(221.074219 0)"/>
      <use xlink:href="#DejaVuSans-20" transform="translate(284.453125 0)"/>
      <use xlink:href="#DejaVuSans-43" transform="translate(316.240234 0)"/>
      <use xlink:href="#DejaVuSans-6f" transform="translate(386.064453 0)"/>
      <use xlink:href="#DejaVuSans-75" transform="translate(447.246094 0)"/>
      <use xlink:href="#DejaVuSans-6e" transform="translate(510.625 0)"/>
      <use xlink:href="#DejaVuSans-74" transform="translate(574.003906 0)"/>
     </g>
    </g>
   </g>
   <g id="matplotlib.axis_4">
    <g id="ytick_10">
     <g id="line2d_38">
      <g>
       <use xlink:href="#mec18ba6a98" x="532.818404" y="292.52998" style="stroke: #000000; stroke-width: 0.8"/>
      </g>
     </g>
     <g id="text_35">
      <!-- refinement_verbs -->
      <g transform="translate(438.098092 296.329199) scale(0.1 -0.1)">
       <defs>
        <path id="DejaVuSans-66" d="M 2375 4863
L 2375 4384
L 1825 4384
Q 1516 4384 1395 4259
Q 1275 4134 1275 3809
L 1275 3500
L 2222 3500
L 2222 3053
L 1275 3053
L 1275 0
L 697 0
L 697 3053
L 147 3053
L 147 3500
L 697 3500
L 697 3744
Q 697 4328 969 4595
Q 1241 4863 1831 4863
L 2375 4863
z
" transform="scale(0.015625)"/>
       </defs>
       <use xlink:href="#DejaVuSans-72"/>
       <use xlink:href="#DejaVuSans-65" transform="translate(38.863281 0)"/>
       <use xlink:href="#DejaVuSans-66" transform="translate(100.386719 0)"/>
       <use xlink:href="#DejaVuSans-69" transform="translate(135.591797 0)"/>
       <use xlink:href="#DejaVuSans-6e" transform="translate(163.375 0)"/>
       <use xlink:href="#DejaVuSans-65" transform="translate(226.753906 0)"/>
       <use xlink:href="#DejaVuSans-6d" transform="translate(288.277344 0)"/>
       <use xlink:href="#DejaVuSans-65" transform="translate(385.689453 0)"/>
       <use xlink:href="#DejaVuSans-6e" transform="translate(447.212891 0)"/>
       <use xlink:href="#DejaVuSans-74" transform="translate(510.591797 0)"/>
       <use xlink:href="#DejaVuSans-5f" transform="translate(549.800781 0)"/>
       <use xlink:href="#DejaVuSans-76" transform="translate(599.800781 0)"/>
       <use xlink:href="#DejaVuSans-65" transform="translate(658.980469 0)"/>
       <use xlink:href="#DejaVuSans-72" transform="translate(720.503906 0)"/>
       <use xlink:href="#DejaVuSans-62" transform="translate(761.617188 0)"/>
       <use xlink:href="#DejaVuSans-73" transform="translate(825.09375 0)"/>
      </g>
     </g>
    </g>
    <g id="ytick_11">
     <g id="line2d_39">
      <g>
       <use xlink:href="#mec18ba6a98" x="532.818404" y="263.493525" style="stroke: #000000; stroke-width: 0.8"/>
      </g>
     </g>
     <g id="text_36">
      <!-- integrity_terms -->
      <g transform="translate(449.593404 267.292744) scale(0.1 -0.1)">
       <use xlink:href="#DejaVuSans-69"/>
       <use xlink:href="#DejaVuSans-6e" transform="translate(27.783203 0)"/>
       <use xlink:href="#DejaVuSans-74" transform="translate(91.162109 0)"/>
       <use xlink:href="#DejaVuSans-65" transform="translate(130.371094 0)"/>
       <use xlink:href="#DejaVuSans-67" transform="translate(191.894531 0)"/>
       <use xlink:href="#DejaVuSans-72" transform="translate(255.371094 0)"/>
       <use xlink:href="#DejaVuSans-69" transform="translate(296.484375 0)"/>
       <use xlink:href="#DejaVuSans-74" transform="translate(324.267578 0)"/>
       <use xlink:href="#DejaVuSans-79" transform="translate(363.476562 0)"/>
       <use xlink:href="#DejaVuSans-5f" transform="translate(422.65625 0)"/>
       <use xlink:href="#DejaVuSans-74" transform="translate(472.65625 0)"/>
       <use xlink:href="#DejaVuSans-65" transform="translate(511.865234 0)"/>
       <use xlink:href="#DejaVuSans-72" transform="translate(573.388672 0)"/>
       <use xlink:href="#DejaVuSans-6d" transform="translate(612.751953 0)"/>
       <use xlink:href="#DejaVuSans-73" transform="translate(710.164062 0)"/>
      </g>
     </g>
    </g>
    <g id="ytick_12">
     <g id="line2d_40">
      <g>
       <use xlink:href="#mec18ba6a98" x="532.818404" y="234.457071" style="stroke: #000000; stroke-width: 0.8"/>
      </g>
     </g>
     <g id="text_37">
      <!-- manuscript_terms -->
      <g transform="translate(435.449654 238.25629) scale(0.1 -0.1)">
       <use xlink:href="#DejaVuSans-6d"/>
       <use xlink:href="#DejaVuSans-61" transform="translate(97.412109 0)"/>
       <use xlink:href="#DejaVuSans-6e" transform="translate(158.691406 0)"/>
       <use xlink:href="#DejaVuSans-75" transform="translate(222.070312 0)"/>
       <use xlink:href="#DejaVuSans-73" transform="translate(285.449219 0)"/>
       <use xlink:href="#DejaVuSans-63" transform="translate(337.548828 0)"/>
       <use xlink:href="#DejaVuSans-72" transform="translate(392.529297 0)"/>
       <use xlink:href="#DejaVuSans-69" transform="translate(433.642578 0)"/>
       <use xlink:href="#DejaVuSans-70" transform="translate(461.425781 0)"/>
       <use xlink:href="#DejaVuSans-74" transform="translate(524.902344 0)"/>
       <use xlink:href="#DejaVuSans-5f" transform="translate(564.111328 0)"/>
       <use xlink:href="#DejaVuSans-74" transform="translate(614.111328 0)"/>
       <use xlink:href="#DejaVuSans-65" transform="translate(653.320312 0)"/>
       <use xlink:href="#DejaVuSans-72" transform="translate(714.84375 0)"/>
       <use xlink:href="#DejaVuSans-6d" transform="translate(754.207031 0)"/>
       <use xlink:href="#DejaVuSans-73" transform="translate(851.619141 0)"/>
      </g>
     </g>
    </g>
    <g id="ytick_13">
     <g id="line2d_41">
      <g>
       <use xlink:href="#mec18ba6a98" x="532.818404" y="205.420617" style="stroke: #000000; stroke-width: 0.8"/>
      </g>
     </g>
     <g id="text_38">
      <!-- purity_adjectives -->
      <g transform="translate(440.518404 209.219835) scale(0.1 -0.1)">
       <defs>
        <path id="DejaVuSans-6a" d="M 603 3500
L 1178 3500
L 1178 -63
Q 1178 -731 923 -1031
Q 669 -1331 103 -1331
L -116 -1331
L -116 -844
L 38 -844
Q 366 -844 484 -692
Q 603 -541 603 -63
L 603 3500
z
M 603 4863
L 1178 4863
L 1178 4134
L 603 4134
L 603 4863
z
" transform="scale(0.015625)"/>
       </defs>
       <use xlink:href="#DejaVuSans-70"/>
       <use xlink:href="#DejaVuSans-75" transform="translate(63.476562 0)"/>
       <use xlink:href="#DejaVuSans-72" transform="translate(126.855469 0)"/>
       <use xlink:href="#DejaVuSans-69" transform="translate(167.96875 0)"/>
       <use xlink:href="#DejaVuSans-74" transform="translate(195.751953 0)"/>
       <use xlink:href="#DejaVuSans-79" transform="translate(234.960938 0)"/>
       <use xlink:href="#DejaVuSans-5f" transform="translate(294.140625 0)"/>
       <use xlink:href="#DejaVuSans-61" transform="translate(344.140625 0)"/>
       <use xlink:href="#DejaVuSans-64" transform="translate(405.419922 0)"/>
       <use xlink:href="#DejaVuSans-6a" transform="translate(468.896484 0)"/>
       <use xlink:href="#DejaVuSans-65" transform="translate(496.679688 0)"/>
       <use xlink:href="#DejaVuSans-63" transform="translate(558.203125 0)"/>
       <use xlink:href="#DejaVuSans-74" transform="translate(613.183594 0)"/>
       <use xlink:href="#DejaVuSans-69" transform="translate(652.392578 0)"/>
       <use xlink:href="#DejaVuSans-76" transform="translate(680.175781 0)"/>
       <use xlink:href="#DejaVuSans-65" transform="translate(739.355469 0)"/>
       <use xlink:href="#DejaVuSans-73" transform="translate(800.878906 0)"/>
      </g>
     </g>
    </g>
    <g id="ytick_14">
     <g id="line2d_42">
      <g>
       <use xlink:href="#mec18ba6a98" x="532.818404" y="176.384162" style="stroke: #000000; stroke-width: 0.8"/>
      </g>
     </g>
     <g id="text_39">
      <!-- metallurgical_terms -->
      <g transform="translate(426.555904 180.183381) scale(0.1 -0.1)">
       <use xlink:href="#DejaVuSans-6d"/>
       <use xlink:href="#DejaVuSans-65" transform="translate(97.412109 0)"/>
       <use xlink:href="#DejaVuSans-74" transform="translate(158.935547 0)"/>
       <use xlink:href="#DejaVuSans-61" transform="translate(198.144531 0)"/>
       <use xlink:href="#DejaVuSans-6c" transform="translate(259.423828 0)"/>
       <use xlink:href="#DejaVuSans-6c" transform="translate(287.207031 0)"/>
       <use xlink:href="#DejaVuSans-75" transform="translate(314.990234 0)"/>
       <use xlink:href="#DejaVuSans-72" transform="translate(378.369141 0)"/>
       <use xlink:href="#DejaVuSans-67" transform="translate(417.732422 0)"/>
       <use xlink:href="#DejaVuSans-69" transform="translate(481.208984 0)"/>
       <use xlink:href="#DejaVuSans-63" transform="translate(508.992188 0)"/>
       <use xlink:href="#DejaVuSans-61" transform="translate(563.972656 0)"/>
       <use xlink:href="#DejaVuSans-6c" transform="translate(625.251953 0)"/>
       <use xlink:href="#DejaVuSans-5f" transform="translate(653.035156 0)"/>
       <use xlink:href="#DejaVuSans-74" transform="translate(703.035156 0)"/>
       <use xlink:href="#DejaVuSans-65" transform="translate(742.244141 0)"/>
       <use xlink:href="#DejaVuSans-72" transform="translate(803.767578 0)"/>
       <use xlink:href="#DejaVuSans-6d" transform="translate(843.130859 0)"/>
       <use xlink:href="#DejaVuSans-73" transform="translate(940.542969 0)"/>
      </g>
     </g>
    </g>
    <g id="ytick_15">
     <g id="line2d_43">
      <g>
       <use xlink:href="#mec18ba6a98" x="532.818404" y="147.347708" style="stroke: #000000; stroke-width: 0.8"/>
      </g>
     </g>
     <g id="text_40">
      <!-- boundary_terms -->
      <g transform="translate(444.210592 151.146927) scale(0.1 -0.1)">
       <use xlink:href="#DejaVuSans-62"/>
       <use xlink:href="#DejaVuSans-6f" transform="translate(63.476562 0)"/>
       <use xlink:href="#DejaVuSans-75" transform="translate(124.658203 0)"/>
       <use xlink:href="#DejaVuSans-6e" transform="translate(188.037109 0)"/>
       <use xlink:href="#DejaVuSans-64" transform="translate(251.416016 0)"/>
       <use xlink:href="#DejaVuSans-61" transform="translate(314.892578 0)"/>
       <use xlink:href="#DejaVuSans-72" transform="translate(376.171875 0)"/>
       <use xlink:href="#DejaVuSans-79" transform="translate(417.285156 0)"/>
       <use xlink:href="#DejaVuSans-5f" transform="translate(476.464844 0)"/>
       <use xlink:href="#DejaVuSans-74" transform="translate(526.464844 0)"/>
       <use xlink:href="#DejaVuSans-65" transform="translate(565.673828 0)"/>
       <use xlink:href="#DejaVuSans-72" transform="translate(627.197266 0)"/>
       <use xlink:href="#DejaVuSans-6d" transform="translate(666.560547 0)"/>
       <use xlink:href="#DejaVuSans-73" transform="translate(763.972656 0)"/>
      </g>
     </g>
    </g>
    <g id="ytick_16">
     <g id="line2d_44">
      <g>
       <use xlink:href="#mec18ba6a98" x="532.818404" y="118.311253" style="stroke: #000000; stroke-width: 0.8"/>
      </g>
     </g>
     <g id="text_41">
      <!-- evidence_terms -->
      <g transform="translate(446.518404 122.110472) scale(0.1 -0.1)">
       <use xlink:href="#DejaVuSans-65"/>
       <use xlink:href="#DejaVuSans-76" transform="translate(61.523438 0)"/>
       <use xlink:href="#DejaVuSans-69" transform="translate(120.703125 0)"/>
       <use xlink:href="#DejaVuSans-64" transform="translate(148.486328 0)"/>
       <use xlink:href="#DejaVuSans-65" transform="translate(211.962891 0)"/>
       <use xlink:href="#DejaVuSans-6e" transform="translate(273.486328 0)"/>
       <use xlink:href="#DejaVuSans-63" transform="translate(336.865234 0)"/>
       <use xlink:href="#DejaVuSans-65" transform="translate(391.845703 0)"/>
       <use xlink:href="#DejaVuSans-5f" transform="translate(453.369141 0)"/>
       <use xlink:href="#DejaVuSans-74" transform="translate(503.369141 0)"/>
       <use xlink:href="#DejaVuSans-65" transform="translate(542.578125 0)"/>
       <use xlink:href="#DejaVuSans-72" transform="translate(604.101562 0)"/>
       <use xlink:href="#DejaVuSans-6d" transform="translate(643.464844 0)"/>
       <use xlink:href="#DejaVuSans-73" transform="translate(740.876953 0)"/>
      </g>
     </g>
    </g>
    <g id="ytick_17">
     <g id="line2d_45">
      <g>
       <use xlink:href="#mec18ba6a98" x="532.818404" y="89.274799" style="stroke: #000000; stroke-width: 0.8"/>
      </g>
     </g>
     <g id="text_42">
      <!-- gate_terms -->
      <g transform="translate(469.309029 92.934955) scale(0.1 -0.1)">
       <use xlink:href="#DejaVuSans-67"/>
       <use xlink:href="#DejaVuSans-61" transform="translate(63.476562 0)"/>
       <use xlink:href="#DejaVuSans-74" transform="translate(124.755859 0)"/>
       <use xlink:href="#DejaVuSans-65" transform="translate(163.964844 0)"/>
       <use xlink:href="#DejaVuSans-5f" transform="translate(225.488281 0)"/>
       <use xlink:href="#DejaVuSans-74" transform="translate(275.488281 0)"/>
       <use xlink:href="#DejaVuSans-65" transform="translate(314.697266 0)"/>
       <use xlink:href="#DejaVuSans-72" transform="translate(376.220703 0)"/>
       <use xlink:href="#DejaVuSans-6d" transform="translate(415.583984 0)"/>
       <use xlink:href="#DejaVuSans-73" transform="translate(512.996094 0)"/>
      </g>
     </g>
    </g>
    <g id="text_43">
     <!-- Category -->
     <g transform="translate(420.476217 213.743014) rotate(-90) scale(0.1 -0.1)">
      <use xlink:href="#DejaVuSans-43"/>
      <use xlink:href="#DejaVuSans-61" transform="translate(69.824219 0)"/>
      <use xlink:href="#DejaVuSans-74" transform="translate(131.103516 0)"/>
      <use xlink:href="#DejaVuSans-65" transform="translate(170.3125 0)"/>
      <use xlink:href="#DejaVuSans-67" transform="translate(231.835938 0)"/>
      <use xlink:href="#DejaVuSans-6f" transform="translate(295.3125 0)"/>
      <use xlink:href="#DejaVuSans-72" transform="translate(356.494141 0)"/>
      <use xlink:href="#DejaVuSans-79" transform="translate(397.607422 0)"/>
     </g>
    </g>
   </g>
   <g id="patch_13">
    <path d="M 532.818404 304.144562
L 602.550404 304.144562
L 602.550404 280.915398
L 532.818404 280.915398
z
" clip-path="url(#p810da19db5)" style="fill: #0f766e; opacity: 0.8"/>
   </g>
   <g id="patch_14">
    <path d="M 532.818404 275.108107
L 672.282404 275.108107
L 672.282404 251.878944
L 532.818404 251.878944
z
" clip-path="url(#p810da19db5)" style="fill: #0f766e; opacity: 0.8"/>
   </g>
   <g id="patch_15">
    <path d="M 532.818404 246.071653
L 672.282404 246.071653
L 672.282404 222.842489
L 532.818404 222.842489
z
" clip-path="url(#p810da19db5)" style="fill: #0f766e; opacity: 0.8"/>
   </g>
   <g id="patch_16">
    <path d="M 532.818404 217.035198
L 672.282404 217.035198
L 672.282404 193.806035
L 532.818404 193.806035
z
" clip-path="url(#p810da19db5)" style="fill: #0f766e; opacity: 0.8"/>
   </g>
   <g id="patch_17">
    <path d="M 532.818404 187.998744
L 742.014404 187.998744
L 742.014404 164.76958
L 532.818404 164.76958
z
" clip-path="url(#p810da19db5)" style="fill: #0f766e; opacity: 0.8"/>
   </g>
   <g id="patch_18">
    <path d="M 532.818404 158.96229
L 811.746404 158.96229
L 811.746404 135.733126
L 532.818404 135.733126
z
" clip-path="url(#p810da19db5)" style="fill: #0f766e; opacity: 0.8"/>
   </g>
   <g id="patch_19">
    <path d="M 532.818404 129.925835
L 881.478404 129.925835
L 881.478404 106.696672
L 532.818404 106.696672
z
" clip-path="url(#p810da19db5)" style="fill: #0f766e; opacity: 0.8"/>
   </g>
   <g id="patch_20">
    <path d="M 532.818404 100.889381
L 881.478404 100.889381
L 881.478404 77.660217
L 532.818404 77.660217
z
" clip-path="url(#p810da19db5)" style="fill: #0f766e; opacity: 0.8"/>
   </g>
   <g id="patch_21">
    <path d="M 532.818404 315.468779
L 532.818404 66.336
" style="fill: none; stroke: #000000; stroke-width: 0.8; stroke-linejoin: miter; stroke-linecap: square"/>
   </g>
   <g id="patch_22">
    <path d="M 532.818404 315.468779
L 898.911404 315.468779
" style="fill: none; stroke: #000000; stroke-width: 0.8; stroke-linejoin: miter; stroke-linecap: square"/>
   </g>
   <g id="text_44">
    <!-- 1 (4%) -->
    <g transform="translate(609.523604 294.73748) scale(0.08 -0.08)">
     <defs>
      <path id="DejaVuSans-28" d="M 1984 4856
Q 1566 4138 1362 3434
Q 1159 2731 1159 2009
Q 1159 1288 1364 580
Q 1569 -128 1984 -844
L 1484 -844
Q 1016 -109 783 600
Q 550 1309 550 2009
Q 550 2706 781 3412
Q 1013 4119 1484 4856
L 1984 4856
z
" transform="scale(0.015625)"/>
      <path id="DejaVuSans-29" d="M 513 4856
L 1013 4856
Q 1481 4119 1714 3412
Q 1947 2706 1947 2009
Q 1947 1309 1714 600
Q 1481 -109 1013 -844
L 513 -844
Q 928 -128 1133 580
Q 1338 1288 1338 2009
Q 1338 2731 1133 3434
Q 928 4138 513 4856
z
" transform="scale(0.015625)"/>
     </defs>
     <use xlink:href="#DejaVuSans-31"/>
     <use xlink:href="#DejaVuSans-20" transform="translate(63.623047 0)"/>
     <use xlink:href="#DejaVuSans-28" transform="translate(95.410156 0)"/>
     <use xlink:href="#DejaVuSans-34" transform="translate(134.423828 0)"/>
     <use xlink:href="#DejaVuSans-25" transform="translate(198.046875 0)"/>
     <use xlink:href="#DejaVuSans-29" transform="translate(293.066406 0)"/>
    </g>
   </g>
   <g id="text_45">
    <!-- 2 (8%) -->
    <g transform="translate(679.255604 265.701025) scale(0.08 -0.08)">
     <use xlink:href="#DejaVuSans-32"/>
     <use xlink:href="#DejaVuSans-20" transform="translate(63.623047 0)"/>
     <use xlink:href="#DejaVuSans-28" transform="translate(95.410156 0)"/>
     <use xlink:href="#DejaVuSans-38" transform="translate(134.423828 0)"/>
     <use xlink:href="#DejaVuSans-25" transform="translate(198.046875 0)"/>
     <use xlink:href="#DejaVuSans-29" transform="translate(293.066406 0)"/>
    </g>
   </g>
   <g id="text_46">
    <!-- 2 (8%) -->
    <g transform="translate(679.255604 236.664571) scale(0.08 -0.08)">
     <use xlink:href="#DejaVuSans-32"/>
     <use xlink:href="#DejaVuSans-20" transform="translate(63.623047 0)"/>
     <use xlink:href="#DejaVuSans-28" transform="translate(95.410156 0)"/>
     <use xlink:href="#DejaVuSans-38" transform="translate(134.423828 0)"/>
     <use xlink:href="#DejaVuSans-25" transform="translate(198.046875 0)"/>
     <use xlink:href="#DejaVuSans-29" transform="translate(293.066406 0)"/>
    </g>
   </g>
   <g id="text_47">
    <!-- 2 (8%) -->
    <g transform="translate(679.255604 207.628117) scale(0.08 -0.08)">
     <use xlink:href="#DejaVuSans-32"/>
     <use xlink:href="#DejaVuSans-20" transform="translate(63.623047 0)"/>
     <use xlink:href="#DejaVuSans-28" transform="translate(95.410156 0)"/>
     <use xlink:href="#DejaVuSans-38" transform="translate(134.423828 0)"/>
     <use xlink:href="#DejaVuSans-25" transform="translate(198.046875 0)"/>
     <use xlink:href="#DejaVuSans-29" transform="translate(293.066406 0)"/>
    </g>
   </g>
   <g id="text_48">
    <!-- 3 (12%) -->
    <g transform="translate(748.987604 178.591662) scale(0.08 -0.08)">
     <use xlink:href="#DejaVuSans-33"/>
     <use xlink:href="#DejaVuSans-20" transform="translate(63.623047 0)"/>
     <use xlink:href="#DejaVuSans-28" transform="translate(95.410156 0)"/>
     <use xlink:href="#DejaVuSans-31" transform="translate(134.423828 0)"/>
     <use xlink:href="#DejaVuSans-32" transform="translate(198.046875 0)"/>
     <use xlink:href="#DejaVuSans-25" transform="translate(261.669922 0)"/>
     <use xlink:href="#DejaVuSans-29" transform="translate(356.689453 0)"/>
    </g>
   </g>
   <g id="text_49">
    <!-- 4 (17%) -->
    <g transform="translate(818.719604 149.555208) scale(0.08 -0.08)">
     <use xlink:href="#DejaVuSans-34"/>
     <use xlink:href="#DejaVuSans-20" transform="translate(63.623047 0)"/>
     <use xlink:href="#DejaVuSans-28" transform="translate(95.410156 0)"/>
     <use xlink:href="#DejaVuSans-31" transform="translate(134.423828 0)"/>
     <use xlink:href="#DejaVuSans-37" transform="translate(198.046875 0)"/>
     <use xlink:href="#DejaVuSans-25" transform="translate(261.669922 0)"/>
     <use xlink:href="#DejaVuSans-29" transform="translate(356.689453 0)"/>
    </g>
   </g>
   <g id="text_50">
    <!-- 5 (21%) -->
    <g transform="translate(888.451604 120.518753) scale(0.08 -0.08)">
     <use xlink:href="#DejaVuSans-35"/>
     <use xlink:href="#DejaVuSans-20" transform="translate(63.623047 0)"/>
     <use xlink:href="#DejaVuSans-28" transform="translate(95.410156 0)"/>
     <use xlink:href="#DejaVuSans-32" transform="translate(134.423828 0)"/>
     <use xlink:href="#DejaVuSans-31" transform="translate(198.046875 0)"/>
     <use xlink:href="#DejaVuSans-25" transform="translate(261.669922 0)"/>
     <use xlink:href="#DejaVuSans-29" transform="translate(356.689453 0)"/>
    </g>
   </g>
   <g id="text_51">
    <!-- 5 (21%) -->
    <g transform="translate(888.451604 91.482299) scale(0.08 -0.08)">
     <use xlink:href="#DejaVuSans-35"/>
     <use xlink:href="#DejaVuSans-20" transform="translate(63.623047 0)"/>
     <use xlink:href="#DejaVuSans-28" transform="translate(95.410156 0)"/>
     <use xlink:href="#DejaVuSans-32" transform="translate(134.423828 0)"/>
     <use xlink:href="#DejaVuSans-31" transform="translate(198.046875 0)"/>
     <use xlink:href="#DejaVuSans-25" transform="translate(261.669922 0)"/>
     <use xlink:href="#DejaVuSans-29" transform="translate(356.689453 0)"/>
    </g>
   </g>
   <g id="text_52">
    <!-- Total: 24 -->
    <g transform="translate(853.227044 303.631749) scale(0.09 -0.09)">
     <use xlink:href="#DejaVuSans-54"/>
     <use xlink:href="#DejaVuSans-6f" transform="translate(44.083984 0)"/>
     <use xlink:href="#DejaVuSans-74" transform="translate(105.265625 0)"/>
     <use xlink:href="#DejaVuSans-61" transform="translate(144.474609 0)"/>
     <use xlink:href="#DejaVuSans-6c" transform="translate(205.753906 0)"/>
     <use xlink:href="#DejaVuSans-3a" transform="translate(233.537109 0)"/>
     <use xlink:href="#DejaVuSans-20" transform="translate(267.228516 0)"/>
     <use xlink:href="#DejaVuSans-32" transform="translate(299.015625 0)"/>
     <use xlink:href="#DejaVuSans-34" transform="translate(362.638672 0)"/>
    </g>
   </g>
   <g id="text_53">
    <!-- Tokens per Lexicon Category -->
    <g transform="translate(629.759279 60.336) scale(0.12 -0.12)">
     <defs>
      <path id="DejaVuSans-4c" d="M 628 4666
L 1259 4666
L 1259 531
L 3531 531
L 3531 0
L 628 0
L 628 4666
z
" transform="scale(0.015625)"/>
      <path id="DejaVuSans-78" d="M 3513 3500
L 2247 1797
L 3578 0
L 2900 0
L 1881 1375
L 863 0
L 184 0
L 1544 1831
L 300 3500
L 978 3500
L 1906 2253
L 2834 3500
L 3513 3500
z
" transform="scale(0.015625)"/>
     </defs>
     <use xlink:href="#DejaVuSans-54"/>
     <use xlink:href="#DejaVuSans-6f" transform="translate(44.083984 0)"/>
     <use xlink:href="#DejaVuSans-6b" transform="translate(105.265625 0)"/>
     <use xlink:href="#DejaVuSans-65" transform="translate(159.550781 0)"/>
     <use xlink:href="#DejaVuSans-6e" transform="translate(221.074219 0)"/>
     <use xlink:href="#DejaVuSans-73" transform="translate(284.453125 0)"/>
     <use xlink:href="#DejaVuSans-20" transform="translate(336.552734 0)"/>
     <use xlink:href="#DejaVuSans-70" transform="translate(368.339844 0)"/>
     <use xlink:href="#DejaVuSans-65" transform="translate(431.816406 0)"/>
     <use xlink:href="#DejaVuSans-72" transform="translate(493.339844 0)"/>
     <use xlink:href="#DejaVuSans-20" transform="translate(534.453125 0)"/>
     <use xlink:href="#DejaVuSans-4c" transform="translate(566.240234 0)"/>
     <use xlink:href="#DejaVuSans-65" transform="translate(620.203125 0)"/>
     <use xlink:href="#DejaVuSans-78" transform="translate(679.976562 0)"/>
     <use xlink:href="#DejaVuSans-69" transform="translate(739.15625 0)"/>
     <use xlink:href="#DejaVuSans-63" transform="translate(766.939453 0)"/>
     <use xlink:href="#DejaVuSans-6f" transform="translate(821.919922 0)"/>
     <use xlink:href="#DejaVuSans-6e" transform="translate(883.101562 0)"/>
     <use xlink:href="#DejaVuSans-20" transform="translate(946.480469 0)"/>
     <use xlink:href="#DejaVuSans-43" transform="translate(978.267578 0)"/>
     <use xlink:href="#DejaVuSans-61" transform="translate(1048.091797 0)"/>
     <use xlink:href="#DejaVuSans-74" transform="translate(1109.371094 0)"/>
     <use xlink:href="#DejaVuSans-65" transform="translate(1148.580078 0)"/>
     <use xlink:href="#DejaVuSans-67" transform="translate(1210.103516 0)"/>
     <use xlink:href="#DejaVuSans-6f" transform="translate(1273.580078 0)"/>
     <use xlink:href="#DejaVuSans-72" transform="translate(1334.761719 0)"/>
     <use xlink:href="#DejaVuSans-79" transform="translate(1375.875 0)"/>
    </g>
   </g>
  </g>
  <g id="text_54">
   <!-- Mega-Madlib Token Distribution -->
   <g transform="translate(354.060781 17.837812) scale(0.14 -0.14)">
    <defs>
     <path id="DejaVuSans-2d" d="M 313 2009
L 1997 2009
L 1997 1497
L 313 1497
L 313 2009
z
" transform="scale(0.015625)"/>
     <path id="DejaVuSans-44" d="M 1259 4147
L 1259 519
L 2022 519
Q 2988 519 3436 956
Q 3884 1394 3884 2338
Q 3884 3275 3436 3711
Q 2988 4147 2022 4147
L 1259 4147
z
M 628 4666
L 1925 4666
Q 3281 4666 3915 4102
Q 4550 3538 4550 2338
Q 4550 1131 3912 565
Q 3275 0 1925 0
L 628 0
L 628 4666
z
" transform="scale(0.015625)"/>
    </defs>
    <use xlink:href="#DejaVuSans-4d"/>
    <use xlink:href="#DejaVuSans-65" transform="translate(86.279297 0)"/>
    <use xlink:href="#DejaVuSans-67" transform="translate(147.802734 0)"/>
    <use xlink:href="#DejaVuSans-61" transform="translate(211.279297 0)"/>
    <use xlink:href="#DejaVuSans-2d" transform="translate(272.558594 0)"/>
    <use xlink:href="#DejaVuSans-4d" transform="translate(308.642578 0)"/>
    <use xlink:href="#DejaVuSans-61" transform="translate(394.921875 0)"/>
    <use xlink:href="#DejaVuSans-64" transform="translate(456.201172 0)"/>
    <use xlink:href="#DejaVuSans-6c" transform="translate(519.677734 0)"/>
    <use xlink:href="#DejaVuSans-69" transform="translate(547.460938 0)"/>
    <use xlink:href="#DejaVuSans-62" transform="translate(575.244141 0)"/>
    <use xlink:href="#DejaVuSans-20" transform="translate(638.720703 0)"/>
    <use xlink:href="#DejaVuSans-54" transform="translate(670.507812 0)"/>
    <use xlink:href="#DejaVuSans-6f" transform="translate(714.591797 0)"/>
    <use xlink:href="#DejaVuSans-6b" transform="translate(775.773438 0)"/>
    <use xlink:href="#DejaVuSans-65" transform="translate(830.058594 0)"/>
    <use xlink:href="#DejaVuSans-6e" transform="translate(891.582031 0)"/>
    <use xlink:href="#DejaVuSans-20" transform="translate(954.960938 0)"/>
    <use xlink:href="#DejaVuSans-44" transform="translate(986.748047 0)"/>
    <use xlink:href="#DejaVuSans-69" transform="translate(1063.75 0)"/>
    <use xlink:href="#DejaVuSans-73" transform="translate(1091.533203 0)"/>
    <use xlink:href="#DejaVuSans-74" transform="translate(1143.632812 0)"/>
    <use xlink:href="#DejaVuSans-72" transform="translate(1182.841797 0)"/>
    <use xlink:href="#DejaVuSans-69" transform="translate(1223.955078 0)"/>
    <use xlink:href="#DejaVuSans-62" transform="translate(1251.738281 0)"/>
    <use xlink:href="#DejaVuSans-75" transform="translate(1315.214844 0)"/>
    <use xlink:href="#DejaVuSans-74" transform="translate(1378.59375 0)"/>
    <use xlink:href="#DejaVuSans-69" transform="translate(1417.802734 0)"/>
    <use xlink:href="#DejaVuSans-6f" transform="translate(1445.585938 0)"/>
    <use xlink:href="#DejaVuSans-6e" transform="translate(1506.767578 0)"/>
   </g>
  </g>
 </g>
 <defs>
  <clipPath id="pd2df743401">
   <rect x="34.240625" y="66.336" width="366.093" height="249.132779"/>
  </clipPath>
  <clipPath id="p810da19db5">
   <rect x="532.818404" y="66.336" width="366.093" height="249.132779"/>
  </clipPath>
 </defs>
</svg>
